# Blender 3.3.1
# www.blender.org
mtllib Canang.mtl
o Canang
v -0.523614 0.270635 0.030105
v 0.523614 0.270635 0.030105
v -0.523614 0.262260 0.033574
v 0.523614 0.262260 0.033574
v -0.523614 0.258791 0.041949
v 0.523614 0.258791 0.041949
v -0.523614 0.262260 0.050324
v 0.523614 0.262260 0.050324
v -0.523614 0.270635 0.053793
v 0.523614 0.270635 0.053793
v -0.523614 0.279011 0.050324
v 0.523614 0.279011 0.050324
v -0.523614 0.282480 0.041949
v 0.523614 0.282480 0.041949
v -0.523614 0.279011 0.033574
v 0.523614 0.279011 0.033574
v 0.523614 0.270635 0.030105
v -0.523614 0.270635 0.030105
v 0.523614 0.262260 0.033574
v -0.523614 0.262260 0.033574
v 0.523614 0.258791 0.041949
v -0.523614 0.258791 0.041949
v 0.523614 0.262260 0.050324
v -0.523614 0.262260 0.050324
v 0.523614 0.270635 0.053793
v -0.523614 0.270635 0.053793
v 0.523614 0.279011 0.050324
v -0.523614 0.279011 0.050324
v 0.523614 0.282480 0.041949
v -0.523614 0.282480 0.041949
v 0.523614 0.279011 0.033574
v -0.523614 0.279011 0.033574
v -0.523614 0.270635 -0.030105
v 0.523614 0.270635 -0.030105
v -0.523614 0.262260 -0.033574
v 0.523614 0.262260 -0.033574
v -0.523614 0.258791 -0.041949
v 0.523614 0.258791 -0.041949
v -0.523614 0.262260 -0.050324
v 0.523614 0.262260 -0.050324
v -0.523614 0.270635 -0.053793
v 0.523614 0.270635 -0.053793
v -0.523614 0.279011 -0.050324
v 0.523614 0.279011 -0.050324
v -0.523614 0.282480 -0.041949
v 0.523614 0.282480 -0.041949
v -0.523614 0.279011 -0.033574
v 0.523614 0.279011 -0.033574
v 0.523614 0.270635 -0.030105
v -0.523614 0.270635 -0.030105
v 0.523614 0.262260 -0.033574
v -0.523614 0.262260 -0.033574
v 0.523614 0.258791 -0.041949
v -0.523614 0.258791 -0.041949
v 0.523614 0.262260 -0.050324
v -0.523614 0.262260 -0.050324
v 0.523614 0.270635 -0.053793
v -0.523614 0.270635 -0.053793
v 0.523614 0.279011 -0.050324
v -0.523614 0.279011 -0.050324
v 0.523614 0.282480 -0.041949
v -0.523614 0.282480 -0.041949
v 0.523614 0.279011 -0.033574
v -0.523614 0.279011 -0.033574
v 0.574536 0.000000 0.300000
v 0.574536 0.300000 0.300000
v 0.574536 0.000000 -0.300000
v 0.574536 0.300000 -0.300000
v 0.534571 0.300000 -0.258264
v 0.534571 0.300000 0.258264
v 0.039964 0.300000 -0.258264
v 0.039964 0.300000 0.258264
v 0.000000 0.000000 -0.300000
v 0.000000 0.300000 -0.300000
v 0.000000 0.000000 0.300000
v 0.000000 0.300000 0.300000
v 0.534571 -0.000000 -0.258264
v 0.534571 -0.000000 0.258264
v 0.039964 -0.000000 -0.258264
v 0.039964 -0.000000 0.258264
v 0.574536 0.000000 0.139566
v 0.574536 0.113352 0.000000
v 0.574536 0.000000 -0.139566
v 0.574536 0.300000 -0.139566
v 0.574536 0.300000 0.000000
v 0.574536 0.300000 0.139566
v 0.534571 0.300000 -0.139566
v 0.534571 0.300000 0.000000
v 0.534571 0.300000 0.139566
v 0.534571 -0.000000 -0.139566
v 0.534571 0.113352 0.000000
v 0.534571 -0.000000 0.139566
v 0.000000 0.300000 -0.224803
v 0.000000 0.300000 0.224803
v 0.039964 0.300000 -0.224803
v 0.039964 0.300000 0.224803
v 0.039964 -0.000000 -0.224803
v 0.039964 -0.000000 0.224803
v 0.000000 0.300000 -0.074934
v 0.000000 0.300000 0.074934
v 0.039964 0.300000 -0.074934
v 0.039964 0.300000 0.074934
v 0.039964 0.202317 -0.074934
v 0.039964 0.202317 0.074934
v -0.574536 0.000000 0.300000
v -0.574536 0.300000 0.300000
v -0.574536 0.000000 -0.300000
v -0.574536 0.300000 -0.300000
v -0.534571 0.300000 -0.258264
v -0.534571 0.300000 0.258264
v -0.039964 0.300000 -0.258264
v -0.039964 0.300000 0.258264
v -0.534571 -0.000000 -0.258264
v -0.534571 -0.000000 0.258264
v -0.039964 -0.000000 -0.258264
v -0.039964 -0.000000 0.258264
v -0.574536 0.000000 0.139566
v -0.574536 0.113352 0.000000
v -0.574536 0.000000 -0.139566
v -0.574536 0.300000 -0.139566
v -0.574536 0.300000 0.000000
v -0.574536 0.300000 0.139566
v -0.534571 0.300000 -0.139566
v -0.534571 0.300000 0.000000
v -0.534571 0.300000 0.139566
v -0.534571 -0.000000 -0.139566
v -0.534571 0.113352 0.000000
v -0.534571 -0.000000 0.139566
v -0.039964 0.300000 -0.224803
v -0.039964 0.300000 0.224803
v -0.039964 -0.000000 -0.224803
v -0.039964 -0.000000 0.224803
v -0.039964 0.300000 -0.074934
v -0.039964 0.300000 0.074934
v -0.039964 0.202317 -0.074934
v -0.039964 0.202317 0.074934
v 0.000000 -0.000000 0.224803
v 0.000000 0.202317 0.074934
v 0.000000 0.202317 -0.074934
v 0.000000 -0.000000 -0.224803
v 0.284942 0.149138 -0.105837
v 0.284942 0.278054 -0.204149
v 0.359780 0.149138 -0.074838
v 0.429297 0.278054 -0.144355
v 0.390779 0.149138 0.000000
v 0.489091 0.278054 0.000000
v 0.359780 0.149138 0.074838
v 0.429297 0.278054 0.144355
v 0.284942 0.149138 0.105837
v 0.284942 0.278054 0.204149
v 0.210104 0.149138 0.074838
v 0.140587 0.278054 0.144355
v 0.179105 0.149138 0.000000
v 0.080793 0.278054 0.000000
v 0.210104 0.149138 -0.074838
v 0.140587 0.278054 -0.144355
v 0.416757 0.296625 -0.131814
v 0.284942 0.296625 -0.186414
v 0.471356 0.296625 0.000000
v 0.416757 0.296625 0.131814
v 0.284942 0.296625 0.186414
v 0.153128 0.296625 0.131814
v 0.098529 0.296625 0.000000
v 0.153128 0.296625 -0.131814
v 0.318315 0.310951 -0.033373
v 0.284942 0.310951 -0.047196
v 0.332138 0.310951 0.000000
v 0.318315 0.310951 0.033373
v 0.284942 0.310951 0.047196
v 0.251570 0.310951 0.033373
v 0.237746 0.310951 0.000000
v 0.251570 0.310951 -0.033373
v 0.307318 0.332893 -0.022376
v 0.284942 0.332893 -0.031644
v 0.316586 0.332893 0.000000
v 0.307318 0.332893 0.022376
v 0.284942 0.332893 0.031644
v 0.262567 0.332893 0.022376
v 0.253298 0.332893 0.000000
v 0.262567 0.332893 -0.022376
v -0.284942 0.149138 -0.105837
v -0.284942 0.278054 -0.204149
v -0.359780 0.149138 -0.074838
v -0.429297 0.278054 -0.144355
v -0.390779 0.149138 0.000000
v -0.489091 0.278054 0.000000
v -0.359780 0.149138 0.074838
v -0.429297 0.278054 0.144355
v -0.284942 0.149138 0.105837
v -0.284942 0.278054 0.204149
v -0.210104 0.149138 0.074838
v -0.140587 0.278054 0.144355
v -0.179105 0.149138 0.000000
v -0.080793 0.278054 0.000000
v -0.210104 0.149138 -0.074838
v -0.140587 0.278054 -0.144355
v -0.416757 0.296625 -0.131814
v -0.284942 0.296625 -0.186414
v -0.471356 0.296625 0.000000
v -0.416757 0.296625 0.131814
v -0.284942 0.296625 0.186414
v -0.153128 0.296625 0.131814
v -0.098529 0.296625 0.000000
v -0.153128 0.296625 -0.131814
v -0.318315 0.310951 -0.033373
v -0.284942 0.310951 -0.047196
v -0.332138 0.310951 0.000000
v -0.318315 0.310951 0.033373
v -0.284942 0.310951 0.047196
v -0.251570 0.310951 0.033373
v -0.237746 0.310951 0.000000
v -0.251570 0.310951 -0.033373
v -0.307318 0.332893 -0.022376
v -0.284942 0.332893 -0.031644
v -0.316586 0.332893 0.000000
v -0.307318 0.332893 0.022376
v -0.284942 0.332893 0.031644
v -0.262567 0.332893 0.022376
v -0.253298 0.332893 0.000000
v -0.262567 0.332893 -0.022376
v 0.287268 0.077888 0.300000
v 0.287268 0.300000 0.258264
v 0.287268 0.300000 0.300000
v 0.287268 0.077888 0.258264
v -0.287268 0.077888 0.300000
v -0.287268 0.300000 0.258264
v -0.287268 0.300000 0.300000
v -0.287268 0.077888 0.258264
v -0.287268 0.077888 -0.300000
v -0.287268 0.300000 -0.300000
v -0.287268 0.300000 -0.258264
v -0.287268 0.077888 -0.258264
v 0.287268 0.077888 -0.300000
v 0.287268 0.300000 -0.300000
v 0.287268 0.300000 -0.258264
v 0.287268 0.077888 -0.258264
vn -0.0000 -0.3827 -0.9239
vn -0.0000 -0.9239 -0.3827
vn -0.0000 -0.9239 0.3827
vn -0.0000 -0.3827 0.9239
vn -0.0000 0.3827 0.9239
vn -0.0000 0.9239 0.3827
vn 1.0000 -0.0000 -0.0000
vn -0.0000 0.9239 -0.3827
vn -0.0000 0.3827 -0.9239
vn -1.0000 -0.0000 -0.0000
vn -0.0000 -0.0000 1.0000
vn -0.0000 1.0000 -0.0000
vn -0.0000 -0.0000 -1.0000
vn -0.0000 -1.0000 -0.0000
vn -0.2773 -0.9516 0.1328
vn -0.0000 -0.7762 -0.6304
vn -0.0000 -0.7762 0.6304
vn -0.2773 -0.9516 -0.1328
vn 0.2773 -0.9516 -0.1328
vn 0.2773 -0.9516 0.1328
vn -0.0000 0.5952 0.8035
vn -0.0000 0.5952 -0.8035
vn 0.3128 -0.5760 -0.7553
vn 0.7553 -0.5760 -0.3128
vn 0.7553 -0.5760 0.3128
vn 0.3128 -0.5760 0.7553
vn -0.3128 -0.5760 0.7553
vn -0.7553 -0.5760 0.3128
vn 0.6928 0.6616 0.2870
vn -0.7553 -0.5760 -0.3128
vn -0.3128 -0.5760 -0.7553
vn -0.1023 0.9939 -0.0424
vn -0.6928 0.6616 0.2870
vn 0.2870 0.6616 0.6928
vn -0.6928 0.6616 -0.2870
vn 0.6928 0.6616 -0.2870
vn -0.2870 0.6616 0.6928
vn -0.2870 0.6616 -0.6928
vn 0.2870 0.6616 -0.6928
vn 0.3201 0.5478 0.7729
vn -0.0424 0.9939 0.1023
vn 0.1023 0.9939 0.0424
vn 0.0424 0.9939 -0.1023
vn -0.0424 0.9939 -0.1023
vn -0.1023 0.9939 0.0424
vn 0.0424 0.9939 0.1023
vn 0.1023 0.9939 -0.0424
vn 0.7729 0.5478 -0.3201
vn -0.7729 0.5478 -0.3201
vn -0.3201 0.5478 0.7729
vn 0.7729 0.5478 0.3201
vn 0.3201 0.5478 -0.7729
vn -0.3201 0.5478 -0.7729
vn -0.7729 0.5478 0.3201
vt 1.000000 0.500000
vt 0.000000 0.500000
vt 0.750000 0.490000
vt 1.000000 1.000000
vt 0.250000 0.490000
vt 0.000000 1.000000
vt 0.875000 0.500000
vt 0.919706 0.419706
vt 0.875000 1.000000
vt 0.419706 0.419706
vt 0.750000 0.500000
vt 0.990000 0.250000
vt 0.750000 1.000000
vt 0.490000 0.250000
vt 0.625000 0.500000
vt 0.919706 0.080294
vt 0.625000 1.000000
vt 0.419706 0.080294
vt 0.500000 0.500000
vt 0.750000 0.010000
vt 0.500000 1.000000
vt 0.250000 0.010000
vt 0.375000 0.500000
vt 0.580294 0.080294
vt 0.375000 1.000000
vt 0.080294 0.080294
vt 0.250000 0.500000
vt 0.510000 0.250000
vt 0.010000 0.250000
vt 0.250000 1.000000
vt 0.125000 0.500000
vt 0.580294 0.419706
vt 0.080294 0.419706
vt 0.125000 1.000000
vt 1.000000 0.500000
vt 0.000000 0.500000
vt 0.750000 0.490000
vt 1.000000 1.000000
vt 0.250000 0.490000
vt 0.000000 1.000000
vt 0.875000 0.500000
vt 0.919706 0.419706
vt 0.875000 1.000000
vt 0.419706 0.419706
vt 0.750000 0.500000
vt 0.990000 0.250000
vt 0.750000 1.000000
vt 0.490000 0.250000
vt 0.625000 0.500000
vt 0.919706 0.080294
vt 0.625000 1.000000
vt 0.419706 0.080294
vt 0.500000 0.500000
vt 0.750000 0.010000
vt 0.500000 1.000000
vt 0.250000 0.010000
vt 0.375000 0.500000
vt 0.580294 0.080294
vt 0.375000 1.000000
vt 0.080294 0.080294
vt 0.250000 0.500000
vt 0.510000 0.250000
vt 0.010000 0.250000
vt 0.250000 1.000000
vt 0.125000 0.500000
vt 0.580294 0.419706
vt 0.080294 0.419706
vt 0.125000 1.000000
vt 1.000000 0.500000
vt 0.000000 0.500000
vt 0.750000 0.490000
vt 1.000000 1.000000
vt 0.250000 0.490000
vt 0.000000 1.000000
vt 0.875000 0.500000
vt 0.919706 0.419706
vt 0.875000 1.000000
vt 0.419706 0.419706
vt 0.750000 0.500000
vt 0.990000 0.250000
vt 0.750000 1.000000
vt 0.490000 0.250000
vt 0.625000 0.500000
vt 0.919706 0.080294
vt 0.625000 1.000000
vt 0.419706 0.080294
vt 0.500000 0.500000
vt 0.750000 0.010000
vt 0.500000 1.000000
vt 0.250000 0.010000
vt 0.375000 0.500000
vt 0.580294 0.080294
vt 0.375000 1.000000
vt 0.080294 0.080294
vt 0.250000 0.500000
vt 0.510000 0.250000
vt 0.010000 0.250000
vt 0.250000 1.000000
vt 0.125000 0.500000
vt 0.580294 0.419706
vt 0.080294 0.419706
vt 0.125000 1.000000
vt 1.000000 0.500000
vt 0.000000 0.500000
vt 0.750000 0.490000
vt 1.000000 1.000000
vt 0.250000 0.490000
vt 0.000000 1.000000
vt 0.875000 0.500000
vt 0.919706 0.419706
vt 0.875000 1.000000
vt 0.419706 0.419706
vt 0.750000 0.500000
vt 0.990000 0.250000
vt 0.750000 1.000000
vt 0.490000 0.250000
vt 0.625000 0.500000
vt 0.919706 0.080294
vt 0.625000 1.000000
vt 0.419706 0.080294
vt 0.500000 0.500000
vt 0.750000 0.010000
vt 0.500000 1.000000
vt 0.250000 0.010000
vt 0.375000 0.500000
vt 0.580294 0.080294
vt 0.375000 1.000000
vt 0.080294 0.080294
vt 0.250000 0.500000
vt 0.510000 0.250000
vt 0.010000 0.250000
vt 0.250000 1.000000
vt 0.125000 0.500000
vt 0.580294 0.419706
vt 0.080294 0.419706
vt 0.125000 1.000000
vt 0.375000 0.750000
vt 0.625000 0.750000
vt 0.375000 0.500000
vt 0.625000 0.500000
vt 0.625000 0.500000
vt 0.625000 0.750000
vt 0.000000 0.000000
vt 0.000000 0.000000
vt 0.000000 0.000000
vt 0.000000 0.000000
vt 0.000000 0.000000
vt 0.000000 0.000000
vt 0.625000 0.500000
vt 0.625000 0.750000
vt 0.000000 0.000000
vt 0.000000 0.000000
vt 0.375000 0.687500
vt 0.375000 0.625000
vt 0.375000 0.562500
vt 0.625000 0.562500
vt 0.625000 0.625000
vt 0.625000 0.687500
vt 0.625000 0.562500
vt 0.625000 0.625000
vt 0.625000 0.687500
vt 0.625000 0.562500
vt 0.625000 0.625000
vt 0.625000 0.687500
vt 0.000000 0.000000
vt 0.000000 0.000000
vt 0.000000 0.000000
vt 0.000000 0.000000
vt 0.000000 0.000000
vt 0.000000 0.000000
vt 0.000000 0.000000
vt 0.000000 0.000000
vt 0.000000 0.000000
vt 0.000000 0.000000
vt 0.000000 0.000000
vt 0.000000 0.000000
vt 0.375000 0.750000
vt 0.625000 0.750000
vt 0.375000 0.500000
vt 0.625000 0.500000
vt 0.625000 0.500000
vt 0.625000 0.750000
vt 0.000000 0.000000
vt 0.000000 0.000000
vt 0.625000 0.500000
vt 0.625000 0.750000
vt 0.000000 0.000000
vt 0.000000 0.000000
vt 0.375000 0.687500
vt 0.375000 0.625000
vt 0.375000 0.562500
vt 0.625000 0.562500
vt 0.625000 0.625000
vt 0.625000 0.687500
vt 0.625000 0.562500
vt 0.625000 0.625000
vt 0.625000 0.687500
vt 0.625000 0.562500
vt 0.625000 0.625000
vt 0.625000 0.687500
vt 0.000000 0.000000
vt 0.000000 0.000000
vt 0.000000 0.000000
vt 0.000000 0.000000
vt 0.000000 0.000000
vt 0.000000 0.000000
vt 0.000000 0.000000
vt 0.000000 0.000000
vt 0.000000 0.000000
vt 0.000000 0.000000
vt 0.000000 0.000000
vt 0.000000 0.000000
vt 1.000000 0.500000
vt 0.000000 0.500000
vt 0.000000 1.000000
vt 1.000000 1.000000
vt 0.875000 0.500000
vt 0.875000 1.000000
vt 0.750000 0.500000
vt 0.750000 1.000000
vt 0.625000 0.500000
vt 0.625000 1.000000
vt 0.500000 0.500000
vt 0.500000 1.000000
vt 0.375000 0.500000
vt 0.375000 1.000000
vt 0.250000 0.500000
vt 0.250000 1.000000
vt 0.125000 0.500000
vt 0.125000 1.000000
vt 0.875000 0.970078
vt 0.995968 0.970078
vt 0.004032 0.970078
vt 0.750000 0.970078
vt 0.625000 0.970078
vt 0.500000 0.970078
vt 0.375000 0.970078
vt 0.250000 0.970078
vt 0.125000 0.970078
vt 0.871034 0.867267
vt 0.944718 0.867267
vt 0.055282 0.867267
vt 0.750000 0.867267
vt 0.625000 0.867267
vt 0.500000 0.867267
vt 0.375000 0.867267
vt 0.250000 0.867267
vt 0.128966 0.867267
vt 0.289233 0.289233
vt 0.871034 0.867267
vt 0.250000 0.305484
vt 0.944718 0.867267
vt 0.055282 0.867267
vt 0.305484 0.250000
vt 0.750000 0.867267
vt 0.289233 0.210767
vt 0.625000 0.867267
vt 0.250000 0.194516
vt 0.500000 0.867267
vt 0.210767 0.210767
vt 0.375000 0.867267
vt 0.194516 0.250000
vt 0.250000 0.867267
vt 0.210767 0.289233
vt 0.128966 0.867267
vt 1.000000 0.500000
vt 0.000000 0.500000
vt 0.000000 1.000000
vt 1.000000 1.000000
vt 0.875000 0.500000
vt 0.875000 1.000000
vt 0.750000 0.500000
vt 0.750000 1.000000
vt 0.625000 0.500000
vt 0.625000 1.000000
vt 0.500000 0.500000
vt 0.500000 1.000000
vt 0.375000 0.500000
vt 0.375000 1.000000
vt 0.250000 0.500000
vt 0.250000 1.000000
vt 0.125000 0.500000
vt 0.125000 1.000000
vt 0.875000 0.970078
vt 0.995968 0.970078
vt 0.004032 0.970078
vt 0.750000 0.970078
vt 0.625000 0.970078
vt 0.500000 0.970078
vt 0.375000 0.970078
vt 0.250000 0.970078
vt 0.125000 0.970078
vt 0.871034 0.867267
vt 0.944718 0.867267
vt 0.055282 0.867267
vt 0.750000 0.867267
vt 0.625000 0.867267
vt 0.500000 0.867267
vt 0.375000 0.867267
vt 0.250000 0.867267
vt 0.128966 0.867267
vt 0.289233 0.289233
vt 0.871034 0.867267
vt 0.250000 0.305484
vt 0.944718 0.867267
vt 0.055282 0.867267
vt 0.305484 0.250000
vt 0.750000 0.867267
vt 0.289233 0.210767
vt 0.625000 0.867267
vt 0.250000 0.194516
vt 0.500000 0.867267
vt 0.210767 0.210767
vt 0.375000 0.867267
vt 0.194516 0.250000
vt 0.250000 0.867267
vt 0.210767 0.289233
vt 0.128966 0.867267
vt 0.187500 0.375000
vt 0.312500 0.375000
vt 0.312500 0.375000
vt 0.312500 0.375000
vt 0.187500 0.375000
vt 0.312500 0.375000
vt 0.312500 0.375000
vt 0.312500 0.375000
vt 0.187500 0.250000
vt 0.312500 0.250000
vt 0.312500 0.250000
vt 0.312500 0.250000
vt 0.187500 0.250000
vt 0.312500 0.250000
vt 0.312500 0.250000
vt 0.312500 0.250000
s 0
f 1/1/1 2/4/1 4/9/1 3/7/1
f 3/7/2 4/9/2 6/13/2 5/11/2
f 5/11/3 6/13/3 8/17/3 7/15/3
f 7/15/4 8/17/4 10/21/4 9/19/4
f 9/19/5 10/21/5 12/25/5 11/23/5
f 11/23/6 12/25/6 14/30/6 13/27/6
f 4/10/7 2/5/7 16/33/7 14/29/7 12/26/7 10/22/7 8/18/7 6/14/7
f 13/27/8 14/30/8 16/34/8 15/31/8
f 15/31/9 16/34/9 2/6/9 1/2/9
f 1/3/10 3/8/10 5/12/10 7/16/10 9/20/10 11/24/10 13/28/10 15/32/10
f 17/35/1 19/41/1 20/43/1 18/38/1
f 19/41/2 21/45/2 22/47/2 20/43/2
f 21/45/3 23/49/3 24/51/3 22/47/3
f 23/49/4 25/53/4 26/55/4 24/51/4
f 25/53/5 27/57/5 28/59/5 26/55/5
f 27/57/6 29/61/6 30/64/6 28/59/6
f 20/44/10 22/48/10 24/52/10 26/56/10 28/60/10 30/63/10 32/67/10 18/39/10
f 29/61/8 31/65/8 32/68/8 30/64/8
f 31/65/9 17/36/9 18/40/9 32/68/9
f 17/37/7 31/66/7 29/62/7 27/58/7 25/54/7 23/50/7 21/46/7 19/42/7
f 33/69/4 35/75/4 36/77/4 34/72/4
f 35/75/3 37/79/3 38/81/3 36/77/3
f 37/79/2 39/83/2 40/85/2 38/81/2
f 39/83/1 41/87/1 42/89/1 40/85/1
f 41/87/9 43/91/9 44/93/9 42/89/9
f 43/91/8 45/95/8 46/98/8 44/93/8
f 36/78/7 38/82/7 40/86/7 42/90/7 44/94/7 46/97/7 48/101/7 34/73/7
f 45/95/6 47/99/6 48/102/6 46/98/6
f 47/99/5 33/70/5 34/74/5 48/102/5
f 33/71/10 47/100/10 45/96/10 43/92/10 41/88/10 39/84/10 37/80/10 35/76/10
f 49/103/4 50/106/4 52/111/4 51/109/4
f 51/109/3 52/111/3 54/115/3 53/113/3
f 53/113/2 54/115/2 56/119/2 55/117/2
f 55/117/1 56/119/1 58/123/1 57/121/1
f 57/121/9 58/123/9 60/127/9 59/125/9
f 59/125/8 60/127/8 62/132/8 61/129/8
f 52/112/10 50/107/10 64/135/10 62/131/10 60/128/10 58/124/10 56/120/10 54/116/10
f 61/129/6 62/132/6 64/136/6 63/133/6
f 63/133/5 64/136/5 50/108/5 49/104/5
f 49/105/7 51/110/7 53/114/7 55/118/7 57/122/7 59/126/7 61/130/7 63/134/7
f 221/319/11 223/321/11 76/148/11 75/147/11
f 81/153/7 86/158/7 66/138/7 65/137/7
f 234/332/12 74/146/12 71/143/12 235/333/12
f 84/156/12 68/140/12 69/141/12 87/159/12
f 233/331/13 73/145/13 74/146/13 234/332/13
f 223/321/12 66/138/12 70/142/12 222/320/12
f 93/165/14 74/146/14 71/143/14 95/167/14
f 235/333/11 71/143/11 79/151/11 236/334/11
f 95/167/10 71/143/10 79/151/10 97/169/10
f 87/159/10 69/141/10 77/149/10 90/162/10
f 222/320/13 70/142/13 78/150/13 224/322/13
f 70/142/10 89/161/10 92/164/10 78/150/10
f 89/161/10 88/160/10 91/163/10 92/164/10
f 88/160/10 87/159/10 90/162/10 91/163/10
f 66/138/12 86/158/12 89/161/12 70/142/12
f 86/158/12 85/157/12 88/160/12 89/161/12
f 85/157/12 84/156/12 87/159/12 88/160/12
f 67/139/7 68/140/7 84/156/7 83/155/7
f 83/155/7 84/156/7 85/157/7 82/154/7
f 82/154/7 85/157/7 86/158/7 81/153/7
f 72/144/10 96/168/10 98/170/10 80/152/10
f 101/173/10 95/167/10 97/169/10 103/175/10
f 76/148/14 94/166/14 96/168/14 72/144/14
f 99/171/14 93/165/14 95/167/14 101/173/14
f 94/166/14 100/172/14 102/174/14 96/168/14
f 100/172/14 99/171/14 101/173/14 102/174/14
f 96/168/10 102/174/10 104/176/10 98/170/10
f 102/174/10 101/173/10 103/175/10 104/176/10
f 225/323/11 75/147/11 76/148/11 227/325/11
f 117/189/10 105/177/10 106/178/10 122/194/10
f 230/328/12 231/329/12 111/183/12 74/146/12
f 120/192/12 123/195/12 109/181/12 108/180/12
f 229/327/13 230/328/13 74/146/13 73/145/13
f 227/325/12 226/324/12 110/182/12 106/178/12
f 93/165/14 129/201/14 111/183/14 74/146/14
f 231/329/11 232/330/11 115/187/11 111/183/11
f 129/201/7 131/203/7 115/187/7 111/183/7
f 123/195/7 126/198/7 113/185/7 109/181/7
f 226/324/13 228/326/13 114/186/13 110/182/13
f 110/182/7 114/186/7 128/200/7 125/197/7
f 125/197/7 128/200/7 127/199/7 124/196/7
f 124/196/7 127/199/7 126/198/7 123/195/7
f 106/178/12 110/182/12 125/197/12 122/194/12
f 122/194/12 125/197/12 124/196/12 121/193/12
f 121/193/12 124/196/12 123/195/12 120/192/12
f 107/179/10 119/191/10 120/192/10 108/180/10
f 119/191/10 118/190/10 121/193/10 120/192/10
f 118/190/10 117/189/10 122/194/10 121/193/10
f 112/184/7 116/188/7 132/204/7 130/202/7
f 133/205/7 135/207/7 131/203/7 129/201/7
f 76/148/14 112/184/14 130/202/14 94/166/14
f 99/171/14 133/205/14 129/201/14 93/165/14
f 94/166/14 130/202/14 134/206/14 100/172/14
f 100/172/14 134/206/14 133/205/14 99/171/14
f 130/202/7 132/204/7 136/208/7 134/206/7
f 134/206/7 136/208/7 135/207/7 133/205/7
f 221/319/15 224/322/15 78/150/15 65/137/15
f 92/164/14 81/153/14 65/137/14 78/150/14
f 81/153/16 92/164/16 91/163/16 82/154/16
f 82/154/17 91/163/17 90/162/17 83/155/17
f 83/155/14 90/162/14 77/149/14 67/139/14
f 233/331/18 67/139/18 77/149/18 236/334/18
f 229/327/19 232/330/19 113/185/19 107/179/19
f 119/191/14 107/179/14 113/185/14 126/198/14
f 118/190/17 119/191/17 126/198/17 127/199/17
f 117/189/16 118/190/16 127/199/16 128/200/16
f 128/200/14 114/186/14 105/177/14 117/189/14
f 225/323/20 105/177/20 114/186/20 228/326/20
f 98/170/12 137/209/12 75/147/12 80/152/12
f 137/209/21 138/210/21 136/208/21 132/204/21
f 138/210/12 139/211/12 135/207/12 136/208/12
f 139/211/22 140/212/22 131/203/22 135/207/22
f 103/175/22 97/169/22 140/212/22 139/211/22
f 104/176/12 103/175/12 139/211/12 138/210/12
f 98/170/21 104/176/21 138/210/21 137/209/21
f 132/204/12 116/188/12 75/147/12 137/209/12
f 131/203/12 140/212/12 73/145/12 115/187/12
f 97/169/12 79/151/12 73/145/12 140/212/12
f 141/213/23 142/216/23 144/218/23 143/217/23
f 143/217/24 144/218/24 146/220/24 145/219/24
f 145/219/25 146/220/25 148/222/25 147/221/25
f 147/221/26 148/222/26 150/224/26 149/223/26
f 149/223/27 150/224/27 152/226/27 151/225/27
f 151/225/28 152/226/28 154/228/28 153/227/28
f 148/222/29 146/220/29 159/234/29 160/235/29
f 153/227/30 154/228/30 156/230/30 155/229/30
f 155/229/31 156/230/31 142/215/31 141/214/31
f 164/239/32 163/238/32 171/247/32 172/248/32
f 154/228/33 152/226/33 162/237/33 163/238/33
f 150/224/34 148/222/34 160/235/34 161/236/34
f 156/230/35 154/228/35 163/238/35 164/239/35
f 146/220/36 144/218/36 157/231/36 159/234/36
f 152/226/37 150/224/37 161/236/37 162/237/37
f 142/215/38 156/230/38 164/239/38 158/233/38
f 144/218/39 142/216/39 158/232/39 157/231/39
f 169/245/40 168/244/40 176/257/40 177/259/40
f 162/237/41 161/236/41 169/245/41 170/246/41
f 160/235/42 159/234/42 167/243/42 168/244/42
f 157/231/43 158/232/43 166/241/43 165/240/43
f 158/233/44 164/239/44 172/248/44 166/242/44
f 163/238/45 162/237/45 170/246/45 171/247/45
f 161/236/46 160/235/46 168/244/46 169/245/46
f 159/234/47 157/231/47 165/240/47 167/243/47
f 173/249/12 174/251/12 180/264/12 179/262/12 178/260/12 177/258/12 176/256/12 175/254/12
f 167/243/48 165/240/48 173/250/48 175/255/48
f 172/248/49 171/247/49 179/263/49 180/265/49
f 170/246/50 169/245/50 177/259/50 178/261/50
f 168/244/51 167/243/51 175/255/51 176/257/51
f 165/240/52 166/241/52 174/252/52 173/250/52
f 166/242/53 172/248/53 180/265/53 174/253/53
f 171/247/54 170/246/54 178/261/54 179/263/54
f 181/266/31 183/270/31 184/271/31 182/269/31
f 183/270/30 185/272/30 186/273/30 184/271/30
f 185/272/28 187/274/28 188/275/28 186/273/28
f 187/274/27 189/276/27 190/277/27 188/275/27
f 189/276/26 191/278/26 192/279/26 190/277/26
f 191/278/25 193/280/25 194/281/25 192/279/25
f 188/275/33 200/288/33 199/287/33 186/273/33
f 193/280/24 195/282/24 196/283/24 194/281/24
f 195/282/23 181/267/23 182/268/23 196/283/23
f 204/292/47 212/301/47 211/300/47 203/291/47
f 194/281/29 203/291/29 202/290/29 192/279/29
f 190/277/37 201/289/37 200/288/37 188/275/37
f 196/283/36 204/292/36 203/291/36 194/281/36
f 186/273/35 199/287/35 197/284/35 184/271/35
f 192/279/34 202/290/34 201/289/34 190/277/34
f 182/268/39 198/286/39 204/292/39 196/283/39
f 184/271/38 197/284/38 198/285/38 182/269/38
f 209/298/50 217/312/50 216/310/50 208/297/50
f 202/290/46 210/299/46 209/298/46 201/289/46
f 200/288/45 208/297/45 207/296/45 199/287/45
f 197/284/44 205/293/44 206/294/44 198/285/44
f 198/286/43 206/295/43 212/301/43 204/292/43
f 203/291/42 211/300/42 210/299/42 202/290/42
f 201/289/41 209/298/41 208/297/41 200/288/41
f 199/287/32 207/296/32 205/293/32 197/284/32
f 213/302/12 215/307/12 216/309/12 217/311/12 218/313/12 219/315/12 220/317/12 214/304/12
f 207/296/49 215/308/49 213/303/49 205/293/49
f 212/301/48 220/318/48 219/316/48 211/300/48
f 210/299/40 218/314/40 217/312/40 209/298/40
f 208/297/54 216/310/54 215/308/54 207/296/54
f 205/293/53 213/303/53 214/305/53 206/294/53
f 206/295/52 214/306/52 220/318/52 212/301/52
f 211/300/51 219/316/51 218/314/51 210/299/51
f 75/147/20 80/152/20 224/322/20 221/319/20
f 72/144/13 222/320/13 224/322/13 80/152/13
f 76/148/12 223/321/12 222/320/12 72/144/12
f 65/137/11 66/138/11 223/321/11 221/319/11
f 75/147/15 225/323/15 228/326/15 116/188/15
f 112/184/13 116/188/13 228/326/13 226/324/13
f 76/148/12 112/184/12 226/324/12 227/325/12
f 105/177/11 225/323/11 227/325/11 106/178/11
f 73/145/18 115/187/18 232/330/18 229/327/18
f 109/181/11 113/185/11 232/330/11 231/329/11
f 107/179/13 108/180/13 230/328/13 229/327/13
f 108/180/12 109/181/12 231/329/12 230/328/12
f 73/145/19 233/331/19 236/334/19 79/151/19
f 69/141/11 235/333/11 236/334/11 77/149/11
f 67/139/13 233/331/13 234/332/13 68/140/13
f 68/140/12 234/332/12 235/333/12 69/141/12
