# Blender 3.3.1
# www.blender.org
mtllib Gedombak.mtl
o Cylinder
v -0.509618 -0.000000 -0.163558
v 0.539080 0.000000 -0.293506
v -0.509618 -0.115653 -0.115653
v 0.539080 -0.207540 -0.207540
v -0.509618 -0.163558 0.000000
v 0.539080 -0.293506 0.000000
v -0.509618 -0.115653 0.115653
v 0.539080 -0.207540 0.207540
v -0.509618 -0.000000 0.163558
v 0.539080 0.000000 0.293506
v -0.509618 0.115653 0.115653
v 0.539080 0.207540 0.207540
v -0.509618 0.163558 0.000000
v 0.539080 0.293506 0.000000
v -0.509618 0.115653 -0.115653
v 0.539080 0.207540 -0.207540
v -0.236248 -0.000000 -0.129295
v -0.236248 -0.091425 -0.091425
v -0.236248 -0.129295 0.000000
v -0.236248 -0.091425 0.091425
v -0.236248 -0.000000 0.129295
v -0.236248 0.091425 0.091425
v -0.236248 0.129295 0.000000
v -0.236248 0.091425 -0.091425
v -0.348854 -0.071923 -0.071923
v -0.348854 -0.101714 0.000000
v -0.348854 -0.071923 0.071923
v -0.348854 -0.000000 0.101714
v -0.348854 0.071923 0.071923
v -0.348854 0.101714 0.000000
v -0.348854 0.071923 -0.071923
v -0.348854 -0.000000 -0.101714
v 0.117209 -0.000000 -0.244523
v 0.117209 -0.172904 -0.172904
v 0.117209 -0.244523 -0.000000
v 0.117209 -0.172904 0.172904
v 0.117209 -0.000000 0.244523
v 0.117209 0.172904 0.172904
v 0.117209 0.244523 -0.000000
v 0.117209 0.172904 -0.172904
v 0.328144 0.000000 -0.297319
v 0.328144 -0.210236 -0.210236
v 0.328144 -0.297319 -0.000000
v 0.328144 -0.210236 0.210236
v 0.328144 0.000000 0.297319
v 0.328144 0.210236 0.210236
v 0.328144 0.297319 -0.000000
v 0.328144 0.210236 -0.210236
v 0.000729 -0.099584 -0.099584
v 0.000729 -0.140833 0.000000
v 0.000729 -0.099584 0.099584
v 0.000729 -0.000000 0.140832
v 0.000729 0.099584 0.099584
v 0.000729 0.140832 0.000000
v 0.000729 0.099584 -0.099584
v 0.000729 -0.000000 -0.140832
v -0.112923 -0.101759 -0.101759
v -0.112923 -0.143910 0.000000
v -0.112923 -0.101759 0.101759
v -0.112923 -0.000000 0.143910
v -0.112923 0.101759 0.101759
v -0.112923 0.143910 0.000000
v -0.112923 0.101759 -0.101759
v -0.112923 -0.000000 -0.143910
v 0.599091 -0.173252 -0.173252
v 0.599091 0.000000 -0.245015
v 0.599091 -0.245015 0.000000
v 0.599091 -0.173252 0.173252
v 0.599091 0.000000 0.245015
v 0.599091 0.173252 0.173252
v 0.599091 0.245015 0.000000
v 0.599091 0.173252 -0.173252
vn 0.0167 -0.3826 -0.9238
vn 0.0167 -0.9238 -0.3826
vn 0.0167 -0.9238 0.3826
vn 0.0167 -0.3826 0.9238
vn 0.0167 0.3826 0.9238
vn 0.0167 0.9238 0.3826
vn 0.5982 -0.3067 0.7403
vn 0.0167 0.9238 -0.3826
vn 0.0167 0.3826 -0.9238
vn -1.0000 -0.0000 -0.0000
vn -0.2207 0.3732 -0.9011
vn -0.2207 0.9011 -0.3732
vn -0.2207 0.9011 0.3732
vn -0.2207 0.3732 0.9011
vn -0.2207 -0.3732 0.9011
vn -0.2207 -0.9011 0.3732
vn -0.2207 -0.9011 -0.3732
vn -0.2207 -0.3732 -0.9011
vn 0.3349 -0.3606 -0.8705
vn 0.3349 -0.8705 -0.3606
vn 0.3349 -0.8705 0.3606
vn 0.3349 -0.3606 0.8705
vn 0.3349 0.3606 0.8705
vn 0.3349 0.8705 0.3606
vn 0.3349 0.8705 -0.3606
vn 0.3349 0.3606 -0.8705
vn -0.6352 0.2956 -0.7136
vn -0.6352 0.7136 -0.2956
vn -0.6352 0.7136 0.2956
vn -0.6352 0.2956 0.7136
vn -0.6352 -0.2956 0.7136
vn -0.6352 -0.7136 0.2956
vn -0.6352 -0.7136 -0.2956
vn -0.6352 -0.2956 -0.7136
vn -0.2253 0.3728 -0.9001
vn -0.2253 0.9001 -0.3728
vn -0.2253 0.9001 0.3728
vn -0.2253 0.3728 0.9001
vn -0.2253 -0.3728 0.9001
vn -0.2253 -0.9001 0.3728
vn -0.2253 -0.9001 -0.3728
vn -0.2253 -0.3728 -0.9001
vn 0.0250 -0.3826 -0.9236
vn 0.0250 -0.9236 -0.3826
vn 0.0250 -0.9236 0.3826
vn 0.0250 -0.3826 0.9236
vn 0.0250 0.3826 0.9236
vn 0.0250 0.9236 0.3826
vn 0.0250 0.9236 -0.3826
vn 0.0250 0.3826 -0.9236
vn -0.1088 0.3804 -0.9184
vn -0.1088 0.9184 -0.3804
vn -0.1088 0.9184 0.3804
vn -0.1088 0.3804 0.9184
vn -0.1088 -0.3804 0.9184
vn -0.1088 -0.9184 0.3804
vn -0.1088 -0.9184 -0.3804
vn -0.1088 -0.3804 -0.9184
vn 1.0000 -0.0000 -0.0000
vn 0.5982 0.7403 -0.3067
vn 0.5982 -0.7403 -0.3067
vn 0.5982 0.3067 0.7403
vn 0.5982 0.3067 -0.7403
vn 0.5982 -0.3067 -0.7403
vn 0.5982 -0.7403 0.3067
vn 0.5982 0.7403 0.3067
vt 0.750000 0.490000
vt 1.000000 0.500000
vt 0.000000 0.500000
vt 0.000000 1.000000
vt 1.000000 1.000000
vt 0.919706 0.419706
vt 0.875000 0.500000
vt 0.875000 1.000000
vt 0.990000 0.250000
vt 0.750000 0.500000
vt 0.750000 1.000000
vt 0.919706 0.080294
vt 0.625000 0.500000
vt 0.625000 1.000000
vt 0.750000 0.010000
vt 0.500000 0.500000
vt 0.500000 1.000000
vt 0.580294 0.080294
vt 0.375000 0.500000
vt 0.375000 1.000000
vt 0.510000 0.250000
vt 0.250000 0.500000
vt 0.250000 1.000000
vt 0.580294 0.419706
vt 0.125000 0.500000
vt 0.125000 1.000000
vt 0.000000 0.641935
vt 1.000000 0.641935
vt 0.875000 0.641935
vt 0.750000 0.641935
vt 0.625000 0.641935
vt 0.500000 0.641935
vt 0.375000 0.641935
vt 0.250000 0.641935
vt 0.125000 0.641935
vt 0.875000 0.588218
vt 0.750000 0.588218
vt 0.625000 0.588218
vt 0.500000 0.588218
vt 0.375000 0.588218
vt 0.250000 0.588218
vt 0.125000 0.588218
vt 1.000000 0.588218
vt 0.000000 0.588218
vt 0.000000 0.804356
vt 1.000000 0.804356
vt 0.875000 0.804356
vt 0.750000 0.804356
vt 0.625000 0.804356
vt 0.500000 0.804356
vt 0.375000 0.804356
vt 0.250000 0.804356
vt 0.125000 0.804356
vt 0.000000 0.902178
vt 1.000000 0.902178
vt 0.875000 0.902178
vt 0.750000 0.902178
vt 0.625000 0.902178
vt 0.500000 0.902178
vt 0.375000 0.902178
vt 0.250000 0.902178
vt 0.125000 0.902178
vt 0.875000 0.750338
vt 0.750000 0.750338
vt 0.625000 0.750338
vt 0.500000 0.750338
vt 0.375000 0.750338
vt 0.250000 0.750338
vt 0.125000 0.750338
vt 1.000000 0.750338
vt 0.000000 0.750338
vt 0.875000 0.696136
vt 0.750000 0.696136
vt 0.625000 0.696136
vt 0.500000 0.696136
vt 0.375000 0.696136
vt 0.250000 0.696136
vt 0.125000 0.696136
vt 0.000000 0.696136
vt 1.000000 0.696136
vt 0.419706 0.419706
vt 0.875000 1.000000
vt 0.250000 0.490000
vt 0.000000 1.000000
vt 1.000000 1.000000
vt 0.490000 0.250000
vt 0.750000 1.000000
vt 0.419706 0.080294
vt 0.625000 1.000000
vt 0.250000 0.010000
vt 0.500000 1.000000
vt 0.080294 0.080294
vt 0.375000 1.000000
vt 0.010000 0.250000
vt 0.250000 1.000000
vt 0.080294 0.419706
vt 0.125000 1.000000
s 0
f 41/55/1 2/5/1 4/8/1 42/56/1
f 42/56/2 4/8/2 6/11/2 43/57/2
f 43/57/3 6/11/3 8/14/3 44/58/3
f 44/58/4 8/14/4 10/17/4 45/59/4
f 45/59/5 10/17/5 12/20/5 46/60/5
f 46/60/6 12/20/6 14/23/6 47/61/6
f 10/17/7 8/14/7 68/89/7 69/91/7
f 47/61/8 14/23/8 16/26/8 48/62/8
f 48/62/9 16/26/9 2/4/9 41/54/9
f 1/1/10 3/6/10 5/9/10 7/12/10 9/15/10 11/18/10 13/21/10 15/24/10
f 31/42/11 24/35/11 17/27/11 32/44/11
f 30/41/12 23/34/12 24/35/12 31/42/12
f 29/40/13 22/33/13 23/34/13 30/41/13
f 28/39/14 21/32/14 22/33/14 29/40/14
f 27/38/15 20/31/15 21/32/15 28/39/15
f 26/37/16 19/30/16 20/31/16 27/38/16
f 25/36/17 18/29/17 19/30/17 26/37/17
f 32/43/18 17/28/18 18/29/18 25/36/18
f 1/2/19 32/43/19 25/36/19 3/7/19
f 3/7/20 25/36/20 26/37/20 5/10/20
f 5/10/21 26/37/21 27/38/21 7/13/21
f 7/13/22 27/38/22 28/39/22 9/16/22
f 9/16/23 28/39/23 29/40/23 11/19/23
f 11/19/24 29/40/24 30/41/24 13/22/24
f 13/22/25 30/41/25 31/42/25 15/25/25
f 15/25/26 31/42/26 32/44/26 1/3/26
f 55/69/27 40/53/27 33/45/27 56/71/27
f 54/68/28 39/52/28 40/53/28 55/69/28
f 53/67/29 38/51/29 39/52/29 54/68/29
f 52/66/30 37/50/30 38/51/30 53/67/30
f 51/65/31 36/49/31 37/50/31 52/66/31
f 50/64/32 35/48/32 36/49/32 51/65/32
f 49/63/33 34/47/33 35/48/33 50/64/33
f 56/70/34 33/46/34 34/47/34 49/63/34
f 40/53/35 48/62/35 41/54/35 33/45/35
f 39/52/36 47/61/36 48/62/36 40/53/36
f 38/51/37 46/60/37 47/61/37 39/52/37
f 37/50/38 45/59/38 46/60/38 38/51/38
f 36/49/39 44/58/39 45/59/39 37/50/39
f 35/48/40 43/57/40 44/58/40 36/49/40
f 34/47/41 42/56/41 43/57/41 35/48/41
f 33/46/42 41/55/42 42/56/42 34/47/42
f 64/80/43 56/70/43 49/63/43 57/72/43
f 57/72/44 49/63/44 50/64/44 58/73/44
f 58/73/45 50/64/45 51/65/45 59/74/45
f 59/74/46 51/65/46 52/66/46 60/75/46
f 60/75/47 52/66/47 53/67/47 61/76/47
f 61/76/48 53/67/48 54/68/48 62/77/48
f 62/77/49 54/68/49 55/69/49 63/78/49
f 63/78/50 55/69/50 56/71/50 64/79/50
f 24/35/51 63/78/51 64/79/51 17/27/51
f 23/34/52 62/77/52 63/78/52 24/35/52
f 22/33/53 61/76/53 62/77/53 23/34/53
f 21/32/54 60/75/54 61/76/54 22/33/54
f 20/31/55 59/74/55 60/75/55 21/32/55
f 19/30/56 58/73/56 59/74/56 20/31/56
f 18/29/57 57/72/57 58/73/57 19/30/57
f 17/28/58 64/80/58 57/72/58 18/29/58
f 65/81/59 66/83/59 72/96/59 71/94/59 70/92/59 69/90/59 68/88/59 67/86/59
f 16/26/60 14/23/60 71/95/60 72/97/60
f 6/11/61 4/8/61 65/82/61 67/87/61
f 12/20/62 10/17/62 69/91/62 70/93/62
f 2/4/63 16/26/63 72/97/63 66/84/63
f 4/8/64 2/5/64 66/85/64 65/82/64
f 8/14/65 6/11/65 67/87/65 68/89/65
f 14/23/66 12/20/66 70/93/66 71/95/66
