# Blender 3.3.1
# www.blender.org
mtllib Geduk.mtl
o Geduk
v 0.000000 -0.286201 -0.286201
v 0.000000 0.286201 -0.286201
v 0.143101 -0.286201 -0.247857
v 0.143101 0.286201 -0.247857
v 0.247857 -0.286201 -0.143101
v 0.247857 0.286201 -0.143101
v 0.286201 -0.286201 0.000000
v 0.286201 0.286201 0.000000
v 0.247857 -0.286201 0.143101
v 0.247857 0.286201 0.143101
v 0.143101 -0.286201 0.247857
v 0.143101 0.286201 0.247857
v 0.000000 -0.286201 0.286201
v 0.000000 0.286201 0.286201
v -0.143101 -0.286201 0.247857
v -0.143101 0.286201 0.247857
v -0.247857 -0.286201 0.143101
v -0.247857 0.286201 0.143101
v -0.286201 -0.286201 0.000000
v -0.286201 0.286201 0.000000
v -0.247857 -0.286201 -0.143101
v -0.247857 0.286201 -0.143101
v -0.143101 -0.286201 -0.247857
v -0.143101 0.286201 -0.247857
v 0.000000 -0.315736 -0.274578
v 0.137289 -0.315736 -0.237792
v 0.137289 0.315736 -0.237792
v 0.000000 0.315736 -0.274578
v 0.237792 -0.315736 -0.137289
v 0.237792 0.315736 -0.137289
v 0.274578 -0.315736 0.000000
v 0.274578 0.315736 0.000000
v 0.237792 -0.315736 0.137289
v 0.237792 0.315736 0.137289
v 0.137289 -0.315736 0.237792
v 0.137289 0.315736 0.237792
v 0.000000 -0.315736 0.274578
v 0.000000 0.315736 0.274578
v -0.137289 -0.315736 0.237792
v -0.137289 0.315736 0.237792
v -0.237792 -0.315736 0.137289
v -0.237792 0.315736 0.137289
v -0.274578 -0.315736 0.000000
v -0.274578 0.315736 0.000000
v -0.237792 -0.315736 -0.137289
v -0.237792 0.315736 -0.137289
v -0.137289 -0.315736 -0.237792
v -0.137289 0.315736 -0.237792
v 0.000000 -0.333796 -0.243173
v 0.121586 -0.333796 -0.210594
v 0.121586 0.333796 -0.210594
v 0.000000 0.333796 -0.243173
v 0.210594 -0.333796 -0.121586
v 0.210594 0.333796 -0.121586
v 0.243173 -0.333796 0.000000
v 0.243173 0.333796 0.000000
v 0.210594 -0.333796 0.121586
v 0.210594 0.333796 0.121586
v 0.121586 -0.333796 0.210594
v 0.121586 0.333796 0.210594
v 0.000000 -0.333796 0.243173
v 0.000000 0.333796 0.243173
v -0.121586 -0.333796 0.210594
v -0.121586 0.333796 0.210594
v -0.210594 -0.333796 0.121586
v -0.210594 0.333796 0.121586
v -0.243173 -0.333796 0.000000
v -0.243173 0.333796 0.000000
v -0.210594 -0.333796 -0.121586
v -0.210594 0.333796 -0.121586
v -0.121586 -0.333796 -0.210594
v -0.121586 0.333796 -0.210594
v 0.000000 -0.102025 -0.306074
v 0.000000 0.102025 -0.306074
v 0.153037 0.102025 -0.265068
v 0.153037 -0.102025 -0.265068
v 0.265068 0.102025 -0.153037
v 0.265068 -0.102025 -0.153037
v 0.306074 0.102025 0.000000
v 0.306074 -0.102025 0.000000
v 0.265068 0.102025 0.153037
v 0.265068 -0.102025 0.153037
v 0.153037 0.102025 0.265068
v 0.153037 -0.102025 0.265068
v 0.000000 0.102025 0.306074
v 0.000000 -0.102025 0.306074
v -0.153037 0.102025 0.265068
v -0.153037 -0.102025 0.265068
v -0.265068 0.102025 0.153037
v -0.265068 -0.102025 0.153037
v -0.306074 0.102025 0.000000
v -0.306074 -0.102025 0.000000
v -0.265068 0.102025 -0.153037
v -0.265068 -0.102025 -0.153037
v -0.153037 0.102025 -0.265068
v -0.153037 -0.102025 -0.265068
v 0.000000 0.132594 -0.302776
v 0.151388 0.132594 -0.262211
v 0.262211 0.132594 -0.151388
v 0.302776 0.132594 0.000000
v 0.262211 0.132594 0.151388
v 0.151388 0.132594 0.262211
v 0.000000 0.132594 0.302776
v -0.151388 0.132594 0.262211
v -0.262211 0.132594 0.151388
v -0.302776 0.132594 0.000000
v -0.262211 0.132594 -0.151388
v -0.151388 0.132594 -0.262211
v 0.160111 0.133474 -0.277321
v 0.161856 0.101144 -0.280342
v 0.277321 0.133474 -0.160111
v 0.280342 0.101144 -0.161856
v 0.320223 0.133474 0.000000
v 0.323711 0.101144 0.000000
v 0.277321 0.133474 0.160111
v 0.280342 0.101144 0.161856
v 0.160111 0.133474 0.277321
v 0.161856 0.101144 0.280342
v 0.000000 0.133474 0.320223
v 0.000000 0.101144 0.323711
v -0.160111 0.133474 0.277321
v -0.161856 0.101144 0.280342
v -0.277321 0.133474 0.160111
v -0.280342 0.101144 0.161856
v -0.320223 0.133474 0.000000
v -0.323711 0.101144 0.000000
v -0.277321 0.133474 -0.160111
v -0.280342 0.101144 -0.161856
v -0.160111 0.133474 -0.277321
v -0.161856 0.101144 -0.280342
v 0.000000 0.101144 -0.323711
v 0.000000 0.133474 -0.320223
v -0.206094 -0.609341 -0.294087
v -0.079214 0.300479 -0.293018
v -0.191509 -0.611330 -0.285798
v -0.064629 0.298491 -0.284728
v -0.191317 -0.611264 -0.268905
v -0.064437 0.298556 -0.267836
v -0.205711 -0.609210 -0.260302
v -0.078830 0.300610 -0.259233
v -0.220296 -0.607221 -0.268592
v -0.093415 0.302599 -0.267522
v -0.220488 -0.607287 -0.285485
v -0.093607 0.302534 -0.284415
v -0.172429 -0.367941 -0.311078
v -0.125822 -0.033731 -0.312899
v -0.111236 -0.035720 -0.304609
v -0.157844 -0.369930 -0.302788
v -0.111045 -0.035654 -0.287717
v -0.157653 -0.369865 -0.285896
v -0.125438 -0.033600 -0.279114
v -0.172046 -0.367810 -0.277293
v -0.140023 -0.031611 -0.287404
v -0.186631 -0.365822 -0.285583
v -0.140215 -0.031677 -0.304296
v -0.186823 -0.365887 -0.302475
v -0.101833 0.138280 -0.302667
v -0.087248 0.136292 -0.294377
v -0.087057 0.136357 -0.277484
v -0.101450 0.138411 -0.268882
v -0.116035 0.140400 -0.277171
v -0.116227 0.140334 -0.294064
v -0.093215 0.093505 -0.296922
v -0.093024 0.093570 -0.280030
v -0.107417 0.095624 -0.271427
v -0.122002 0.097613 -0.279717
v -0.122194 0.097548 -0.296609
v -0.107800 0.095493 -0.305212
v -0.108475 0.090933 -0.309072
v -0.101240 0.142812 -0.305986
v -0.118692 0.145303 -0.295555
v -0.118460 0.145382 -0.275073
v -0.100775 0.142971 -0.265021
v -0.083323 0.140480 -0.275452
v -0.083556 0.140401 -0.295935
v -0.090791 0.088522 -0.299021
v -0.090558 0.088601 -0.278539
v -0.108010 0.091092 -0.268108
v -0.125695 0.093503 -0.278159
v -0.125927 0.093424 -0.298641
v 0.206094 -0.609341 -0.294087
v 0.079214 0.300479 -0.293018
v 0.191509 -0.611330 -0.285798
v 0.064629 0.298491 -0.284728
v 0.191317 -0.611264 -0.268905
v 0.064437 0.298556 -0.267836
v 0.205711 -0.609210 -0.260302
v 0.078830 0.300610 -0.259233
v 0.220296 -0.607221 -0.268592
v 0.093415 0.302599 -0.267522
v 0.220488 -0.607287 -0.285485
v 0.093607 0.302534 -0.284415
v 0.172429 -0.367941 -0.311078
v 0.125822 -0.033731 -0.312899
v 0.111236 -0.035720 -0.304609
v 0.157844 -0.369930 -0.302788
v 0.111045 -0.035654 -0.287717
v 0.157653 -0.369865 -0.285896
v 0.125438 -0.033600 -0.279114
v 0.172046 -0.367810 -0.277293
v 0.140023 -0.031611 -0.287404
v 0.186631 -0.365822 -0.285583
v 0.140215 -0.031677 -0.304296
v 0.186823 -0.365887 -0.302475
v 0.101833 0.138280 -0.302667
v 0.087248 0.136292 -0.294377
v 0.087057 0.136357 -0.277484
v 0.101450 0.138411 -0.268882
v 0.116035 0.140400 -0.277171
v 0.116227 0.140334 -0.294064
v 0.093215 0.093505 -0.296922
v 0.093024 0.093570 -0.280030
v 0.107417 0.095624 -0.271427
v 0.122002 0.097613 -0.279717
v 0.122194 0.097548 -0.296609
v 0.107800 0.095493 -0.305212
v 0.108475 0.090933 -0.309072
v 0.101240 0.142812 -0.305986
v 0.118692 0.145303 -0.295555
v 0.118460 0.145382 -0.275073
v 0.100775 0.142971 -0.265021
v 0.083323 0.140480 -0.275452
v 0.083556 0.140401 -0.295935
v 0.090791 0.088522 -0.299021
v 0.090558 0.088601 -0.278539
v 0.108010 0.091092 -0.268108
v 0.125695 0.093503 -0.278159
v 0.125927 0.093424 -0.298641
vn 0.2574 0.1037 -0.9607
vn 0.7033 0.1037 -0.7033
vn 0.9607 0.1037 -0.2574
vn 0.9607 0.1037 0.2574
vn 0.7033 0.1037 0.7033
vn 0.2574 0.1037 0.9607
vn -0.2574 0.1037 0.9607
vn -0.7033 0.1037 0.7033
vn -0.9607 0.1037 0.2574
vn -0.9607 0.1037 -0.2574
vn -0.9029 0.3553 -0.2419
vn -0.7033 0.1037 -0.7033
vn -0.2574 0.1037 -0.9607
vn 0.6610 0.3553 0.6610
vn 0.1324 -0.8592 -0.4941
vn -0.1324 -0.8592 -0.4941
vn 0.9029 -0.3553 -0.2419
vn -0.6610 -0.3553 0.6610
vn 0.2419 -0.3553 -0.9029
vn 0.9029 0.3553 -0.2419
vn -0.6610 0.3553 0.6610
vn 0.2419 0.3553 -0.9029
vn 0.2419 -0.3553 0.9029
vn -0.6610 -0.3553 -0.6610
vn 0.2419 0.3553 0.9029
vn -0.6610 0.3553 -0.6610
vn 0.9029 -0.3553 0.2419
vn -0.9029 -0.3553 0.2419
vn 0.9029 0.3553 0.2419
vn -0.9029 0.3553 0.2419
vn 0.6610 -0.3553 -0.6610
vn -0.2419 -0.3553 0.9029
vn -0.2419 -0.3553 -0.9029
vn 0.6610 0.3553 -0.6610
vn -0.2419 0.3553 0.9029
vn -0.2419 0.3553 -0.9029
vn 0.6610 -0.3553 0.6610
vn -0.9029 -0.3553 -0.2419
vn -0.0000 1.0000 -0.0000
vn -0.0000 -1.0000 -0.0000
vn -0.3617 0.8592 0.3617
vn 0.3617 -0.8592 0.3617
vn -0.1324 0.8592 -0.4941
vn 0.1324 0.8592 -0.4941
vn -0.4941 -0.8592 0.1324
vn 0.3617 0.8592 0.3617
vn 0.3617 -0.8592 -0.3617
vn -0.4941 0.8592 0.1324
vn 0.1324 -0.8592 0.4941
vn 0.3617 0.8592 -0.3617
vn -0.4941 -0.8592 -0.1324
vn 0.1324 0.8592 0.4941
vn 0.4941 -0.8592 -0.1324
vn -0.4941 0.8592 -0.1324
vn -0.1324 -0.8592 0.4941
vn 0.4941 0.8592 -0.1324
vn -0.3617 -0.8592 -0.3617
vn -0.1324 0.8592 0.4941
vn 0.4941 -0.8592 0.1324
vn -0.3617 0.8592 -0.3617
vn -0.3617 -0.8592 0.3617
vn 0.4941 0.8592 0.1324
vn -0.2574 -0.1037 -0.9607
vn -0.2588 -0.0000 -0.9659
vn -0.7033 -0.1037 -0.7033
vn -0.7071 -0.0000 -0.7071
vn -0.9607 -0.1037 -0.2574
vn -0.9659 -0.0000 -0.2588
vn -0.9607 -0.1037 0.2574
vn -0.9659 -0.0000 0.2588
vn -0.7033 -0.1037 0.7033
vn -0.7071 -0.0000 0.7071
vn -0.2574 -0.1037 0.9607
vn -0.2588 -0.0000 0.9659
vn 0.2574 -0.1037 0.9607
vn 0.2588 -0.0000 0.9659
vn 0.7033 -0.1037 0.7033
vn 0.7071 -0.0000 0.7071
vn 0.9607 -0.1037 0.2574
vn 0.9659 -0.0000 0.2588
vn 0.9607 -0.1037 -0.2574
vn 0.9659 -0.0000 -0.2588
vn 0.7033 -0.1037 -0.7033
vn 0.7071 -0.0000 -0.7071
vn 0.2574 -0.1037 -0.9607
vn 0.2588 -0.0000 -0.9659
vn 0.0365 -0.9987 0.0365
vn 0.0369 0.9986 -0.0369
vn -0.0135 0.9986 0.0504
vn -0.0499 -0.9987 -0.0134
vn 0.0504 0.9986 -0.0135
vn 0.0365 -0.9987 -0.0365
vn -0.0369 0.9986 0.0369
vn 0.0134 -0.9987 0.0499
vn 0.0504 0.9986 0.0135
vn -0.0134 -0.9987 0.0499
vn -0.0504 0.9986 0.0135
vn -0.0365 -0.9987 -0.0365
vn 0.0134 -0.9987 -0.0499
vn 0.0135 0.9986 -0.0504
vn -0.0499 -0.9987 0.0134
vn -0.0135 0.9986 -0.0504
vn 0.0499 -0.9987 0.0134
vn -0.0134 -0.9987 -0.0499
vn -0.0369 0.9986 -0.0369
vn -0.0365 -0.9987 0.0365
vn 0.0135 0.9986 0.0504
vn -0.0504 0.9986 -0.0135
vn 0.0499 -0.9987 -0.0134
vn 0.0369 0.9986 0.0369
vn 0.4923 -0.0169 -0.8703
vn 0.9904 -0.1375 -0.0107
vn 0.4966 -0.1204 0.8596
vn -0.4923 0.0169 0.8703
vn 0.1381 0.9904 -0.0054
vn -0.9904 0.1375 0.0107
vn -0.4966 0.1204 -0.8596
vn -0.1381 -0.9904 0.0054
vn -0.5119 0.0109 -0.8590
vn -0.5050 0.0657 -0.8606
vn -0.9903 0.1389 0.0107
vn -0.9904 0.1382 0.0107
vn -0.4769 0.1277 0.8696
vn -0.4853 0.0724 0.8713
vn 0.5119 -0.0109 0.8590
vn 0.5050 -0.0657 0.8606
vn 0.9903 -0.1389 -0.0107
vn 0.9904 -0.1382 -0.0107
vn 0.4769 -0.1277 -0.8696
vn 0.4854 -0.0724 -0.8713
vn -0.5017 -0.4674 -0.7279
vn 0.5017 0.4674 0.7279
vn 0.3257 -0.6385 0.6973
vn -0.3257 0.6385 -0.6973
vn -0.8971 -0.4416 0.0119
vn 0.7427 -0.6696 -0.0058
vn -0.7427 0.6696 0.0058
vn 0.8971 0.4416 -0.0119
vn 0.3393 -0.5843 -0.7372
vn -0.3393 0.5843 0.7372
vn -0.4730 -0.5274 0.7057
vn 0.4730 0.5274 -0.7057
vn -0.4923 -0.0169 -0.8703
vn -0.9904 -0.1375 -0.0107
vn -0.4966 -0.1204 0.8596
vn 0.4923 0.0169 0.8703
vn -0.1381 0.9904 -0.0054
vn 0.9904 0.1375 0.0107
vn 0.4966 0.1204 -0.8596
vn 0.1381 -0.9904 0.0054
vn 0.5119 0.0109 -0.8590
vn 0.5050 0.0657 -0.8606
vn 0.9903 0.1389 0.0107
vn 0.9904 0.1382 0.0107
vn 0.4769 0.1277 0.8696
vn 0.4853 0.0724 0.8713
vn -0.5119 -0.0109 0.8590
vn -0.5050 -0.0657 0.8606
vn -0.9903 -0.1389 -0.0107
vn -0.9904 -0.1382 -0.0107
vn -0.4769 -0.1277 -0.8696
vn -0.4854 -0.0724 -0.8713
vn 0.5017 -0.4674 -0.7279
vn -0.5017 0.4674 0.7279
vn -0.3257 -0.6385 0.6973
vn 0.3257 0.6385 -0.6973
vn 0.8971 -0.4416 0.0119
vn -0.7427 -0.6696 -0.0058
vn 0.7427 0.6696 0.0058
vn -0.8971 0.4416 -0.0119
vn -0.3393 -0.5843 -0.7372
vn 0.3393 0.5843 0.7372
vn 0.4730 -0.5274 0.7057
vn -0.4730 0.5274 -0.7057
vt 0.000000 0.500000
vt 1.000000 0.500000
vt 1.000000 1.000000
vt 0.000000 1.000000
vt 0.916667 0.500000
vt 0.916667 1.000000
vt 0.833333 0.500000
vt 0.833333 1.000000
vt 0.750000 0.500000
vt 0.750000 1.000000
vt 0.666667 0.500000
vt 0.666667 1.000000
vt 0.583333 0.500000
vt 0.583333 1.000000
vt 0.500000 0.500000
vt 0.500000 1.000000
vt 0.416667 0.500000
vt 0.416667 1.000000
vt 0.333333 0.500000
vt 0.333333 1.000000
vt 0.250000 0.500000
vt 0.250000 1.000000
vt 0.166667 0.500000
vt 0.166667 1.000000
vt 0.083333 0.500000
vt 0.083333 1.000000
vt 1.000000 0.500000
vt 0.000000 0.500000
vt 0.916667 0.500000
vt 0.916667 1.000000
vt 0.000000 1.000000
vt 1.000000 1.000000
vt 0.833333 0.500000
vt 0.833333 1.000000
vt 0.750000 0.500000
vt 0.750000 1.000000
vt 0.666667 0.500000
vt 0.666667 1.000000
vt 0.583333 0.500000
vt 0.583333 1.000000
vt 0.500000 0.500000
vt 0.500000 1.000000
vt 0.416667 0.500000
vt 0.416667 1.000000
vt 0.333333 0.500000
vt 0.333333 1.000000
vt 0.250000 0.500000
vt 0.250000 1.000000
vt 0.166667 0.500000
vt 0.166667 1.000000
vt 0.083333 0.500000
vt 0.083333 1.000000
vt 1.000000 0.500000
vt 0.000000 0.500000
vt 0.750000 0.490000
vt 0.870000 0.457846
vt 0.916667 0.500000
vt 0.370000 0.457846
vt 0.916667 1.000000
vt 0.250000 0.490000
vt 0.000000 1.000000
vt 1.000000 1.000000
vt 0.957846 0.370000
vt 0.833333 0.500000
vt 0.457846 0.370000
vt 0.833333 1.000000
vt 0.990000 0.250000
vt 0.750000 0.500000
vt 0.490000 0.250000
vt 0.750000 1.000000
vt 0.957846 0.130000
vt 0.666667 0.500000
vt 0.457846 0.130000
vt 0.666667 1.000000
vt 0.870000 0.042154
vt 0.583333 0.500000
vt 0.370000 0.042154
vt 0.583333 1.000000
vt 0.750000 0.010000
vt 0.500000 0.500000
vt 0.250000 0.010000
vt 0.500000 1.000000
vt 0.630000 0.042154
vt 0.416667 0.500000
vt 0.130000 0.042154
vt 0.416667 1.000000
vt 0.542154 0.130000
vt 0.333333 0.500000
vt 0.042154 0.130000
vt 0.333333 1.000000
vt 0.510000 0.250000
vt 0.250000 0.500000
vt 0.010000 0.250000
vt 0.250000 1.000000
vt 0.542154 0.370000
vt 0.166667 0.500000
vt 0.042154 0.370000
vt 0.166667 1.000000
vt 0.630000 0.457846
vt 0.083333 0.500000
vt 0.130000 0.457846
vt 0.083333 1.000000
vt 0.000000 0.666667
vt 1.000000 0.666667
vt 0.000000 0.833333
vt 1.000000 0.833333
vt 0.916667 0.833333
vt 0.916667 0.666667
vt 0.833333 0.833333
vt 0.833333 0.666667
vt 0.750000 0.833333
vt 0.750000 0.666667
vt 0.666667 0.833333
vt 0.666667 0.666667
vt 0.583333 0.833333
vt 0.583333 0.666667
vt 0.500000 0.833333
vt 0.500000 0.666667
vt 0.416667 0.833333
vt 0.416667 0.666667
vt 0.333333 0.833333
vt 0.333333 0.666667
vt 0.250000 0.833333
vt 0.250000 0.666667
vt 0.166667 0.833333
vt 0.166667 0.666667
vt 0.083333 0.833333
vt 0.083333 0.666667
vt 1.000000 0.860996
vt 0.000000 0.860996
vt 0.916667 0.860996
vt 0.833333 0.860996
vt 0.750000 0.860996
vt 0.666667 0.860996
vt 0.583333 0.860996
vt 0.500000 0.860996
vt 0.416667 0.860996
vt 0.333333 0.860996
vt 0.250000 0.860996
vt 0.166667 0.860996
vt 0.083333 0.860996
vt 0.916667 0.860996
vt 0.916667 0.833333
vt 0.833333 0.860996
vt 0.833333 0.833333
vt 0.750000 0.860996
vt 0.750000 0.833333
vt 0.666667 0.860996
vt 0.666667 0.833333
vt 0.583333 0.860996
vt 0.583333 0.833333
vt 0.500000 0.860996
vt 0.500000 0.833333
vt 0.416667 0.860996
vt 0.416667 0.833333
vt 0.333333 0.860996
vt 0.333333 0.833333
vt 0.250000 0.860996
vt 0.250000 0.833333
vt 0.166667 0.860996
vt 0.166667 0.833333
vt 0.083333 0.860996
vt 0.083333 0.833333
vt 0.000000 0.833333
vt 1.000000 0.833333
vt 1.000000 0.860996
vt 0.000000 0.860996
vt 0.750917 0.575611
vt -0.000000 0.546284
vt 1.000000 0.546284
vt 1.000000 1.000000
vt 0.250000 0.490000
vt -0.000000 1.000000
vt 0.958763 0.455611
vt 0.833333 0.546284
vt 0.833333 1.000000
vt 0.457846 0.370000
vt 0.958763 0.215611
vt 0.666667 0.546284
vt 0.666667 1.000000
vt 0.457846 0.130000
vt 0.750917 0.095611
vt 0.500000 0.546284
vt 0.500000 1.000000
vt 0.250000 0.010000
vt 0.543071 0.215611
vt 0.333333 0.546284
vt 0.042154 0.130000
vt 0.333333 1.000000
vt 0.543071 0.455611
vt 0.166667 0.546283
vt 0.042154 0.370000
vt 0.166667 1.000000
vt -0.000000 0.666667
vt 1.000000 0.666667
vt 1.000000 0.833333
vt -0.000000 0.833333
vt 0.833333 0.833333
vt 0.833333 0.666667
vt 0.666667 0.833333
vt 0.666667 0.666667
vt 0.500000 0.833333
vt 0.500000 0.666667
vt 0.333333 0.833333
vt 0.333333 0.666667
vt 0.166667 0.833333
vt 0.166667 0.666667
vt -0.000000 0.919113
vt 1.000000 0.919113
vt 0.833333 0.919113
vt 0.666667 0.919113
vt 0.500000 0.919113
vt 0.333333 0.919113
vt 0.166667 0.919113
vt 0.833333 0.897776
vt 0.666667 0.897776
vt 0.500000 0.897776
vt 0.333333 0.897776
vt 0.166667 0.897776
vt -0.000000 0.897776
vt 1.000000 0.897776
vt -0.000000 0.897776
vt 1.000000 0.897776
vt -0.000000 0.919113
vt 1.000000 0.919113
vt 0.166667 0.919113
vt 0.333333 0.919113
vt 0.500000 0.919113
vt 0.666667 0.919113
vt 0.833333 0.919113
vt 0.833333 0.897776
vt 0.666667 0.897776
vt 0.500000 0.897776
vt 0.333333 0.897776
vt 0.166667 0.897776
vt 0.750917 0.575611
vt -0.000000 0.546284
vt 1.000000 0.546284
vt 1.000000 1.000000
vt 0.250000 0.490000
vt -0.000000 1.000000
vt 0.958763 0.455611
vt 0.833333 0.546284
vt 0.833333 1.000000
vt 0.457846 0.370000
vt 0.958763 0.215611
vt 0.666667 0.546284
vt 0.666667 1.000000
vt 0.457846 0.130000
vt 0.750917 0.095611
vt 0.500000 0.546284
vt 0.500000 1.000000
vt 0.250000 0.010000
vt 0.543071 0.215611
vt 0.333333 0.546284
vt 0.042154 0.130000
vt 0.333333 1.000000
vt 0.543071 0.455611
vt 0.166667 0.546283
vt 0.042154 0.370000
vt 0.166667 1.000000
vt -0.000000 0.666667
vt 1.000000 0.666667
vt 1.000000 0.833333
vt -0.000000 0.833333
vt 0.833333 0.833333
vt 0.833333 0.666667
vt 0.666667 0.833333
vt 0.666667 0.666667
vt 0.500000 0.833333
vt 0.500000 0.666667
vt 0.333333 0.833333
vt 0.333333 0.666667
vt 0.166667 0.833333
vt 0.166667 0.666667
vt -0.000000 0.919113
vt 1.000000 0.919113
vt 0.833333 0.919113
vt 0.666667 0.919113
vt 0.500000 0.919113
vt 0.333333 0.919113
vt 0.166667 0.919113
vt 0.833333 0.897776
vt 0.666667 0.897776
vt 0.500000 0.897776
vt 0.333333 0.897776
vt 0.166667 0.897776
vt -0.000000 0.897776
vt 1.000000 0.897776
vt -0.000000 0.897776
vt 1.000000 0.897776
vt -0.000000 0.919113
vt 1.000000 0.919113
vt 0.166667 0.919113
vt 0.333333 0.919113
vt 0.500000 0.919113
vt 0.666667 0.919113
vt 0.833333 0.919113
vt 0.833333 0.897776
vt 0.666667 0.897776
vt 0.500000 0.897776
vt 0.333333 0.897776
vt 0.166667 0.897776
s 0
f 97/129/1 2/3/1 4/6/1 98/131/1
f 98/131/2 4/6/2 6/8/2 99/132/2
f 99/132/3 6/8/3 8/10/3 100/133/3
f 100/133/4 8/10/4 10/12/4 101/134/4
f 101/134/5 10/12/5 12/14/5 102/135/5
f 102/135/6 12/14/6 14/16/6 103/136/6
f 103/136/7 14/16/7 16/18/7 104/137/7
f 104/137/8 16/18/8 18/20/8 105/138/8
f 105/138/9 18/20/9 20/22/9 106/139/9
f 106/139/10 20/22/10 22/24/10 107/140/10
f 22/24/11 20/22/11 44/48/11 46/50/11
f 107/140/12 22/24/12 24/26/12 108/141/12
f 108/141/13 24/26/13 2/4/13 97/130/13
f 12/14/14 10/12/14 34/38/14 36/40/14
f 25/27/15 26/29/15 50/57/15 49/53/15
f 47/51/16 25/28/16 49/54/16 71/100/16
f 5/7/17 7/9/17 31/35/17 29/33/17
f 15/17/18 17/19/18 41/45/18 39/43/18
f 1/2/19 3/5/19 26/29/19 25/27/19
f 8/10/20 6/8/20 30/34/20 32/36/20
f 18/20/21 16/18/21 40/44/21 42/46/21
f 4/6/22 2/3/22 28/32/22 27/30/22
f 11/13/23 13/15/23 37/41/23 35/39/23
f 21/23/24 23/25/24 47/51/24 45/49/24
f 14/16/25 12/14/25 36/40/25 38/42/25
f 24/26/26 22/24/26 46/50/26 48/52/26
f 7/9/27 9/11/27 33/37/27 31/35/27
f 17/19/28 19/21/28 43/47/28 41/45/28
f 10/12/29 8/10/29 32/36/29 34/38/29
f 20/22/30 18/20/30 42/46/30 44/48/30
f 3/5/31 5/7/31 29/33/31 26/29/31
f 13/15/32 15/17/32 39/43/32 37/41/32
f 23/25/33 1/1/33 25/28/33 47/51/33
f 6/8/34 4/6/34 27/30/34 30/34/34
f 16/18/35 14/16/35 38/42/35 40/44/35
f 2/4/36 24/26/36 48/52/36 28/31/36
f 9/11/37 11/13/37 35/39/37 33/37/37
f 19/21/38 21/23/38 45/49/38 43/47/38
f 51/58/39 52/60/39 72/101/39 70/97/39 68/93/39 66/89/39 64/85/39 62/81/39 60/77/39 58/73/39 56/69/39 54/65/39
f 49/55/40 50/56/40 53/63/40 55/67/40 57/71/40 59/75/40 61/79/40 63/83/40 65/87/40 67/91/40 69/95/40 71/99/40
f 42/46/41 40/44/41 64/86/41 66/90/41
f 33/37/42 35/39/42 59/76/42 57/72/42
f 28/31/43 48/52/43 72/102/43 52/61/43
f 27/30/44 28/32/44 52/62/44 51/59/44
f 41/45/45 43/47/45 67/92/45 65/88/45
f 36/40/46 34/38/46 58/74/46 60/78/46
f 26/29/47 29/33/47 53/64/47 50/57/47
f 44/48/48 42/46/48 66/90/48 68/94/48
f 35/39/49 37/41/49 61/80/49 59/76/49
f 30/34/50 27/30/50 51/59/50 54/66/50
f 43/47/51 45/49/51 69/96/51 67/92/51
f 38/42/52 36/40/52 60/78/52 62/82/52
f 29/33/53 31/35/53 55/68/53 53/64/53
f 46/50/54 44/48/54 68/94/54 70/98/54
f 37/41/55 39/43/55 63/84/55 61/80/55
f 32/36/56 30/34/56 54/66/56 56/70/56
f 45/49/57 47/51/57 71/100/57 69/96/57
f 40/44/58 38/42/58 62/82/58 64/86/58
f 31/35/59 33/37/59 57/72/59 55/68/59
f 48/52/60 46/50/60 70/98/60 72/102/60
f 39/43/61 41/45/61 65/88/61 63/84/61
f 34/38/62 32/36/62 56/70/62 58/74/62
f 23/25/63 96/128/63 73/103/63 1/1/63
f 96/128/64 95/127/64 74/105/64 73/103/64
f 21/23/65 94/126/65 96/128/65 23/25/65
f 94/126/66 93/125/66 95/127/66 96/128/66
f 19/21/67 92/124/67 94/126/67 21/23/67
f 92/124/68 91/123/68 93/125/68 94/126/68
f 17/19/69 90/122/69 92/124/69 19/21/69
f 90/122/70 89/121/70 91/123/70 92/124/70
f 15/17/71 88/120/71 90/122/71 17/19/71
f 88/120/72 87/119/72 89/121/72 90/122/72
f 13/15/73 86/118/73 88/120/73 15/17/73
f 86/118/74 85/117/74 87/119/74 88/120/74
f 11/13/75 84/116/75 86/118/75 13/15/75
f 84/116/76 83/115/76 85/117/76 86/118/76
f 9/11/77 82/114/77 84/116/77 11/13/77
f 82/114/78 81/113/78 83/115/78 84/116/78
f 7/9/79 80/112/79 82/114/79 9/11/79
f 80/112/80 79/111/80 81/113/80 82/114/80
f 5/7/81 78/110/81 80/112/81 7/9/81
f 78/110/82 77/109/82 79/111/82 80/112/82
f 3/5/83 76/108/83 78/110/83 5/7/83
f 76/108/84 75/107/84 77/109/84 78/110/84
f 1/2/85 73/104/85 76/108/85 3/5/85
f 73/104/86 74/106/86 75/107/86 76/108/86
f 95/127/87 93/125/87 128/161/87 130/163/87
f 104/137/88 105/138/88 123/156/88 121/154/88
f 97/129/89 98/131/89 109/142/89 132/166/89
f 81/113/90 79/111/90 114/147/90 116/149/90
f 105/138/91 106/139/91 125/158/91 123/156/91
f 89/121/92 87/119/92 122/155/92 124/157/92
f 98/131/93 99/132/93 111/144/93 109/142/93
f 74/105/94 95/127/94 130/163/94 131/164/94
f 106/139/95 107/140/95 127/160/95 125/158/95
f 75/107/96 74/106/96 131/165/96 110/143/96
f 99/132/97 100/133/97 113/146/97 111/144/97
f 83/115/98 81/113/98 116/149/98 118/151/98
f 130/163/13 129/162/13 132/167/13 131/164/13
f 128/161/12 127/160/12 129/162/12 130/163/12
f 126/159/10 125/158/10 127/160/10 128/161/10
f 124/157/9 123/156/9 125/158/9 126/159/9
f 122/155/8 121/154/8 123/156/8 124/157/8
f 120/153/7 119/152/7 121/154/7 122/155/7
f 118/151/6 117/150/6 119/152/6 120/153/6
f 116/149/5 115/148/5 117/150/5 118/151/5
f 114/147/4 113/146/4 115/148/4 116/149/4
f 112/145/3 111/144/3 113/146/3 114/147/3
f 110/143/2 109/142/2 111/144/2 112/145/2
f 131/165/1 132/166/1 109/142/1 110/143/1
f 87/119/99 85/117/99 120/153/99 122/155/99
f 103/136/100 104/137/100 121/154/100 119/152/100
f 79/111/101 77/109/101 112/145/101 114/147/101
f 102/135/102 103/136/102 119/152/102 117/150/102
f 93/125/103 91/123/103 126/159/103 128/161/103
f 85/117/104 83/115/104 118/151/104 120/153/104
f 101/134/105 102/135/105 117/150/105 115/148/105
f 77/109/106 75/107/106 110/143/106 112/145/106
f 108/141/107 97/130/107 132/167/107 129/162/107
f 100/133/108 101/134/108 115/148/108 113/146/108
f 91/123/109 89/121/109 124/157/109 126/159/109
f 107/140/110 108/141/110 129/162/110 127/160/110
f 157/209/111 134/171/111 136/176/111 158/210/111
f 158/210/112 136/176/112 138/180/112 159/211/112
f 159/211/113 138/180/113 140/184/113 160/212/113
f 160/212/114 140/184/114 142/189/114 161/213/114
f 136/177/115 134/172/115 144/192/115 142/188/115 140/185/115 138/181/115
f 161/213/116 142/189/116 144/193/116 162/214/116
f 162/214/117 144/193/117 134/173/117 157/208/117
f 133/168/118 135/174/118 137/178/118 139/182/118 141/186/118 143/190/118
f 143/191/119 156/207/119 145/194/119 133/169/119
f 156/207/120 155/206/120 146/197/120 145/194/120
f 141/187/121 154/205/121 156/207/121 143/191/121
f 154/205/122 153/204/122 155/206/122 156/207/122
f 139/183/123 152/203/123 154/205/123 141/187/123
f 152/203/124 151/202/124 153/204/124 154/205/124
f 137/179/125 150/201/125 152/203/125 139/183/125
f 150/201/126 149/200/126 151/202/126 152/203/126
f 135/175/127 148/199/127 150/201/127 137/179/127
f 148/199/128 147/198/128 149/200/128 150/201/128
f 133/170/129 145/195/129 148/199/129 135/175/129
f 145/195/130 146/196/130 147/198/130 148/199/130
f 165/217/131 164/216/131 177/232/131 178/233/131
f 162/214/132 157/208/132 170/224/132 171/226/132
f 168/220/133 167/219/133 180/235/133 169/222/133
f 159/211/134 160/212/134 173/228/134 174/229/134
f 164/216/135 163/215/135 176/231/135 177/232/135
f 167/219/136 166/218/136 179/234/136 180/235/136
f 146/196/111 168/221/111 163/215/111 147/198/111
f 147/198/112 163/215/112 164/216/112 149/200/112
f 149/200/113 164/216/113 165/217/113 151/202/113
f 151/202/114 165/217/114 166/218/114 153/204/114
f 153/204/116 166/218/116 167/219/116 155/206/116
f 155/206/117 167/219/117 168/220/117 146/197/117
f 180/235/117 171/226/117 170/224/117 169/222/117
f 179/234/116 172/227/116 171/226/116 180/235/116
f 178/233/114 173/228/114 172/227/114 179/234/114
f 177/232/113 174/229/113 173/228/113 178/233/113
f 176/231/112 175/230/112 174/229/112 177/232/112
f 169/223/111 170/225/111 175/230/111 176/231/111
f 158/210/137 159/211/137 174/229/137 175/230/137
f 161/213/138 162/214/138 171/226/138 172/227/138
f 166/218/139 165/217/139 178/233/139 179/234/139
f 157/209/140 158/210/140 175/230/140 170/225/140
f 163/215/141 168/221/141 169/223/141 176/231/141
f 160/212/142 161/213/142 172/227/142 173/228/142
f 205/277/143 206/278/143 184/244/143 182/239/143
f 206/278/144 207/279/144 186/248/144 184/244/144
f 207/279/145 208/280/145 188/252/145 186/248/145
f 208/280/146 209/281/146 190/257/146 188/252/146
f 184/245/147 186/249/147 188/253/147 190/256/147 192/260/147 182/240/147
f 209/281/148 210/282/148 192/261/148 190/257/148
f 210/282/149 205/276/149 182/241/149 192/261/149
f 181/236/150 191/258/150 189/254/150 187/250/150 185/246/150 183/242/150
f 191/259/151 181/237/151 193/262/151 204/275/151
f 204/275/152 193/262/152 194/265/152 203/274/152
f 189/255/153 191/259/153 204/275/153 202/273/153
f 202/273/154 204/275/154 203/274/154 201/272/154
f 187/251/155 189/255/155 202/273/155 200/271/155
f 200/271/156 202/273/156 201/272/156 199/270/156
f 185/247/157 187/251/157 200/271/157 198/269/157
f 198/269/158 200/271/158 199/270/158 197/268/158
f 183/243/159 185/247/159 198/269/159 196/267/159
f 196/267/160 198/269/160 197/268/160 195/266/160
f 181/238/161 183/243/161 196/267/161 193/263/161
f 193/263/162 196/267/162 195/266/162 194/264/162
f 213/285/163 226/301/163 225/300/163 212/284/163
f 210/282/164 219/294/164 218/292/164 205/276/164
f 216/288/165 217/290/165 228/303/165 215/287/165
f 207/279/166 222/297/166 221/296/166 208/280/166
f 212/284/167 225/300/167 224/299/167 211/283/167
f 215/287/168 228/303/168 227/302/168 214/286/168
f 194/264/143 195/266/143 211/283/143 216/289/143
f 195/266/144 197/268/144 212/284/144 211/283/144
f 197/268/145 199/270/145 213/285/145 212/284/145
f 199/270/146 201/272/146 214/286/146 213/285/146
f 201/272/148 203/274/148 215/287/148 214/286/148
f 203/274/149 194/265/149 216/288/149 215/287/149
f 228/303/149 217/290/149 218/292/149 219/294/149
f 227/302/148 228/303/148 219/294/148 220/295/148
f 226/301/146 227/302/146 220/295/146 221/296/146
f 225/300/145 226/301/145 221/296/145 222/297/145
f 224/299/144 225/300/144 222/297/144 223/298/144
f 217/291/143 224/299/143 223/298/143 218/293/143
f 206/278/169 223/298/169 222/297/169 207/279/169
f 209/281/170 220/295/170 219/294/170 210/282/170
f 214/286/171 227/302/171 226/301/171 213/285/171
f 205/277/172 218/293/172 223/298/172 206/278/172
f 211/283/173 224/299/173 217/291/173 216/289/173
f 208/280/174 221/296/174 220/295/174 209/281/174
