# Blender 3.3.1
# www.blender.org
mtllib Gendang.mtl
o Gendang
v -0.650241 -0.000000 -0.307317
v 0.693106 0.000000 -0.375972
v -0.650241 -0.217306 -0.217306
v 0.693106 -0.265852 -0.265852
v -0.650241 -0.307317 0.000000
v 0.693106 -0.375972 -0.000000
v -0.650241 -0.217306 0.217306
v 0.693106 -0.265852 0.265852
v -0.650241 -0.000000 0.307317
v 0.693106 0.000000 0.375972
v -0.650241 0.217306 0.217306
v 0.693106 0.265852 0.265852
v -0.650241 0.307316 0.000000
v 0.693106 0.375972 -0.000000
v -0.650241 0.217306 -0.217306
v 0.693106 0.265852 -0.265852
v -0.583479 -0.245391 -0.245391
v -0.583479 -0.347035 0.000000
v -0.583479 -0.245391 0.245391
v -0.583479 -0.000000 0.347035
v -0.583479 0.245391 0.245391
v -0.583479 0.347035 0.000000
v -0.583479 0.245391 -0.245391
v -0.583479 -0.000000 -0.347035
v 0.769978 -0.221930 -0.221930
v 0.769978 0.000000 -0.313856
v 0.769978 -0.313856 0.000000
v 0.769978 -0.221930 0.221930
v 0.769978 0.000000 0.313856
v 0.769978 0.221930 0.221930
v 0.769978 0.313856 0.000000
v 0.769978 0.221930 -0.221930
v 0.632165 0.000000 -0.360849
v -0.556162 -0.000000 -0.335358
v 0.632165 0.255159 -0.255159
v -0.556162 0.237134 -0.237134
v 0.632165 -0.255158 -0.255159
v -0.556162 -0.237134 -0.237134
v 0.632165 -0.360849 -0.000000
v -0.556162 -0.335358 0.000000
v 0.632165 -0.255158 0.255159
v -0.556162 -0.237134 0.237134
v 0.632165 0.000000 0.360849
v -0.556162 -0.000000 0.335358
v 0.632165 0.255159 0.255159
v -0.556162 0.237134 0.237134
v 0.632165 0.360849 -0.000000
v -0.556162 0.335358 0.000000
v 0.008888 -0.000000 -0.347479
v -0.387221 -0.000000 -0.338982
v 0.008888 0.245704 -0.245704
v -0.387221 0.239696 -0.239696
v 0.008888 -0.245704 -0.245704
v -0.387221 -0.239696 -0.239696
v 0.008888 -0.347479 0.000000
v -0.387221 -0.338982 0.000000
v 0.008888 -0.245704 0.245704
v -0.387221 -0.239696 0.239696
v 0.008888 -0.000000 0.347479
v -0.387221 -0.000000 0.338982
v 0.008888 0.245704 0.245704
v -0.387221 0.239696 0.239696
v 0.008888 0.347479 0.000000
v -0.387221 0.338982 0.000000
vn 0.5982 -0.3067 0.7403
vn -1.0000 -0.0000 -0.0000
vn -0.4817 -0.3354 -0.8096
vn -0.4817 -0.8096 -0.3354
vn -0.4817 -0.8096 0.3354
vn -0.4817 -0.3354 0.8096
vn -0.4817 0.3354 0.8096
vn -0.4817 0.8096 0.3354
vn -0.4817 0.8096 -0.3354
vn -0.4817 0.3354 -0.8096
vn 1.0000 -0.0000 -0.0000
vn 0.5982 0.7403 -0.3067
vn 0.5982 -0.7403 -0.3067
vn 0.5982 0.3067 0.7403
vn 0.5982 0.3067 -0.7403
vn 0.5982 -0.3067 -0.7403
vn 0.5982 -0.7403 0.3067
vn 0.5982 0.7403 0.3067
vn 0.3673 0.3559 -0.8593
vn 0.3673 -0.3559 -0.8593
vn 0.3673 -0.8593 -0.3559
vn 0.3673 -0.8593 0.3559
vn 0.3673 -0.3559 0.8593
vn 0.3673 0.3559 0.8593
vn 0.3673 0.8593 0.3559
vn 0.3673 0.8593 -0.3559
vn -0.2235 0.9005 -0.3730
vn -0.0198 0.9237 -0.3826
vn -0.2235 0.9005 0.3730
vn -0.0198 0.9237 0.3826
vn -0.2235 0.3730 0.9005
vn -0.0198 0.3826 0.9237
vn -0.2235 -0.3730 0.9005
vn -0.0198 -0.3826 0.9237
vn -0.2235 -0.9005 0.3730
vn -0.0198 -0.9237 0.3826
vn -0.2235 -0.9005 -0.3730
vn -0.0198 -0.9237 -0.3826
vn -0.2235 -0.3730 -0.9005
vn -0.0198 -0.3826 -0.9237
vn -0.2235 0.3730 -0.9005
vn -0.0198 0.3826 -0.9237
vt 0.750000 0.490000
vt 1.000000 0.500000
vt 0.000000 0.500000
vt 1.000000 1.000000
vt 0.000000 1.000000
vt 0.919706 0.419706
vt 0.875000 0.500000
vt 0.875000 1.000000
vt 0.990000 0.250000
vt 0.750000 0.500000
vt 0.750000 1.000000
vt 0.919706 0.080294
vt 0.625000 0.500000
vt 0.625000 1.000000
vt 0.750000 0.010000
vt 0.500000 0.500000
vt 0.500000 1.000000
vt 0.580294 0.080294
vt 0.375000 0.500000
vt 0.375000 1.000000
vt 0.510000 0.250000
vt 0.250000 0.500000
vt 0.250000 1.000000
vt 0.580294 0.419706
vt 0.125000 0.500000
vt 0.125000 1.000000
vt 0.875000 0.588218
vt 0.750000 0.588218
vt 0.625000 0.588218
vt 0.500000 0.588218
vt 0.375000 0.588218
vt 0.250000 0.588218
vt 0.125000 0.588218
vt 0.000000 0.588218
vt 1.000000 0.588218
vt 0.419706 0.419706
vt 0.875000 1.000000
vt 0.250000 0.490000
vt 0.000000 1.000000
vt 1.000000 1.000000
vt 0.490000 0.250000
vt 0.750000 1.000000
vt 0.419706 0.080294
vt 0.625000 1.000000
vt 0.250000 0.010000
vt 0.500000 1.000000
vt 0.080294 0.080294
vt 0.375000 1.000000
vt 0.010000 0.250000
vt 0.250000 1.000000
vt 0.080294 0.419706
vt 0.125000 1.000000
vt 0.000000 0.976844
vt 0.056234 0.976844
vt 0.970105 0.600528
vt 0.000000 0.600528
vt 0.125000 0.976844
vt 0.125000 0.600528
vt 0.875000 0.976844
vt 0.875000 0.600528
vt 0.750000 0.976844
vt 0.750000 0.600528
vt 0.625000 0.976844
vt 0.625000 0.600528
vt 0.500000 0.976844
vt 0.500000 0.600528
vt 0.375000 0.976844
vt 0.375000 0.600528
vt 0.250000 0.976844
vt 0.250000 0.600528
vt 0.000000 0.779466
vt 0.535559 0.779466
vt 0.000000 0.654028
vt 0.840183 0.654028
vt 0.125000 0.779466
vt 0.125000 0.654028
vt 0.875000 0.779466
vt 0.875000 0.654028
vt 0.750000 0.779466
vt 0.750000 0.654028
vt 0.625000 0.779466
vt 0.625000 0.654028
vt 0.500000 0.779466
vt 0.500000 0.654028
vt 0.375000 0.779466
vt 0.375000 0.654028
vt 0.250000 0.779466
vt 0.250000 0.654028
s 0
f 10/17/1 8/14/1 28/44/1 29/46/1
f 1/1/2 3/6/2 5/9/2 7/12/2 9/15/2 11/18/2 13/21/2 15/24/2
f 1/2/3 24/35/3 17/27/3 3/7/3
f 3/7/4 17/27/4 18/28/4 5/10/4
f 5/10/5 18/28/5 19/29/5 7/13/5
f 7/13/6 19/29/6 20/30/6 9/16/6
f 9/16/7 20/30/7 21/31/7 11/19/7
f 11/19/8 21/31/8 22/32/8 13/22/8
f 13/22/9 22/32/9 23/33/9 15/25/9
f 15/25/10 23/33/10 24/34/10 1/3/10
f 25/36/11 26/38/11 32/51/11 31/49/11 30/47/11 29/45/11 28/43/11 27/41/11
f 16/26/12 14/23/12 31/50/12 32/52/12
f 6/11/13 4/8/13 25/37/13 27/42/13
f 12/20/14 10/17/14 29/46/14 30/48/14
f 2/5/15 16/26/15 32/52/15 26/39/15
f 4/8/16 2/4/16 26/40/16 25/37/16
f 8/14/17 6/11/17 27/42/17 28/44/17
f 14/23/18 12/20/18 30/48/18 31/50/18
f 34/56/19 24/34/19 23/33/19 36/58/19
f 38/60/20 17/27/20 24/35/20 34/55/20
f 40/62/21 18/28/21 17/27/21 38/60/21
f 42/64/22 19/29/22 18/28/22 40/62/22
f 44/66/23 20/30/23 19/29/23 42/64/23
f 46/68/24 21/31/24 20/30/24 44/66/24
f 48/70/25 22/32/25 21/31/25 46/68/25
f 36/58/26 23/33/26 22/32/26 48/70/26
f 16/26/27 35/57/27 47/69/27 14/23/27
f 52/76/28 36/58/28 48/70/28 64/88/28
f 14/23/29 47/69/29 45/67/29 12/20/29
f 64/88/30 48/70/30 46/68/30 62/86/30
f 12/20/31 45/67/31 43/65/31 10/17/31
f 62/86/32 46/68/32 44/66/32 60/84/32
f 10/17/33 43/65/33 41/63/33 8/14/33
f 60/84/34 44/66/34 42/64/34 58/82/34
f 8/14/35 41/63/35 39/61/35 6/11/35
f 58/82/36 42/64/36 40/62/36 56/80/36
f 6/11/37 39/61/37 37/59/37 4/8/37
f 56/80/38 40/62/38 38/60/38 54/78/38
f 4/8/39 37/59/39 33/54/39 2/5/39
f 54/78/40 38/60/40 34/55/40 50/74/40
f 2/5/41 33/53/41 35/57/41 16/26/41
f 50/73/42 34/56/42 36/58/42 52/76/42
f 33/53/42 49/71/42 51/75/42 35/57/42
f 49/71/42 50/73/42 52/76/42 51/75/42
f 37/59/40 53/77/40 49/72/40 33/54/40
f 53/77/40 54/78/40 50/74/40 49/72/40
f 39/61/38 55/79/38 53/77/38 37/59/38
f 55/79/38 56/80/38 54/78/38 53/77/38
f 41/63/36 57/81/36 55/79/36 39/61/36
f 57/81/36 58/82/36 56/80/36 55/79/36
f 43/65/34 59/83/34 57/81/34 41/63/34
f 59/83/34 60/84/34 58/82/34 57/81/34
f 45/67/32 61/85/32 59/83/32 43/65/32
f 61/85/32 62/86/32 60/84/32 59/83/32
f 47/69/30 63/87/30 61/85/30 45/67/30
f 63/87/30 64/88/30 62/86/30 61/85/30
f 35/57/28 51/75/28 63/87/28 47/69/28
f 51/75/28 52/76/28 64/88/28 63/87/28
