# Blender 3.3.1
# www.blender.org
mtllib Gong.mtl
o Gong
v 1.365045 -0.001131 0.102559
v 1.365045 1.624405 0.102559
v 1.365045 -0.001131 -0.102559
v 1.365045 1.624405 -0.102559
v 1.207013 -0.001131 0.082300
v 1.136030 1.413643 0.082300
v 1.207013 -0.001131 -0.082300
v 1.136030 1.413643 -0.082300
v 0.000000 1.624405 -0.102559
v 0.000000 1.624405 0.102559
v 0.000000 1.466373 -0.082300
v 0.000000 1.466373 0.082300
v 1.365045 1.374027 -0.102559
v 1.365045 1.374027 0.102559
v 1.207013 1.374027 -0.082300
v 1.207013 1.374027 0.082300
v 1.535768 1.624587 -0.102559
v 1.535768 1.624587 0.102559
v 1.535768 1.495160 -0.102559
v 1.535768 1.495160 0.102559
v 1.032791 1.624405 -0.102559
v 1.032791 1.466373 -0.082300
v 1.032791 1.624405 0.102559
v 1.032791 1.466373 0.082300
v 1.365045 0.166020 -0.102559
v 1.365045 0.166020 0.102559
v 1.207013 0.166020 -0.082300
v 1.207013 0.166020 0.082300
v 1.365045 0.102571 -0.600456
v 1.365045 -0.001131 -0.600456
v 1.365045 0.102571 0.600456
v 1.365045 -0.001131 0.600456
v 1.207013 0.102571 -0.600456
v 1.207013 -0.001131 -0.600456
v 1.207013 0.102571 0.600456
v 1.207013 -0.001131 0.600456
v 1.477968 0.102571 -0.102559
v 1.477968 -0.001131 -0.102559
v 1.477968 -0.001131 0.102559
v 1.477968 0.102571 0.102559
v 0.060346 1.624405 0.102559
v 0.060346 1.466373 0.082300
v 0.060346 1.624405 -0.102559
v 0.060346 1.466373 -0.082300
v 0.060346 1.431100 0.082300
v 0.000000 1.431100 0.082300
v 0.000000 1.431100 -0.082300
v 0.060346 1.431100 -0.082300
v 0.935359 1.174679 0.000000
v 0.644545 1.297716 -0.000000
v 0.935359 1.054258 0.290722
v 0.644545 1.141258 0.377722
v 0.935359 0.763536 0.411143
v 0.644545 0.763536 0.534180
v 0.935359 0.472814 0.290722
v 0.644545 0.385813 0.377722
v 0.935359 0.352392 0.000000
v 0.644545 0.229356 -0.000000
v 0.935359 0.472814 -0.290722
v 0.644545 0.385813 -0.377722
v 0.935359 0.763536 -0.411143
v 0.644545 0.763536 -0.534180
v 0.935359 1.054258 -0.290722
v 0.644545 1.141258 -0.377722
v 0.935359 1.111937 0.000000
v 0.935359 1.009892 0.246357
v 0.935359 0.763536 0.348401
v 0.935359 0.517179 0.246357
v 0.935359 0.415135 0.000000
v 0.935359 0.517179 -0.246357
v 0.935359 0.763536 -0.348401
v 0.935359 1.009892 -0.246357
v 0.799755 1.160720 0.000000
v 0.799755 1.044387 0.280852
v 0.799755 0.763536 0.397184
v 0.799755 0.482684 0.280852
v 0.799755 0.366351 0.000000
v 0.799755 0.482684 -0.280852
v 0.799755 0.763536 -0.397184
v 0.799755 1.044387 -0.280852
v 0.573483 1.107070 0.343535
v 0.573483 1.249367 -0.000000
v 0.573483 0.763536 0.485831
v 0.573483 0.420001 0.343535
v 0.573483 0.277704 -0.000000
v 0.573483 0.420001 -0.343535
v 0.573483 0.763536 -0.485831
v 0.573483 1.107070 -0.343535
v 0.544993 0.858856 0.095321
v 0.544993 0.898340 -0.000000
v 0.544993 0.763536 0.134804
v 0.544993 0.668215 0.095321
v 0.544993 0.628732 -0.000000
v 0.544993 0.668215 -0.095321
v 0.544993 0.763536 -0.134804
v 0.544993 0.858856 -0.095321
v 0.488287 0.825200 0.061664
v 0.488287 0.850742 -0.000000
v 0.488287 0.763536 0.087206
v 0.488287 0.701871 0.061664
v 0.488287 0.676329 -0.000000
v 0.488287 0.701871 -0.061664
v 0.488287 0.763536 -0.087206
v 0.488287 0.825200 -0.061664
v 0.715980 1.027846 0.315594
v 0.715980 1.591312 -0.078949
v 0.751827 1.027846 0.315594
v 0.751827 1.591312 -0.078949
v 0.715980 1.048407 0.344959
v 0.715980 1.611873 -0.049585
v 0.751827 1.048407 0.344959
v 0.751827 1.611873 -0.049585
v 0.715980 1.027846 -0.315594
v 0.715980 1.591312 0.078949
v 0.751827 1.027846 -0.315594
v 0.751827 1.591312 0.078949
v 0.715980 1.048407 -0.344959
v 0.715980 1.611873 0.049585
v 0.751827 1.048407 -0.344959
v 0.751827 1.611873 0.049585
v -1.365045 -0.001131 0.102559
v -1.365045 1.624405 0.102559
v -1.365045 -0.001131 -0.102559
v -1.365045 1.624405 -0.102559
v -1.207013 -0.001131 0.082300
v -1.136030 1.413643 0.082300
v -1.207013 -0.001131 -0.082300
v -1.136030 1.413643 -0.082300
v -1.365045 1.374027 -0.102559
v -1.365045 1.374027 0.102559
v -1.207013 1.374027 -0.082300
v -1.207013 1.374027 0.082300
v -1.535768 1.624587 -0.102559
v -1.535768 1.624587 0.102559
v -1.535768 1.495160 -0.102559
v -1.535768 1.495160 0.102559
v -1.032791 1.624405 -0.102559
v -1.032791 1.466373 -0.082300
v -1.032791 1.624405 0.102559
v -1.032791 1.466373 0.082300
v -1.365045 0.166020 -0.102559
v -1.365045 0.166020 0.102559
v -1.207013 0.166020 -0.082300
v -1.207013 0.166020 0.082300
v -1.365045 0.102571 -0.600456
v -1.365045 -0.001131 -0.600456
v -1.365045 0.102571 0.600456
v -1.365045 -0.001131 0.600456
v -1.207013 0.102571 -0.600456
v -1.207013 -0.001131 -0.600456
v -1.207013 0.102571 0.600456
v -1.207013 -0.001131 0.600456
v -1.477968 0.102571 -0.102559
v -1.477968 -0.001131 -0.102559
v -1.477968 -0.001131 0.102559
v -1.477968 0.102571 0.102559
v -0.060346 1.624405 0.102559
v -0.060346 1.466373 0.082300
v -0.060346 1.624405 -0.102559
v -0.060346 1.466373 -0.082300
v -0.060346 1.431100 0.082300
v -0.060346 1.431100 -0.082300
v -0.935359 1.174679 0.000000
v -0.644545 1.297716 -0.000000
v -0.935359 1.054258 0.290722
v -0.644545 1.141258 0.377722
v -0.935359 0.763536 0.411143
v -0.644545 0.763536 0.534180
v -0.935359 0.472814 0.290722
v -0.644545 0.385813 0.377722
v -0.935359 0.352392 0.000000
v -0.644545 0.229356 -0.000000
v -0.935359 0.472814 -0.290722
v -0.644545 0.385813 -0.377722
v -0.935359 0.763536 -0.411143
v -0.644545 0.763536 -0.534180
v -0.935359 1.054258 -0.290722
v -0.644545 1.141258 -0.377722
v -0.935359 1.111937 0.000000
v -0.935359 1.009892 0.246357
v -0.935359 0.763536 0.348401
v -0.935359 0.517179 0.246357
v -0.935359 0.415135 0.000000
v -0.935359 0.517179 -0.246357
v -0.935359 0.763536 -0.348401
v -0.935359 1.009892 -0.246357
v -0.799755 1.160720 0.000000
v -0.799755 1.044387 0.280852
v -0.799755 0.763536 0.397184
v -0.799755 0.482684 0.280852
v -0.799755 0.366351 0.000000
v -0.799755 0.482684 -0.280852
v -0.799755 0.763536 -0.397184
v -0.799755 1.044387 -0.280852
v -0.573483 1.061013 0.297477
v -0.573483 1.184232 -0.000000
v -0.573483 0.763536 0.420696
v -0.573483 0.466059 0.297477
v -0.573483 0.342840 -0.000000
v -0.573483 0.466059 -0.297477
v -0.573483 0.763536 -0.420696
v -0.573483 1.061013 -0.297477
v -0.544993 0.858856 0.095321
v -0.544993 0.898340 -0.000000
v -0.544993 0.763536 0.134804
v -0.544993 0.668215 0.095321
v -0.544993 0.628732 -0.000000
v -0.544993 0.668215 -0.095321
v -0.544993 0.763536 -0.134804
v -0.544993 0.858856 -0.095321
v -0.488287 0.825200 0.061664
v -0.488287 0.850742 -0.000000
v -0.488287 0.763536 0.087206
v -0.488287 0.701871 0.061664
v -0.488287 0.676329 -0.000000
v -0.488287 0.701871 -0.061664
v -0.488287 0.763536 -0.087206
v -0.488287 0.825200 -0.061664
v -0.715980 1.027846 0.315594
v -0.715980 1.591312 -0.078949
v -0.751827 1.027846 0.315594
v -0.751827 1.591312 -0.078949
v -0.715980 1.048407 0.344959
v -0.715980 1.611873 -0.049585
v -0.751827 1.048407 0.344959
v -0.751827 1.611873 -0.049585
v -0.715980 1.027846 -0.315594
v -0.715980 1.591312 0.078949
v -0.751827 1.027846 -0.315594
v -0.751827 1.591312 0.078949
v -0.715980 1.048407 -0.344959
v -0.715980 1.611873 0.049585
v -0.751827 1.048407 -0.344959
v -0.751827 1.611873 0.049585
v 0.060346 2.123352 -0.035363
v 1.032791 1.755098 -0.035363
v 1.032791 1.755098 0.035363
v 0.060346 2.123352 0.035363
v -0.060346 2.123352 -0.035363
v -1.032791 1.755098 -0.035363
v -1.032791 1.755098 0.035363
v -0.060346 2.123352 0.035363
vn -0.0920 -0.0225 0.9955
vn -0.0011 1.0000 -0.0000
vn -0.0000 -1.0000 -0.0000
vn -0.0123 -0.1016 -0.9947
vn -0.4549 -0.8906 -0.0000
vn -0.4873 -0.8732 -0.0000
vn -0.0000 1.0000 -0.0000
vn -0.0000 -0.1272 0.9919
vn -1.0000 -0.0000 -0.0000
vn -0.0920 -0.0225 -0.9955
vn 1.0000 -0.0000 -0.0000
vn -0.1272 -0.0000 0.9919
vn -0.0000 -0.0000 1.0000
vn 0.5787 -0.8156 -0.0000
vn -0.0000 -0.0000 -1.0000
vn -0.0123 -0.1016 0.9947
vn -0.0000 -0.1272 -0.9919
vn -0.0079 0.9923 0.1239
vn -0.1272 -0.0000 -0.9919
vn -0.0079 0.9923 -0.1239
vn 0.4898 0.8718 -0.0000
vn -0.0395 0.2086 -0.9772
vn 0.3641 0.8605 0.3564
vn 0.3641 0.3564 0.8605
vn 0.3641 -0.3564 0.8605
vn 0.3641 -0.8605 0.3564
vn 0.3641 -0.8605 -0.3564
vn 0.3641 -0.3564 -0.8605
vn -0.5322 -0.7822 0.3240
vn 0.3641 0.3564 -0.8605
vn 0.3641 0.8605 -0.3564
vn -0.3154 -0.8767 -0.3632
vn -0.3154 -0.8767 0.3632
vn -0.3154 0.3632 0.8767
vn -0.3154 0.8767 -0.3632
vn -0.3154 -0.3632 -0.8767
vn -0.3154 -0.3632 0.8767
vn -0.3154 0.8767 0.3632
vn -0.3154 0.3632 -0.8767
vn -0.9962 0.0335 0.0808
vn -0.5322 0.3240 -0.7822
vn -0.5322 0.3240 0.7822
vn -0.5322 -0.7822 -0.3240
vn -0.5322 0.7822 -0.3240
vn -0.5322 0.7822 0.3240
vn -0.5322 -0.3240 0.7822
vn -0.5322 -0.3240 -0.7822
vn -0.6128 0.7301 -0.3024
vn -0.9962 0.0335 -0.0808
vn -0.9962 -0.0808 -0.0335
vn -0.9962 -0.0335 0.0808
vn -0.9962 0.0808 0.0335
vn -0.9962 0.0808 -0.0335
vn -0.9962 -0.0335 -0.0808
vn -0.9962 -0.0808 0.0335
vn -0.6128 -0.3024 -0.7301
vn -0.6128 -0.7301 0.3024
vn -0.6128 0.3024 0.7301
vn -0.6128 0.3024 -0.7301
vn -0.6128 -0.7301 -0.3024
vn -0.6128 -0.3024 0.7301
vn -0.6128 0.7301 0.3024
vn -0.0000 -0.5736 -0.8192
vn -0.0000 0.5736 0.8192
vn -0.0000 -0.8192 0.5736
vn -0.0000 0.8192 -0.5736
vn -0.0000 -0.5736 0.8192
vn -0.0000 0.5736 -0.8192
vn -0.0000 -0.8192 -0.5736
vn -0.0000 0.8192 0.5736
vn 0.0920 -0.0225 0.9955
vn 0.0011 1.0000 -0.0000
vn 0.0123 -0.1016 -0.9947
vn 0.4549 -0.8906 -0.0000
vn 0.4873 -0.8732 -0.0000
vn 0.0920 -0.0225 -0.9955
vn 0.1272 -0.0000 0.9919
vn -0.5787 -0.8156 -0.0000
vn 0.0123 -0.1016 0.9947
vn 0.0079 0.9923 0.1239
vn 0.1272 -0.0000 -0.9919
vn 0.0079 0.9923 -0.1239
vn -0.4898 0.8718 -0.0000
vn 0.0395 0.2086 -0.9772
vn -0.3641 0.8605 0.3564
vn -0.3641 0.3564 0.8605
vn -0.3641 -0.3564 0.8605
vn -0.3641 -0.8605 0.3564
vn -0.3641 -0.8605 -0.3564
vn -0.3641 -0.3564 -0.8605
vn 0.8278 -0.5183 0.2147
vn -0.3641 0.3564 -0.8605
vn -0.3641 0.8605 -0.3564
vn 0.3154 -0.8767 -0.3632
vn 0.3154 -0.8767 0.3632
vn 0.3154 0.3632 0.8767
vn 0.3154 0.8767 -0.3632
vn 0.3154 -0.3632 -0.8767
vn 0.3154 -0.3632 0.8767
vn 0.3154 0.8767 0.3632
vn 0.3154 0.3632 -0.8767
vn 0.9942 0.0410 0.0991
vn 0.8278 0.2147 -0.5183
vn 0.8278 0.2147 0.5183
vn 0.8278 -0.5183 -0.2147
vn 0.8278 0.5183 -0.2147
vn 0.8278 0.5183 0.2147
vn 0.8278 -0.2147 0.5183
vn 0.8278 -0.2147 -0.5183
vn 0.6128 0.7301 -0.3024
vn 0.9942 0.0410 -0.0991
vn 0.9942 -0.0991 -0.0410
vn 0.9942 -0.0410 0.0991
vn 0.9942 0.0991 0.0410
vn 0.9942 0.0991 -0.0410
vn 0.9942 -0.0410 -0.0991
vn 0.9942 -0.0991 0.0410
vn 0.6128 -0.3024 -0.7301
vn 0.6128 -0.7301 0.3024
vn 0.6128 0.3024 0.7301
vn 0.6128 0.3024 -0.7301
vn 0.6128 -0.7301 -0.3024
vn 0.6128 -0.3024 0.7301
vn 0.6128 0.7301 0.3024
vn 0.3541 0.9352 -0.0000
vn -0.3541 0.9352 -0.0000
vn 0.0395 0.2086 0.9772
vn -0.0395 0.2086 0.9772
vt 0.375000 0.750000
vt 0.625000 0.750000
vt 0.375000 0.500000
vt 0.625000 0.500000
vt 0.375000 0.750000
vt 0.625000 0.750000
vt 0.375000 0.500000
vt 0.625000 0.500000
vt 0.750000 0.500000
vt 0.750000 0.750000
vt 0.750000 0.500000
vt 0.750000 0.750000
vt 0.597299 0.500000
vt 0.597299 0.750000
vt 0.597299 0.500000
vt 0.597299 0.750000
vt 0.625000 0.500000
vt 0.625000 0.750000
vt 0.597299 0.500000
vt 0.597299 0.750000
vt 0.645698 0.500000
vt 0.625000 0.479302
vt 0.645698 0.500000
vt 0.645698 0.750000
vt 0.625000 0.687906
vt 0.645698 0.750000
vt 0.402021 0.500000
vt 0.000000 0.000000
vt 0.402021 0.750000
vt 0.000000 0.000000
vt 0.402021 0.500000
vt 0.000000 0.000000
vt 0.402021 0.750000
vt 0.000000 0.000000
vt 0.402021 0.500000
vt 0.375000 0.500000
vt 0.402021 0.750000
vt 0.375000 0.750000
vt 0.402021 0.500000
vt 0.375000 0.500000
vt 0.402021 0.750000
vt 0.375000 0.750000
vt 0.402021 0.500000
vt 0.375000 0.500000
vt 0.375000 0.750000
vt 0.402021 0.750000
vt 0.736543 0.750000
vt 0.736543 0.750000
vt 0.625000 0.415370
vt 0.736543 0.500000
vt 0.625000 0.388457
vt 0.736543 0.500000
vt 0.736543 0.750000
vt 0.625000 0.415370
vt 0.750000 0.750000
vt 0.625000 0.375000
vt 0.625000 0.375000
vt 0.750000 0.500000
vt 0.625000 0.388457
vt 0.736543 0.500000
vt 0.000000 0.500000
vt 1.000000 0.500000
vt 0.000000 1.000000
vt 1.000000 1.000000
vt 0.875000 0.500000
vt 0.875000 1.000000
vt 0.750000 0.500000
vt 0.750000 1.000000
vt 0.625000 0.500000
vt 0.625000 1.000000
vt 0.500000 0.500000
vt 0.500000 1.000000
vt 0.375000 0.500000
vt 0.375000 1.000000
vt 0.250000 0.500000
vt 0.250000 1.000000
vt 0.125000 0.500000
vt 0.125000 1.000000
vt 1.000000 0.500000
vt 0.000000 0.500000
vt 0.875000 0.500000
vt 0.750000 0.500000
vt 0.625000 0.500000
vt 0.500000 0.500000
vt 0.375000 0.500000
vt 0.250000 0.500000
vt 0.125000 0.500000
vt 1.000000 0.500000
vt 0.750000 0.490000
vt 0.000000 0.500000
vt 0.919706 0.419706
vt 0.875000 0.500000
vt 0.990000 0.250000
vt 0.750000 0.500000
vt 0.919706 0.080294
vt 0.625000 0.500000
vt 0.750000 0.010000
vt 0.500000 0.500000
vt 0.580294 0.080294
vt 0.375000 0.500000
vt 0.510000 0.250000
vt 0.250000 0.500000
vt 0.580294 0.419706
vt 0.125000 0.500000
vt 0.875000 1.000000
vt 1.000000 1.000000
vt 0.000000 1.000000
vt 0.750000 1.000000
vt 0.625000 1.000000
vt 0.500000 1.000000
vt 0.375000 1.000000
vt 0.250000 1.000000
vt 0.125000 1.000000
vt 0.875000 1.000000
vt 0.000000 1.000000
vt 1.000000 1.000000
vt 0.750000 1.000000
vt 0.625000 1.000000
vt 0.500000 1.000000
vt 0.375000 1.000000
vt 0.250000 1.000000
vt 0.125000 1.000000
vt 0.419706 0.419706
vt 0.875000 1.000000
vt 0.000000 1.000000
vt 0.250000 0.490000
vt 1.000000 1.000000
vt 0.490000 0.250000
vt 0.750000 1.000000
vt 0.419706 0.080294
vt 0.625000 1.000000
vt 0.250000 0.010000
vt 0.500000 1.000000
vt 0.080294 0.080294
vt 0.375000 1.000000
vt 0.010000 0.250000
vt 0.250000 1.000000
vt 0.080294 0.419706
vt 0.125000 1.000000
vt 0.375000 0.000000
vt 0.375000 1.000000
vt 0.125000 0.750000
vt 0.625000 0.000000
vt 0.625000 1.000000
vt 0.875000 0.750000
vt 0.375000 0.250000
vt 0.125000 0.500000
vt 0.625000 0.250000
vt 0.875000 0.500000
vt 0.375000 0.750000
vt 0.625000 0.750000
vt 0.375000 0.500000
vt 0.625000 0.500000
vt 0.375000 0.000000
vt 0.375000 1.000000
vt 0.125000 0.750000
vt 0.625000 0.000000
vt 0.625000 1.000000
vt 0.875000 0.750000
vt 0.375000 0.250000
vt 0.125000 0.500000
vt 0.625000 0.250000
vt 0.875000 0.500000
vt 0.375000 0.750000
vt 0.625000 0.750000
vt 0.375000 0.500000
vt 0.625000 0.500000
vt 0.375000 0.750000
vt 0.625000 0.750000
vt 0.375000 0.500000
vt 0.625000 0.500000
vt 0.375000 0.750000
vt 0.625000 0.750000
vt 0.375000 0.500000
vt 0.625000 0.500000
vt 0.597299 0.500000
vt 0.597299 0.750000
vt 0.597299 0.500000
vt 0.597299 0.750000
vt 0.625000 0.500000
vt 0.625000 0.750000
vt 0.597299 0.500000
vt 0.597299 0.750000
vt 0.645698 0.500000
vt 0.625000 0.479302
vt 0.645698 0.500000
vt 0.645698 0.750000
vt 0.625000 0.687906
vt 0.645698 0.750000
vt 0.402021 0.500000
vt 0.402021 0.750000
vt 0.402021 0.500000
vt 0.402021 0.750000
vt 0.402021 0.500000
vt 0.375000 0.500000
vt 0.402021 0.750000
vt 0.375000 0.750000
vt 0.402021 0.500000
vt 0.375000 0.500000
vt 0.402021 0.750000
vt 0.375000 0.750000
vt 0.402021 0.500000
vt 0.375000 0.500000
vt 0.375000 0.750000
vt 0.402021 0.750000
vt 0.736543 0.750000
vt 0.736543 0.750000
vt 0.625000 0.415370
vt 0.736543 0.500000
vt 0.625000 0.388457
vt 0.736543 0.500000
vt 0.736543 0.750000
vt 0.625000 0.415370
vt 0.625000 0.388457
vt 0.736543 0.500000
vt 0.000000 0.500000
vt 1.000000 0.500000
vt 0.000000 1.000000
vt 1.000000 1.000000
vt 0.875000 0.500000
vt 0.875000 1.000000
vt 0.750000 0.500000
vt 0.750000 1.000000
vt 0.625000 0.500000
vt 0.625000 1.000000
vt 0.500000 0.500000
vt 0.500000 1.000000
vt 0.375000 0.500000
vt 0.375000 1.000000
vt 0.250000 0.500000
vt 0.250000 1.000000
vt 0.125000 0.500000
vt 0.125000 1.000000
vt 1.000000 0.500000
vt 0.000000 0.500000
vt 0.875000 0.500000
vt 0.750000 0.500000
vt 0.625000 0.500000
vt 0.500000 0.500000
vt 0.375000 0.500000
vt 0.250000 0.500000
vt 0.125000 0.500000
vt 1.000000 0.500000
vt 0.750000 0.490000
vt 0.000000 0.500000
vt 0.919706 0.419706
vt 0.875000 0.500000
vt 0.990000 0.250000
vt 0.750000 0.500000
vt 0.919706 0.080294
vt 0.625000 0.500000
vt 0.750000 0.010000
vt 0.500000 0.500000
vt 0.580294 0.080294
vt 0.375000 0.500000
vt 0.510000 0.250000
vt 0.250000 0.500000
vt 0.580294 0.419706
vt 0.125000 0.500000
vt 0.875000 1.000000
vt 1.000000 1.000000
vt 0.000000 1.000000
vt 0.750000 1.000000
vt 0.625000 1.000000
vt 0.500000 1.000000
vt 0.375000 1.000000
vt 0.250000 1.000000
vt 0.125000 1.000000
vt 0.875000 1.000000
vt 0.000000 1.000000
vt 1.000000 1.000000
vt 0.750000 1.000000
vt 0.625000 1.000000
vt 0.500000 1.000000
vt 0.375000 1.000000
vt 0.250000 1.000000
vt 0.125000 1.000000
vt 0.419706 0.419706
vt 0.875000 1.000000
vt 0.000000 1.000000
vt 0.250000 0.490000
vt 1.000000 1.000000
vt 0.490000 0.250000
vt 0.750000 1.000000
vt 0.419706 0.080294
vt 0.625000 1.000000
vt 0.250000 0.010000
vt 0.500000 1.000000
vt 0.080294 0.080294
vt 0.375000 1.000000
vt 0.010000 0.250000
vt 0.250000 1.000000
vt 0.080294 0.419706
vt 0.125000 1.000000
vt 0.375000 0.000000
vt 0.375000 1.000000
vt 0.125000 0.750000
vt 0.625000 0.000000
vt 0.625000 1.000000
vt 0.875000 0.750000
vt 0.375000 0.250000
vt 0.125000 0.500000
vt 0.625000 0.250000
vt 0.875000 0.500000
vt 0.375000 0.750000
vt 0.625000 0.750000
vt 0.375000 0.500000
vt 0.625000 0.500000
vt 0.375000 0.000000
vt 0.375000 1.000000
vt 0.125000 0.750000
vt 0.625000 0.000000
vt 0.625000 1.000000
vt 0.875000 0.750000
vt 0.375000 0.250000
vt 0.125000 0.500000
vt 0.625000 0.250000
vt 0.875000 0.500000
vt 0.375000 0.750000
vt 0.625000 0.750000
vt 0.375000 0.500000
vt 0.625000 0.500000
vt 0.736543 0.500000
vt 0.645698 0.500000
vt 0.645698 0.750000
vt 0.736543 0.750000
vt 0.736543 0.500000
vt 0.645698 0.500000
vt 0.645698 0.750000
vt 0.736543 0.750000
s 0
f 14/14/1 2/2/1 6/6/1 16/16/1
f 4/4/2 2/2/2 18/18/2 17/17/2
f 5/5/3 1/1/3 32/38/3 36/42/3
f 21/21/4 4/4/4 8/8/4 22/23/4
f 22/22/5 8/8/5 6/6/5 24/25/5
f 15/15/6 16/16/6 6/6/6 8/8/6
f 1/1/3 5/5/3 7/7/3 3/3/3
f 43/50/7 9/9/7 10/10/7 41/47/7
f 41/47/8 10/10/8 12/12/8 42/48/8
f 27/31/9 28/33/9 16/16/9 15/15/9
f 4/4/10 13/13/10 15/15/10 8/8/10
f 25/27/11 13/13/11 14/14/11 26/29/11
f 26/29/12 14/14/12 16/16/12 28/33/12
f 19/19/11 17/17/11 18/18/11 20/20/11
f 2/2/13 14/14/13 20/20/13 18/18/13
f 14/14/14 13/13/14 19/19/14 20/20/14
f 13/13/15 4/4/15 17/17/15 19/19/15
f 2/2/16 23/24/16 24/26/16 6/6/16
f 4/4/7 21/21/7 23/24/7 2/2/7
f 44/51/3 22/22/3 24/25/3 42/49/3
f 43/50/17 21/21/17 22/23/17 44/52/17
f 26/29/18 28/33/18 35/41/18 31/37/18
f 26/29/13 1/1/13 39/45/13 40/46/13
f 7/7/9 5/5/9 28/33/9 27/31/9
f 13/13/19 25/27/19 27/31/19 15/15/19
f 29/35/15 30/36/15 34/40/15 33/39/15
f 32/38/13 31/37/13 35/41/13 36/42/13
f 1/1/11 26/29/11 31/37/11 32/38/11
f 28/33/9 5/5/9 36/42/9 35/41/9
f 27/31/20 25/27/20 29/35/20 33/39/20
f 3/3/3 7/7/3 34/40/3 30/36/3
f 25/27/11 3/3/11 30/36/11 29/35/11
f 7/7/9 27/31/9 33/39/9 34/40/9
f 38/44/11 37/43/11 40/46/11 39/45/11
f 1/1/3 3/3/3 38/44/3 39/45/3
f 25/27/21 26/29/21 40/46/21 37/43/21
f 3/3/15 25/27/15 37/43/15 38/44/15
f 9/9/17 43/50/17 44/52/17 11/11/17
f 42/48/13 12/12/13 46/55/13 45/53/13
f 23/24/8 41/47/8 42/48/8 24/26/8
f 159/209/22 137/184/22 240/328/22 239/327/22
f 47/57/3 48/59/3 45/54/3 46/56/3
f 44/51/11 42/49/11 45/54/11 48/59/11
f 11/11/15 44/52/15 48/60/15 47/58/15
f 49/62/23 50/64/23 52/66/23 51/65/23
f 51/65/24 52/66/24 54/68/24 53/67/24
f 53/67/25 54/68/25 56/70/25 55/69/25
f 55/69/26 56/70/26 58/72/26 57/71/26
f 57/71/27 58/72/27 60/74/27 59/73/27
f 59/73/28 60/74/28 62/76/28 61/75/28
f 58/72/29 56/70/29 84/109/29 85/110/29
f 61/75/30 62/76/30 64/78/30 63/77/30
f 63/77/31 64/78/31 50/63/31 49/61/31
f 57/71/11 59/73/11 70/85/11 69/84/11
f 65/79/32 66/81/32 74/92/32 73/88/32
f 63/77/11 49/61/11 65/80/11 72/87/11
f 49/62/11 51/65/11 66/81/11 65/79/11
f 53/67/11 55/69/11 68/83/11 67/82/11
f 59/73/11 61/75/11 71/86/11 70/85/11
f 55/69/11 57/71/11 69/84/11 68/83/11
f 61/75/11 63/77/11 72/87/11 71/86/11
f 51/65/11 53/67/11 67/82/11 66/81/11
f 73/89/11 74/91/11 75/93/11 76/95/11 77/97/11 78/99/11 79/101/11 80/103/11
f 72/87/33 65/80/33 73/90/33 80/104/33
f 70/85/34 71/86/34 79/102/34 78/100/34
f 68/83/35 69/84/35 77/98/35 76/96/35
f 66/81/36 67/82/36 75/94/36 74/92/36
f 71/86/37 72/87/37 80/104/37 79/102/37
f 69/84/38 70/85/38 78/100/38 77/98/38
f 67/82/39 68/83/39 76/96/39 75/94/39
f 83/108/40 81/105/40 89/114/40 91/117/40
f 64/78/41 62/76/41 87/112/41 88/113/41
f 54/68/42 52/66/42 81/105/42 83/108/42
f 60/74/43 58/72/43 85/110/43 86/111/43
f 50/63/44 64/78/44 88/113/44 82/107/44
f 52/66/45 50/64/45 82/106/45 81/105/45
f 56/70/46 54/68/46 83/108/46 84/109/46
f 62/76/47 60/74/47 86/111/47 87/112/47
f 90/115/48 96/122/48 104/139/48 98/125/48
f 88/113/49 87/112/49 95/121/49 96/122/49
f 86/111/50 85/110/50 93/119/50 94/120/50
f 84/109/51 83/108/51 91/117/51 92/118/51
f 81/105/52 82/106/52 90/116/52 89/114/52
f 82/107/53 88/113/53 96/122/53 90/115/53
f 87/112/54 86/111/54 94/120/54 95/121/54
f 85/110/55 84/109/55 92/118/55 93/119/55
f 97/123/9 98/126/9 104/138/9 103/136/9 102/134/9 101/132/9 100/130/9 99/128/9
f 95/121/56 94/120/56 102/135/56 103/137/56
f 93/119/57 92/118/57 100/131/57 101/133/57
f 91/117/58 89/114/58 97/124/58 99/129/58
f 96/122/59 95/121/59 103/137/59 104/139/59
f 94/120/60 93/119/60 101/133/60 102/135/60
f 92/118/61 91/117/61 99/129/61 100/131/61
f 89/114/62 90/116/62 98/127/62 97/124/62
f 105/140/63 106/143/63 108/148/63 107/146/63
f 107/146/11 108/148/11 112/153/11 111/152/11
f 111/152/64 112/153/64 110/151/64 109/150/64
f 109/150/9 110/151/9 106/144/9 105/141/9
f 107/147/65 111/152/65 109/150/65 105/142/65
f 112/153/66 108/149/66 106/145/66 110/151/66
f 113/154/67 115/160/67 116/162/67 114/157/67
f 115/160/11 119/166/11 120/167/11 116/162/11
f 119/166/68 117/164/68 118/165/68 120/167/68
f 117/164/9 113/155/9 114/158/9 118/165/9
f 115/161/69 113/156/69 117/164/69 119/166/69
f 120/167/70 118/165/70 114/159/70 116/163/70
f 130/177/71 132/179/71 126/173/71 122/169/71
f 124/171/72 133/180/72 134/181/72 122/169/72
f 125/172/3 152/201/3 148/197/3 121/168/3
f 137/184/73 138/186/73 128/175/73 124/171/73
f 138/185/74 140/188/74 126/173/74 128/175/74
f 131/178/75 128/175/75 126/173/75 132/179/75
f 121/168/3 123/170/3 127/174/3 125/172/3
f 159/209/7 157/206/7 10/10/7 9/9/7
f 157/206/8 158/207/8 12/12/8 10/10/8
f 143/192/11 131/178/11 132/179/11 144/193/11
f 124/171/76 128/175/76 131/178/76 129/176/76
f 141/190/9 142/191/9 130/177/9 129/176/9
f 142/191/77 144/193/77 132/179/77 130/177/77
f 135/182/9 136/183/9 134/181/9 133/180/9
f 122/169/13 134/181/13 136/183/13 130/177/13
f 130/177/78 136/183/78 135/182/78 129/176/78
f 129/176/15 135/182/15 133/180/15 124/171/15
f 122/169/79 126/173/79 140/189/79 139/187/79
f 124/171/7 122/169/7 139/187/7 137/184/7
f 160/210/3 158/208/3 140/188/3 138/185/3
f 159/209/17 160/211/17 138/186/17 137/184/17
f 142/191/80 147/196/80 151/200/80 144/193/80
f 142/191/13 156/205/13 155/204/13 121/168/13
f 127/174/11 143/192/11 144/193/11 125/172/11
f 129/176/81 131/178/81 143/192/81 141/190/81
f 145/194/15 149/198/15 150/199/15 146/195/15
f 148/197/13 152/201/13 151/200/13 147/196/13
f 121/168/9 148/197/9 147/196/9 142/191/9
f 144/193/11 151/200/11 152/201/11 125/172/11
f 143/192/82 149/198/82 145/194/82 141/190/82
f 123/170/3 146/195/3 150/199/3 127/174/3
f 141/190/9 145/194/9 146/195/9 123/170/9
f 127/174/11 150/199/11 149/198/11 143/192/11
f 154/203/9 155/204/9 156/205/9 153/202/9
f 121/168/3 155/204/3 154/203/3 123/170/3
f 141/190/83 153/202/83 156/205/83 142/191/83
f 123/170/15 154/203/15 153/202/15 141/190/15
f 9/9/17 11/11/17 160/211/17 159/209/17
f 158/207/13 161/212/13 46/55/13 12/12/13
f 139/187/8 140/189/8 158/207/8 157/206/8
f 21/21/84 43/50/84 235/323/84 236/324/84
f 47/57/3 46/56/3 161/213/3 162/214/3
f 160/210/9 162/214/9 161/213/9 158/208/9
f 11/11/15 47/58/15 162/215/15 160/211/15
f 163/217/85 165/220/85 166/221/85 164/219/85
f 165/220/86 167/222/86 168/223/86 166/221/86
f 167/222/87 169/224/87 170/225/87 168/223/87
f 169/224/88 171/226/88 172/227/88 170/225/88
f 171/226/89 173/228/89 174/229/89 172/227/89
f 173/228/90 175/230/90 176/231/90 174/229/90
f 172/227/91 199/265/91 198/264/91 170/225/91
f 175/230/92 177/232/92 178/233/92 176/231/92
f 177/232/93 163/216/93 164/218/93 178/233/93
f 171/226/9 183/239/9 184/240/9 173/228/9
f 179/234/94 187/243/94 188/247/94 180/236/94
f 177/232/9 186/242/9 179/235/9 163/216/9
f 163/217/9 179/234/9 180/236/9 165/220/9
f 167/222/9 181/237/9 182/238/9 169/224/9
f 173/228/9 184/240/9 185/241/9 175/230/9
f 169/224/9 182/238/9 183/239/9 171/226/9
f 175/230/9 185/241/9 186/242/9 177/232/9
f 165/220/9 180/236/9 181/237/9 167/222/9
f 187/244/9 194/258/9 193/256/9 192/254/9 191/252/9 190/250/9 189/248/9 188/246/9
f 186/242/95 194/259/95 187/245/95 179/235/95
f 184/240/96 192/255/96 193/257/96 185/241/96
f 182/238/97 190/251/97 191/253/97 183/239/97
f 180/236/98 188/247/98 189/249/98 181/237/98
f 185/241/99 193/257/99 194/259/99 186/242/99
f 183/239/100 191/253/100 192/255/100 184/240/100
f 181/237/101 189/249/101 190/251/101 182/238/101
f 197/263/102 205/272/102 203/269/102 195/260/102
f 178/233/103 202/268/103 201/267/103 176/231/103
f 168/223/104 197/263/104 195/260/104 166/221/104
f 174/229/105 200/266/105 199/265/105 172/227/105
f 164/218/106 196/262/106 202/268/106 178/233/106
f 166/221/107 195/260/107 196/261/107 164/219/107
f 170/225/108 198/264/108 197/263/108 168/223/108
f 176/231/109 201/267/109 200/266/109 174/229/109
f 204/270/110 212/280/110 218/294/110 210/277/110
f 202/268/111 210/277/111 209/276/111 201/267/111
f 200/266/112 208/275/112 207/274/112 199/265/112
f 198/264/113 206/273/113 205/272/113 197/263/113
f 195/260/114 203/269/114 204/271/114 196/261/114
f 196/262/115 204/270/115 210/277/115 202/268/115
f 201/267/116 209/276/116 208/275/116 200/266/116
f 199/265/117 207/274/117 206/273/117 198/264/117
f 211/278/11 213/283/11 214/285/11 215/287/11 216/289/11 217/291/11 218/293/11 212/281/11
f 209/276/118 217/292/118 216/290/118 208/275/118
f 207/274/119 215/288/119 214/286/119 206/273/119
f 205/272/120 213/284/120 211/279/120 203/269/120
f 210/277/121 218/294/121 217/292/121 209/276/121
f 208/275/122 216/290/122 215/288/122 207/274/122
f 206/273/123 214/286/123 213/284/123 205/272/123
f 203/269/124 211/279/124 212/282/124 204/271/124
f 219/295/63 221/301/63 222/303/63 220/298/63
f 221/301/9 225/307/9 226/308/9 222/303/9
f 225/307/64 223/305/64 224/306/64 226/308/64
f 223/305/11 219/296/11 220/299/11 224/306/11
f 221/302/65 219/297/65 223/305/65 225/307/65
f 226/308/66 224/306/66 220/300/66 222/304/66
f 227/309/67 228/312/67 230/317/67 229/315/67
f 229/315/9 230/317/9 234/322/9 233/321/9
f 233/321/68 234/322/68 232/320/68 231/319/68
f 231/319/11 232/320/11 228/313/11 227/310/11
f 229/316/69 233/321/69 231/319/69 227/311/69
f 234/322/70 230/318/70 228/314/70 232/320/70
f 236/324/125 235/323/125 238/326/125 237/325/125
f 240/328/126 241/329/126 242/330/126 239/327/126
f 41/47/127 23/24/127 237/325/127 238/326/127
f 23/24/11 21/21/11 236/324/11 237/325/11
f 139/187/128 157/206/128 242/330/128 241/329/128
f 43/50/9 41/47/9 238/326/9 235/323/9
f 137/184/9 139/187/9 241/329/9 240/328/9
f 157/206/11 159/209/11 239/327/11 242/330/11
f 26/30/7 25/28/7 27/32/7 28/34/7
