# Blender 3.3.1
# www.blender.org
mtllib Kesi.mtl
o Kesi
v 0.300000 0.000000 0.300000
v 0.300000 0.300000 0.300000
v 0.300000 0.000000 -0.300000
v 0.300000 0.300000 -0.300000
v 0.186557 0.200000 -0.227716
v 0.186557 0.100000 -0.227716
v 0.186557 0.200000 0.227716
v 0.186557 0.100000 0.227716
v 0.262414 0.243166 -0.300000
v 0.262414 0.243166 0.300000
v 0.349050 0.243195 -0.300000
v 0.349050 0.243195 0.300000
v 0.292889 0.204610 -0.300000
v 0.292889 0.204610 0.300000
v 0.000000 0.000000 -0.300000
v 0.000000 0.300000 -0.300000
v 0.000000 0.000000 0.300000
v 0.000000 0.300000 0.300000
v 0.000000 0.100000 0.227716
v 0.000000 0.200000 0.227716
v 0.000000 0.100000 -0.227716
v 0.000000 0.200000 -0.227716
v 0.000000 0.243166 0.300000
v 0.000000 0.243166 -0.300000
v -0.300000 0.000000 0.300000
v -0.300000 0.300000 0.300000
v -0.300000 0.000000 -0.300000
v -0.300000 0.300000 -0.300000
v -0.186557 0.200000 -0.227716
v -0.186557 0.100000 -0.227716
v -0.186557 0.200000 0.227716
v -0.186557 0.100000 0.227716
v -0.262414 0.243166 -0.300000
v -0.262414 0.243166 0.300000
v -0.349050 0.243195 -0.300000
v -0.349050 0.243195 0.300000
v -0.292889 0.204610 -0.300000
v -0.292889 0.204610 0.300000
v 0.130433 0.273648 -0.240651
v 0.130433 0.318330 -0.255300
v 0.208675 0.273648 -0.208242
v 0.219034 0.318330 -0.218600
v 0.241084 0.273648 -0.130000
v 0.255733 0.318330 -0.130000
v 0.208675 0.273648 -0.051758
v 0.219034 0.318330 -0.041400
v 0.130433 0.273648 -0.019349
v 0.130433 0.318330 -0.004700
v 0.052191 0.273648 -0.051758
v 0.041833 0.318330 -0.041400
v 0.019782 0.273648 -0.130000
v 0.005133 0.318330 -0.130000
v 0.052191 0.273648 -0.208242
v 0.041833 0.318330 -0.218600
v 0.210579 0.314102 -0.210146
v 0.130433 0.314102 -0.243344
v 0.243777 0.314102 -0.130000
v 0.210579 0.314102 -0.049854
v 0.130433 0.314102 -0.016656
v 0.050287 0.314102 -0.049854
v 0.017089 0.314102 -0.130000
v 0.050287 0.314102 -0.210146
v 0.180132 0.304406 -0.179699
v 0.130433 0.304406 -0.200285
v 0.200718 0.304406 -0.130000
v 0.180132 0.304406 -0.080301
v 0.130433 0.304406 -0.059715
v 0.080734 0.304406 -0.080301
v 0.060149 0.304406 -0.130000
v 0.080734 0.304406 -0.179699
v -0.130433 0.273648 -0.240651
v -0.130433 0.318330 -0.255300
v -0.208675 0.273648 -0.208242
v -0.219034 0.318330 -0.218600
v -0.241084 0.273648 -0.130000
v -0.255733 0.318330 -0.130000
v -0.208675 0.273648 -0.051758
v -0.219034 0.318330 -0.041400
v -0.130433 0.273648 -0.019349
v -0.130433 0.318330 -0.004700
v -0.052191 0.273648 -0.051758
v -0.041833 0.318330 -0.041400
v -0.019782 0.273648 -0.130000
v -0.005133 0.318330 -0.130000
v -0.052191 0.273648 -0.208242
v -0.041833 0.318330 -0.218600
v -0.210579 0.314102 -0.210146
v -0.130433 0.314102 -0.243344
v -0.243777 0.314102 -0.130000
v -0.210579 0.314102 -0.049854
v -0.130433 0.314102 -0.016656
v -0.050287 0.314102 -0.049854
v -0.017089 0.314102 -0.130000
v -0.050287 0.314102 -0.210146
v -0.180132 0.304406 -0.179699
v -0.130433 0.304406 -0.200285
v -0.200718 0.304406 -0.130000
v -0.180132 0.304406 -0.080301
v -0.130433 0.304406 -0.059715
v -0.080734 0.304406 -0.080301
v -0.060149 0.304406 -0.130000
v -0.080734 0.304406 -0.179699
v 0.130433 0.273648 0.240651
v 0.130433 0.318330 0.255300
v 0.208675 0.273648 0.208242
v 0.219034 0.318330 0.218600
v 0.241084 0.273648 0.130000
v 0.255733 0.318330 0.130000
v 0.208675 0.273648 0.051758
v 0.219034 0.318330 0.041400
v 0.130433 0.273648 0.019349
v 0.130433 0.318330 0.004700
v 0.052191 0.273648 0.051758
v 0.041833 0.318330 0.041400
v 0.019782 0.273648 0.130000
v 0.005133 0.318330 0.130000
v 0.052191 0.273648 0.208242
v 0.041833 0.318330 0.218600
v 0.210579 0.314102 0.210146
v 0.130433 0.314102 0.243344
v 0.243777 0.314102 0.130000
v 0.210579 0.314102 0.049854
v 0.130433 0.314102 0.016656
v 0.050287 0.314102 0.049854
v 0.017089 0.314102 0.130000
v 0.050287 0.314102 0.210146
v 0.180132 0.304406 0.179699
v 0.130433 0.304406 0.200285
v 0.200718 0.304406 0.130000
v 0.180132 0.304406 0.080301
v 0.130433 0.304406 0.059715
v 0.080734 0.304406 0.080301
v 0.060149 0.304406 0.130000
v 0.080734 0.304406 0.179699
v -0.130433 0.273648 0.240651
v -0.130433 0.318330 0.255300
v -0.208675 0.273648 0.208242
v -0.219034 0.318330 0.218600
v -0.241084 0.273648 0.130000
v -0.255733 0.318330 0.130000
v -0.208675 0.273648 0.051758
v -0.219034 0.318330 0.041400
v -0.130433 0.273648 0.019349
v -0.130433 0.318330 0.004700
v -0.052191 0.273648 0.051758
v -0.041833 0.318330 0.041400
v -0.019782 0.273648 0.130000
v -0.005133 0.318330 0.130000
v -0.052191 0.273648 0.208242
v -0.041833 0.318330 0.218600
v -0.210579 0.314102 0.210146
v -0.130433 0.314102 0.243344
v -0.243777 0.314102 0.130000
v -0.210579 0.314102 0.049854
v -0.130433 0.314102 0.016656
v -0.050287 0.314102 0.049854
v -0.017089 0.314102 0.130000
v -0.050287 0.314102 0.210146
v -0.180132 0.304406 0.179699
v -0.130433 0.304406 0.200285
v -0.200718 0.304406 0.130000
v -0.180132 0.304406 0.080301
v -0.130433 0.304406 0.059715
v -0.080734 0.304406 0.080301
v -0.060149 0.304406 0.130000
v -0.080734 0.304406 0.179699
vn -0.0000 -0.0000 -1.0000
vn 0.7569 0.6536 -0.0000
vn -0.0000 -1.0000 -0.0000
vn 0.6613 0.7502 -0.0000
vn 1.0000 -0.0000 -0.0000
vn -0.0000 0.5858 -0.8104
vn 0.4946 -0.8691 -0.0000
vn -0.0000 -0.8586 -0.5127
vn 0.5663 -0.8242 -0.0000
vn -0.7845 -0.6201 -0.0000
vn -0.0000 -0.0000 1.0000
vn -0.0000 -0.8586 0.5127
vn -0.0000 0.5858 0.8104
vn -0.0000 1.0000 -0.0000
vn -0.7569 0.6536 -0.0000
vn -0.6613 0.7502 -0.0000
vn -1.0000 -0.0000 -0.0000
vn -0.4946 -0.8691 -0.0000
vn -0.5663 -0.8242 -0.0000
vn 0.7845 -0.6201 -0.0000
vn 0.3663 -0.2899 -0.8842
vn 0.8842 -0.2899 -0.3663
vn 0.8842 -0.2899 0.3663
vn 0.3663 -0.2899 0.8842
vn -0.3663 -0.2899 0.8842
vn -0.8842 -0.2899 0.3663
vn -0.3303 0.9339 -0.1368
vn -0.8842 -0.2899 -0.3663
vn -0.3663 -0.2899 -0.8842
vn 0.2188 0.9716 0.0906
vn 0.3303 0.9339 -0.1368
vn -0.1368 0.9339 -0.3303
vn 0.3303 0.9339 0.1368
vn -0.3303 0.9339 0.1368
vn 0.1368 0.9339 -0.3303
vn 0.1368 0.9339 0.3303
vn -0.1368 0.9339 0.3303
vn 0.0906 0.9716 -0.2188
vn -0.2188 0.9716 -0.0906
vn -0.0906 0.9716 0.2188
vn 0.0906 0.9716 0.2188
vn 0.2188 0.9716 -0.0906
vn -0.0906 0.9716 -0.2188
vn -0.2188 0.9716 0.0906
vt 0.375000 0.750000
vt 0.625000 0.750000
vt 0.375000 0.500000
vt 0.625000 0.500000
vt 0.541667 0.500000
vt 0.458333 0.500000
vt 0.541667 0.750000
vt 0.458333 0.750000
vt 0.583333 0.500000
vt 0.583333 0.750000
vt 0.625000 0.500000
vt 0.625000 0.750000
vt 0.583333 0.500000
vt 0.583333 0.750000
vt 0.250000 0.500000
vt 0.375000 0.375000
vt 0.625000 0.375000
vt 0.750000 0.500000
vt 0.250000 0.750000
vt 0.375000 0.875000
vt 0.750000 0.750000
vt 0.625000 0.875000
vt 0.458333 0.875000
vt 0.541667 0.875000
vt 0.458333 0.375000
vt 0.541667 0.375000
vt 0.583333 0.875000
vt 0.583333 0.375000
vt 0.375000 0.750000
vt 0.625000 0.750000
vt 0.375000 0.500000
vt 0.625000 0.500000
vt 0.541667 0.500000
vt 0.458333 0.500000
vt 0.541667 0.750000
vt 0.458333 0.750000
vt 0.583333 0.500000
vt 0.583333 0.750000
vt 0.625000 0.500000
vt 0.625000 0.750000
vt 0.583333 0.500000
vt 0.583333 0.750000
vt 1.000000 0.500000
vt 0.000000 0.500000
vt 0.750000 0.490000
vt 0.000000 1.000000
vt 1.000000 1.000000
vt 0.875000 0.500000
vt 0.919706 0.419706
vt 0.875000 1.000000
vt 0.750000 0.500000
vt 0.990000 0.250000
vt 0.750000 1.000000
vt 0.625000 0.500000
vt 0.919706 0.080294
vt 0.625000 1.000000
vt 0.500000 0.500000
vt 0.750000 0.010000
vt 0.500000 1.000000
vt 0.375000 0.500000
vt 0.580294 0.080294
vt 0.375000 1.000000
vt 0.250000 0.500000
vt 0.510000 0.250000
vt 0.250000 1.000000
vt 0.125000 0.500000
vt 0.580294 0.419706
vt 0.125000 1.000000
vt 0.875000 1.000000
vt 1.000000 1.000000
vt 0.000000 1.000000
vt 0.750000 1.000000
vt 0.625000 1.000000
vt 0.500000 1.000000
vt 0.375000 1.000000
vt 0.250000 1.000000
vt 0.125000 1.000000
vt 0.419706 0.419706
vt 0.875000 1.000000
vt 0.250000 0.490000
vt 1.000000 1.000000
vt 0.000000 1.000000
vt 0.490000 0.250000
vt 0.750000 1.000000
vt 0.419706 0.080294
vt 0.625000 1.000000
vt 0.250000 0.010000
vt 0.500000 1.000000
vt 0.080294 0.080294
vt 0.375000 1.000000
vt 0.010000 0.250000
vt 0.250000 1.000000
vt 0.080294 0.419706
vt 0.125000 1.000000
vt 1.000000 0.500000
vt 0.000000 0.500000
vt 0.750000 0.490000
vt 0.000000 1.000000
vt 1.000000 1.000000
vt 0.875000 0.500000
vt 0.919706 0.419706
vt 0.875000 1.000000
vt 0.750000 0.500000
vt 0.990000 0.250000
vt 0.750000 1.000000
vt 0.625000 0.500000
vt 0.919706 0.080294
vt 0.625000 1.000000
vt 0.500000 0.500000
vt 0.750000 0.010000
vt 0.500000 1.000000
vt 0.375000 0.500000
vt 0.580294 0.080294
vt 0.375000 1.000000
vt 0.250000 0.500000
vt 0.510000 0.250000
vt 0.250000 1.000000
vt 0.125000 0.500000
vt 0.580294 0.419706
vt 0.125000 1.000000
vt 0.875000 1.000000
vt 1.000000 1.000000
vt 0.000000 1.000000
vt 0.750000 1.000000
vt 0.625000 1.000000
vt 0.500000 1.000000
vt 0.375000 1.000000
vt 0.250000 1.000000
vt 0.125000 1.000000
vt 0.419706 0.419706
vt 0.875000 1.000000
vt 0.250000 0.490000
vt 1.000000 1.000000
vt 0.000000 1.000000
vt 0.490000 0.250000
vt 0.750000 1.000000
vt 0.419706 0.080294
vt 0.625000 1.000000
vt 0.250000 0.010000
vt 0.500000 1.000000
vt 0.080294 0.080294
vt 0.375000 1.000000
vt 0.010000 0.250000
vt 0.250000 1.000000
vt 0.080294 0.419706
vt 0.125000 1.000000
vt 1.000000 0.500000
vt 0.000000 0.500000
vt 0.750000 0.490000
vt 0.000000 1.000000
vt 1.000000 1.000000
vt 0.875000 0.500000
vt 0.919706 0.419706
vt 0.875000 1.000000
vt 0.750000 0.500000
vt 0.990000 0.250000
vt 0.750000 1.000000
vt 0.625000 0.500000
vt 0.919706 0.080294
vt 0.625000 1.000000
vt 0.500000 0.500000
vt 0.750000 0.010000
vt 0.500000 1.000000
vt 0.375000 0.500000
vt 0.580294 0.080294
vt 0.375000 1.000000
vt 0.250000 0.500000
vt 0.510000 0.250000
vt 0.250000 1.000000
vt 0.125000 0.500000
vt 0.580294 0.419706
vt 0.125000 1.000000
vt 0.875000 1.000000
vt 1.000000 1.000000
vt 0.000000 1.000000
vt 0.750000 1.000000
vt 0.625000 1.000000
vt 0.500000 1.000000
vt 0.375000 1.000000
vt 0.250000 1.000000
vt 0.125000 1.000000
vt 0.419706 0.419706
vt 0.875000 1.000000
vt 0.250000 0.490000
vt 1.000000 1.000000
vt 0.000000 1.000000
vt 0.490000 0.250000
vt 0.750000 1.000000
vt 0.419706 0.080294
vt 0.625000 1.000000
vt 0.250000 0.010000
vt 0.500000 1.000000
vt 0.080294 0.080294
vt 0.375000 1.000000
vt 0.010000 0.250000
vt 0.250000 1.000000
vt 0.080294 0.419706
vt 0.125000 1.000000
vt 1.000000 0.500000
vt 0.000000 0.500000
vt 0.750000 0.490000
vt 0.000000 1.000000
vt 1.000000 1.000000
vt 0.875000 0.500000
vt 0.919706 0.419706
vt 0.875000 1.000000
vt 0.750000 0.500000
vt 0.990000 0.250000
vt 0.750000 1.000000
vt 0.625000 0.500000
vt 0.919706 0.080294
vt 0.625000 1.000000
vt 0.500000 0.500000
vt 0.750000 0.010000
vt 0.500000 1.000000
vt 0.375000 0.500000
vt 0.580294 0.080294
vt 0.375000 1.000000
vt 0.250000 0.500000
vt 0.510000 0.250000
vt 0.250000 1.000000
vt 0.125000 0.500000
vt 0.580294 0.419706
vt 0.125000 1.000000
vt 0.875000 1.000000
vt 1.000000 1.000000
vt 0.000000 1.000000
vt 0.750000 1.000000
vt 0.625000 1.000000
vt 0.500000 1.000000
vt 0.375000 1.000000
vt 0.250000 1.000000
vt 0.125000 1.000000
vt 0.419706 0.419706
vt 0.875000 1.000000
vt 0.250000 0.490000
vt 1.000000 1.000000
vt 0.000000 1.000000
vt 0.490000 0.250000
vt 0.750000 1.000000
vt 0.419706 0.080294
vt 0.625000 1.000000
vt 0.250000 0.010000
vt 0.500000 1.000000
vt 0.080294 0.080294
vt 0.375000 1.000000
vt 0.010000 0.250000
vt 0.250000 1.000000
vt 0.080294 0.419706
vt 0.125000 1.000000
s 0
f 24/28/1 16/17/1 4/4/1 9/9/1
f 4/4/2 2/2/2 12/12/2 11/11/2
f 15/15/3 3/3/3 1/1/3 17/19/3
f 3/3/4 6/6/4 8/8/4 1/1/4
f 6/6/5 5/5/5 7/7/5 8/8/5
f 15/16/6 21/25/6 6/6/6 3/3/6
f 21/25/1 22/26/1 5/5/1 6/6/1
f 5/5/7 9/9/7 10/10/7 7/7/7
f 22/26/8 24/28/8 9/9/8 5/5/8
f 13/13/9 11/11/9 12/12/9 14/14/9
f 9/9/1 4/4/1 11/11/1 13/13/1
f 10/10/10 9/9/10 13/13/10 14/14/10
f 2/2/11 10/10/11 14/14/11 12/12/11
f 7/7/12 10/10/12 23/27/12 20/24/12
f 8/8/11 7/7/11 20/24/11 19/23/11
f 1/1/13 8/8/13 19/23/13 17/20/13
f 4/4/14 16/18/14 18/21/14 2/2/14
f 10/10/11 2/2/11 18/22/11 23/27/11
f 24/28/1 33/37/1 28/32/1 16/17/1
f 28/32/15 35/39/15 36/40/15 26/30/15
f 15/15/3 17/19/3 25/29/3 27/31/3
f 27/31/16 25/29/16 32/36/16 30/34/16
f 30/34/17 32/36/17 31/35/17 29/33/17
f 15/16/6 27/31/6 30/34/6 21/25/6
f 21/25/1 30/34/1 29/33/1 22/26/1
f 29/33/18 31/35/18 34/38/18 33/37/18
f 22/26/8 29/33/8 33/37/8 24/28/8
f 37/41/19 38/42/19 36/40/19 35/39/19
f 33/37/1 37/41/1 35/39/1 28/32/1
f 34/38/20 38/42/20 37/41/20 33/37/20
f 26/30/11 36/40/11 38/42/11 34/38/11
f 31/35/12 20/24/12 23/27/12 34/38/12
f 32/36/11 19/23/11 20/24/11 31/35/11
f 25/29/13 17/20/13 19/23/13 32/36/13
f 28/32/14 26/30/14 18/21/14 16/18/14
f 34/38/11 23/27/11 18/22/11 26/30/11
f 39/43/21 40/47/21 42/50/21 41/48/21
f 41/48/22 42/50/22 44/53/22 43/51/22
f 43/51/23 44/53/23 46/56/23 45/54/23
f 45/54/24 46/56/24 48/59/24 47/57/24
f 47/57/25 48/59/25 50/62/25 49/60/25
f 49/60/26 50/62/26 52/65/26 51/63/26
f 46/56/27 44/53/27 57/72/27 58/73/27
f 51/63/28 52/65/28 54/68/28 53/66/28
f 53/66/29 54/68/29 40/46/29 39/44/29
f 39/45/3 41/49/3 43/52/3 45/55/3 47/58/3 49/61/3 51/64/3 53/67/3
f 62/77/30 61/76/30 69/92/30 70/94/30
f 52/65/31 50/62/31 60/75/31 61/76/31
f 48/59/32 46/56/32 58/73/32 59/74/32
f 54/68/33 52/65/33 61/76/33 62/77/33
f 44/53/34 42/50/34 55/69/34 57/72/34
f 50/62/35 48/59/35 59/74/35 60/75/35
f 40/46/36 54/68/36 62/77/36 56/71/36
f 42/50/37 40/47/37 56/70/37 55/69/37
f 63/78/14 64/80/14 70/93/14 69/91/14 68/89/14 67/87/14 66/85/14 65/83/14
f 60/75/38 59/74/38 67/88/38 68/90/38
f 58/73/39 57/72/39 65/84/39 66/86/39
f 55/69/40 56/70/40 64/81/40 63/79/40
f 56/71/41 62/77/41 70/94/41 64/82/41
f 61/76/42 60/75/42 68/90/42 69/92/42
f 59/74/43 58/73/43 66/86/43 67/88/43
f 57/72/44 55/69/44 63/79/44 65/84/44
f 71/95/29 73/100/29 74/102/29 72/99/29
f 73/100/28 75/103/28 76/105/28 74/102/28
f 75/103/26 77/106/26 78/108/26 76/105/26
f 77/106/25 79/109/25 80/111/25 78/108/25
f 79/109/24 81/112/24 82/114/24 80/111/24
f 81/112/23 83/115/23 84/117/23 82/114/23
f 78/108/31 90/125/31 89/124/31 76/105/31
f 83/115/22 85/118/22 86/120/22 84/117/22
f 85/118/21 71/96/21 72/98/21 86/120/21
f 71/97/3 85/119/3 83/116/3 81/113/3 79/110/3 77/107/3 75/104/3 73/101/3
f 94/129/44 102/146/44 101/144/44 93/128/44
f 84/117/27 93/128/27 92/127/27 82/114/27
f 80/111/35 91/126/35 90/125/35 78/108/35
f 86/120/34 94/129/34 93/128/34 84/117/34
f 76/105/33 89/124/33 87/121/33 74/102/33
f 82/114/32 92/127/32 91/126/32 80/111/32
f 72/98/37 88/123/37 94/129/37 86/120/37
f 74/102/36 87/121/36 88/122/36 72/99/36
f 95/130/14 97/135/14 98/137/14 99/139/14 100/141/14 101/143/14 102/145/14 96/132/14
f 92/127/43 100/142/43 99/140/43 91/126/43
f 90/125/42 98/138/42 97/136/42 89/124/42
f 87/121/41 95/131/41 96/133/41 88/122/41
f 88/123/40 96/134/40 102/146/40 94/129/40
f 93/128/39 101/144/39 100/142/39 92/127/39
f 91/126/38 99/140/38 98/138/38 90/125/38
f 89/124/30 97/136/30 95/131/30 87/121/30
f 103/147/24 105/152/24 106/154/24 104/151/24
f 105/152/23 107/155/23 108/157/23 106/154/23
f 107/155/22 109/158/22 110/160/22 108/157/22
f 109/158/21 111/161/21 112/163/21 110/160/21
f 111/161/29 113/164/29 114/166/29 112/163/29
f 113/164/28 115/167/28 116/169/28 114/166/28
f 110/160/34 122/177/34 121/176/34 108/157/34
f 115/167/26 117/170/26 118/172/26 116/169/26
f 117/170/25 103/148/25 104/150/25 118/172/25
f 103/149/3 117/171/3 115/168/3 113/165/3 111/162/3 109/159/3 107/156/3 105/153/3
f 126/181/42 134/198/42 133/196/42 125/180/42
f 116/169/33 125/180/33 124/179/33 114/166/33
f 112/163/37 123/178/37 122/177/37 110/160/37
f 118/172/31 126/181/31 125/180/31 116/169/31
f 108/157/27 121/176/27 119/173/27 106/154/27
f 114/166/36 124/179/36 123/178/36 112/163/36
f 104/150/35 120/175/35 126/181/35 118/172/35
f 106/154/32 119/173/32 120/174/32 104/151/32
f 127/182/14 129/187/14 130/189/14 131/191/14 132/193/14 133/195/14 134/197/14 128/184/14
f 124/179/41 132/194/41 131/192/41 123/178/41
f 122/177/44 130/190/44 129/188/44 121/176/44
f 119/173/43 127/183/43 128/185/43 120/174/43
f 120/175/38 128/186/38 134/198/38 126/181/38
f 125/180/30 133/196/30 132/194/30 124/179/30
f 123/178/40 131/192/40 130/190/40 122/177/40
f 121/176/39 129/188/39 127/183/39 119/173/39
f 135/199/25 136/203/25 138/206/25 137/204/25
f 137/204/26 138/206/26 140/209/26 139/207/26
f 139/207/28 140/209/28 142/212/28 141/210/28
f 141/210/29 142/212/29 144/215/29 143/213/29
f 143/213/21 144/215/21 146/218/21 145/216/21
f 145/216/22 146/218/22 148/221/22 147/219/22
f 142/212/33 140/209/33 153/228/33 154/229/33
f 147/219/23 148/221/23 150/224/23 149/222/23
f 149/222/24 150/224/24 136/202/24 135/200/24
f 135/201/3 137/205/3 139/208/3 141/211/3 143/214/3 145/217/3 147/220/3 149/223/3
f 158/233/39 157/232/39 165/248/39 166/250/39
f 148/221/34 146/218/34 156/231/34 157/232/34
f 144/215/36 142/212/36 154/229/36 155/230/36
f 150/224/27 148/221/27 157/232/27 158/233/27
f 140/209/31 138/206/31 151/225/31 153/228/31
f 146/218/37 144/215/37 155/230/37 156/231/37
f 136/202/32 150/224/32 158/233/32 152/227/32
f 138/206/35 136/203/35 152/226/35 151/225/35
f 159/234/14 160/236/14 166/249/14 165/247/14 164/245/14 163/243/14 162/241/14 161/239/14
f 156/231/40 155/230/40 163/244/40 164/246/40
f 154/229/30 153/228/30 161/240/30 162/242/30
f 151/225/38 152/226/38 160/237/38 159/235/38
f 152/227/43 158/233/43 166/250/43 160/238/43
f 157/232/44 156/231/44 164/246/44 165/248/44
f 155/230/41 154/229/41 162/242/41 163/244/41
f 153/228/42 151/225/42 159/235/42 161/240/42
o Cylinder.001
v 0.045071 0.343680 0.153274
v 0.034752 0.318524 0.163672
v 0.123436 0.343680 0.185383
v 0.123492 0.318524 0.200032
v 0.201553 0.343680 0.152675
v 0.211952 0.318524 0.162994
v 0.233663 0.343680 0.074310
v 0.248312 0.318524 0.074254
v 0.200955 0.343680 -0.003807
v 0.211274 0.318524 -0.014206
v 0.122589 0.343680 -0.035917
v 0.122533 0.318524 -0.050566
v 0.044472 0.343680 -0.003209
v 0.034074 0.318524 -0.013528
v 0.012363 0.343680 0.075157
v -0.002286 0.318524 0.075213
v 0.123446 0.322752 0.188076
v 0.043174 0.322752 0.155186
v 0.203465 0.322752 0.154572
v 0.236356 0.322752 0.074300
v 0.202852 0.322752 -0.005719
v 0.122579 0.322752 -0.038610
v 0.042560 0.322752 -0.005106
v 0.009670 0.322752 0.075167
v 0.123282 0.332448 0.145017
v 0.073505 0.332448 0.124622
v 0.172901 0.332448 0.124241
v 0.193297 0.332448 0.074464
v 0.172521 0.332448 0.024845
v 0.122744 0.332448 0.004449
v 0.073124 0.332448 0.025225
v 0.052729 0.332448 0.075002
v 0.082062 0.350348 0.115998
v 0.123235 0.350348 0.132868
v 0.164278 0.350348 0.115684
v 0.181148 0.350348 0.074511
v 0.163963 0.350348 0.033468
v 0.122790 0.350348 0.016598
v 0.081748 0.350348 0.033783
v 0.064878 0.350348 0.074956
v 0.099149 0.356535 0.098780
v 0.123142 0.356535 0.108611
v 0.147060 0.356535 0.098597
v 0.156891 0.356535 0.074604
v 0.146876 0.356535 0.050686
v 0.122883 0.356535 0.040855
v 0.098966 0.356535 0.050870
v 0.089135 0.356535 0.074863
v -0.153614 0.343680 -0.043897
v -0.163933 0.318524 -0.033498
v -0.186322 0.343680 -0.122014
v -0.200971 0.318524 -0.121958
v -0.154213 0.343680 -0.200379
v -0.164611 0.318524 -0.210698
v -0.076096 0.343680 -0.233087
v -0.076152 0.318524 -0.247736
v 0.002270 0.343680 -0.200978
v 0.012588 0.318524 -0.211376
v 0.034977 0.343680 -0.122861
v 0.049627 0.318524 -0.122917
v 0.002868 0.343680 -0.044495
v 0.013266 0.318524 -0.034176
v -0.075249 0.343680 -0.011787
v -0.075193 0.318524 0.002862
v -0.189016 0.322752 -0.122004
v -0.155511 0.322752 -0.041985
v -0.156125 0.322752 -0.202276
v -0.076106 0.322752 -0.235780
v 0.004167 0.322752 -0.202890
v 0.037671 0.322752 -0.122871
v 0.004780 0.322752 -0.042598
v -0.075239 0.322752 -0.009094
v -0.145956 0.332448 -0.122168
v -0.125181 0.332448 -0.072549
v -0.125561 0.332448 -0.171945
v -0.075941 0.332448 -0.192721
v -0.026164 0.332448 -0.172326
v -0.005388 0.332448 -0.122706
v -0.025784 0.332448 -0.072929
v -0.075403 0.332448 -0.052153
v -0.116623 0.350348 -0.081172
v -0.133808 0.350348 -0.122215
v -0.116937 0.350348 -0.163388
v -0.075895 0.350348 -0.180572
v -0.034722 0.350348 -0.163702
v -0.017537 0.350348 -0.122660
v -0.034407 0.350348 -0.081487
v -0.075450 0.350348 -0.064302
v -0.099536 0.356535 -0.098390
v -0.109550 0.356535 -0.122308
v -0.099719 0.356535 -0.146301
v -0.075802 0.356535 -0.156315
v -0.051809 0.356535 -0.146484
v -0.041794 0.356535 -0.122567
v -0.051625 0.356535 -0.098574
v -0.075543 0.356535 -0.088559
vn -0.3339 0.4738 0.8149
vn 0.3401 0.4738 0.8123
vn 0.8149 0.4738 0.3339
vn 0.8123 0.4738 -0.3401
vn 0.3339 0.4738 -0.8149
vn -0.3401 0.4738 -0.8123
vn -0.3308 -0.9339 -0.1355
vn -0.8149 0.4738 -0.3339
vn -0.8123 0.4738 0.3401
vn 0.1260 0.9907 0.0516
vn 0.2191 -0.9716 0.0898
vn 0.1381 -0.9339 0.3298
vn -0.3297 -0.9339 0.1381
vn 0.3308 -0.9339 0.1355
vn -0.1381 -0.9339 -0.3298
vn -0.1355 -0.9339 0.3308
vn 0.3298 -0.9339 -0.1381
vn 0.1355 -0.9339 -0.3308
vn -0.0000 -1.0000 -0.0000
vn -0.0898 -0.9716 0.2191
vn -0.2191 -0.9716 -0.0898
vn 0.0898 -0.9716 -0.2191
vn 0.2184 -0.9716 -0.0915
vn 0.0915 -0.9716 0.2184
vn -0.2184 -0.9716 0.0915
vn -0.0915 -0.9716 -0.2184
vn -0.2463 0.9639 -0.1009
vn -0.0526 0.9907 -0.1256
vn 0.1256 0.9907 -0.0526
vn -0.1260 0.9907 -0.0516
vn 0.0526 0.9907 0.1256
vn 0.0516 0.9907 -0.1260
vn -0.1256 0.9907 0.0526
vn -0.0516 0.9907 0.1260
vn -0.0000 1.0000 -0.0000
vn 0.1009 0.9639 -0.2463
vn 0.2463 0.9639 0.1009
vn -0.1009 0.9639 0.2463
vn -0.2455 0.9639 0.1028
vn -0.1028 0.9639 -0.2455
vn 0.2455 0.9639 -0.1028
vn 0.1028 0.9639 0.2455
vn -0.3298 -0.9339 0.1381
vt 0.000000 0.500000
vt 1.000000 0.500000
vt 0.000000 1.000000
vt 1.000000 1.000000
vt 0.875000 0.500000
vt 0.875000 1.000000
vt 0.750000 0.500000
vt 0.750000 1.000000
vt 0.625000 0.500000
vt 0.625000 1.000000
vt 0.500000 0.500000
vt 0.500000 1.000000
vt 0.375000 0.500000
vt 0.375000 1.000000
vt 0.250000 0.500000
vt 0.250000 1.000000
vt 0.125000 0.500000
vt 0.125000 1.000000
vt 0.875000 1.000000
vt 1.000000 1.000000
vt 0.000000 1.000000
vt 0.750000 1.000000
vt 0.625000 1.000000
vt 0.500000 1.000000
vt 0.375000 1.000000
vt 0.250000 1.000000
vt 0.125000 1.000000
vt 0.419706 0.419706
vt 0.875000 1.000000
vt 0.250000 0.490000
vt 1.000000 1.000000
vt 0.000000 1.000000
vt 0.490000 0.250000
vt 0.750000 1.000000
vt 0.419706 0.080294
vt 0.625000 1.000000
vt 0.250000 0.010000
vt 0.500000 1.000000
vt 0.080294 0.080294
vt 0.375000 1.000000
vt 0.010000 0.250000
vt 0.250000 1.000000
vt 0.080294 0.419706
vt 0.125000 1.000000
vt 1.000000 0.500000
vt 0.000000 0.500000
vt 0.875000 0.500000
vt 0.750000 0.500000
vt 0.625000 0.500000
vt 0.500000 0.500000
vt 0.375000 0.500000
vt 0.250000 0.500000
vt 0.125000 0.500000
vt 0.750000 0.490000
vt 1.000000 0.500000
vt 0.000000 0.500000
vt 0.919706 0.419706
vt 0.875000 0.500000
vt 0.990000 0.250000
vt 0.750000 0.500000
vt 0.919706 0.080294
vt 0.625000 0.500000
vt 0.750000 0.010000
vt 0.500000 0.500000
vt 0.580294 0.080294
vt 0.375000 0.500000
vt 0.510000 0.250000
vt 0.250000 0.500000
vt 0.580294 0.419706
vt 0.125000 0.500000
vt 0.000000 0.500000
vt 1.000000 0.500000
vt 0.000000 1.000000
vt 1.000000 1.000000
vt 0.875000 0.500000
vt 0.875000 1.000000
vt 0.750000 0.500000
vt 0.750000 1.000000
vt 0.625000 0.500000
vt 0.625000 1.000000
vt 0.500000 0.500000
vt 0.500000 1.000000
vt 0.375000 0.500000
vt 0.375000 1.000000
vt 0.250000 0.500000
vt 0.250000 1.000000
vt 0.125000 0.500000
vt 0.125000 1.000000
vt 0.875000 1.000000
vt 1.000000 1.000000
vt 0.000000 1.000000
vt 0.750000 1.000000
vt 0.625000 1.000000
vt 0.500000 1.000000
vt 0.375000 1.000000
vt 0.250000 1.000000
vt 0.125000 1.000000
vt 0.419706 0.419706
vt 0.875000 1.000000
vt 0.250000 0.490000
vt 1.000000 1.000000
vt 0.000000 1.000000
vt 0.490000 0.250000
vt 0.750000 1.000000
vt 0.419706 0.080294
vt 0.625000 1.000000
vt 0.250000 0.010000
vt 0.500000 1.000000
vt 0.080294 0.080294
vt 0.375000 1.000000
vt 0.010000 0.250000
vt 0.250000 1.000000
vt 0.080294 0.419706
vt 0.125000 1.000000
vt 1.000000 0.500000
vt 0.000000 0.500000
vt 0.875000 0.500000
vt 0.750000 0.500000
vt 0.625000 0.500000
vt 0.500000 0.500000
vt 0.375000 0.500000
vt 0.250000 0.500000
vt 0.125000 0.500000
vt 0.750000 0.490000
vt 1.000000 0.500000
vt 0.000000 0.500000
vt 0.919706 0.419706
vt 0.875000 0.500000
vt 0.990000 0.250000
vt 0.750000 0.500000
vt 0.919706 0.080294
vt 0.625000 0.500000
vt 0.750000 0.010000
vt 0.500000 0.500000
vt 0.580294 0.080294
vt 0.375000 0.500000
vt 0.510000 0.250000
vt 0.250000 0.500000
vt 0.580294 0.419706
vt 0.125000 0.500000
s 0
f 167/252/45 168/254/45 170/256/45 169/255/45
f 169/255/46 170/256/46 172/258/46 171/257/46
f 171/257/47 172/258/47 174/260/47 173/259/47
f 173/259/48 174/260/48 176/262/48 175/261/48
f 175/261/49 176/262/49 178/264/49 177/263/49
f 177/263/50 178/264/50 180/266/50 179/265/50
f 174/260/51 172/258/51 185/272/51 186/273/51
f 179/265/52 180/266/52 182/268/52 181/267/52
f 181/267/53 182/268/53 168/253/53 167/251/53
f 171/257/54 173/259/54 202/299/54 201/298/54
f 190/277/55 189/276/55 197/292/55 198/294/55
f 180/266/56 178/264/56 188/275/56 189/276/56
f 176/262/57 174/260/57 186/273/57 187/274/57
f 182/268/58 180/266/58 189/276/58 190/277/58
f 172/258/59 170/256/59 183/269/59 185/272/59
f 178/264/60 176/262/60 187/274/60 188/275/60
f 168/253/61 182/268/61 190/277/61 184/271/61
f 170/256/62 168/254/62 184/270/62 183/269/62
f 191/278/63 192/280/63 198/293/63 197/291/63 196/289/63 195/287/63 194/285/63 193/283/63
f 188/275/64 187/274/64 195/288/64 196/290/64
f 186/273/65 185/272/65 193/284/65 194/286/65
f 183/269/66 184/270/66 192/281/66 191/279/66
f 184/271/67 190/277/67 198/294/67 192/282/67
f 189/276/68 188/275/68 196/290/68 197/292/68
f 187/274/69 186/273/69 194/286/69 195/288/69
f 185/272/70 183/269/70 191/279/70 193/284/70
f 205/302/71 206/303/71 214/320/71 213/318/71
f 177/263/72 179/265/72 205/302/72 204/301/72
f 173/259/73 175/261/73 203/300/73 202/299/73
f 179/265/74 181/267/74 206/303/74 205/302/74
f 169/255/75 171/257/75 201/298/75 200/297/75
f 175/261/76 177/263/76 204/301/76 203/300/76
f 181/267/77 167/251/77 199/296/77 206/303/77
f 167/252/78 169/255/78 200/297/78 199/295/78
f 207/304/79 208/307/79 209/309/79 210/311/79 211/313/79 212/315/79 213/317/79 214/319/79
f 203/300/80 204/301/80 212/316/80 211/314/80
f 201/298/81 202/299/81 210/312/81 209/310/81
f 199/295/82 200/297/82 208/308/82 207/305/82
f 206/303/83 199/296/83 207/306/83 214/320/83
f 204/301/84 205/302/84 213/318/84 212/316/84
f 202/299/85 203/300/85 211/314/85 210/312/85
f 200/297/86 201/298/86 209/310/86 208/308/86
f 215/322/53 217/325/53 218/326/53 216/324/53
f 217/325/52 219/327/52 220/328/52 218/326/52
f 219/327/50 221/329/50 222/330/50 220/328/50
f 221/329/49 223/331/49 224/332/49 222/330/49
f 223/331/48 225/333/48 226/334/48 224/332/48
f 225/333/47 227/335/47 228/336/47 226/334/47
f 222/330/56 234/343/56 233/342/56 220/328/56
f 227/335/46 229/337/46 230/338/46 228/336/46
f 229/337/45 215/321/45 216/323/45 230/338/45
f 219/327/72 249/368/72 250/369/72 221/329/72
f 238/347/70 246/364/70 245/362/70 237/346/70
f 228/336/51 237/346/51 236/345/51 226/334/51
f 224/332/60 235/344/60 234/343/60 222/330/60
f 230/338/59 238/347/59 237/346/59 228/336/59
f 220/328/58 233/342/58 231/339/58 218/326/58
f 226/334/87 236/345/87 235/344/87 224/332/87
f 216/323/62 232/341/62 238/347/62 230/338/62
f 218/326/61 231/339/61 232/340/61 216/324/61
f 239/348/63 241/353/63 242/355/63 243/357/63 244/359/63 245/361/63 246/363/63 240/350/63
f 236/345/69 244/360/69 243/358/69 235/344/69
f 234/343/68 242/356/68 241/354/68 233/342/68
f 231/339/67 239/349/67 240/351/67 232/340/67
f 232/341/66 240/352/66 246/364/66 238/347/66
f 237/346/65 245/362/65 244/360/65 236/345/65
f 235/344/64 243/358/64 242/356/64 234/343/64
f 233/342/55 241/354/55 239/349/55 231/339/55
f 253/372/86 261/388/86 262/390/86 254/373/86
f 225/333/54 252/371/54 253/372/54 227/335/54
f 221/329/76 250/369/76 251/370/76 223/331/76
f 227/335/75 253/372/75 254/373/75 229/337/75
f 217/325/74 248/367/74 249/368/74 219/327/74
f 223/331/73 251/370/73 252/371/73 225/333/73
f 229/337/78 254/373/78 247/366/78 215/321/78
f 215/322/77 247/365/77 248/367/77 217/325/77
f 255/374/79 262/389/79 261/387/79 260/385/79 259/383/79 258/381/79 257/379/79 256/377/79
f 251/370/85 259/384/85 260/386/85 252/371/85
f 249/368/84 257/380/84 258/382/84 250/369/84
f 247/365/83 255/375/83 256/378/83 248/367/83
f 254/373/82 262/390/82 255/376/82 247/366/82
f 252/371/81 260/386/81 261/388/81 253/372/81
f 250/369/80 258/382/80 259/384/80 251/370/80
f 248/367/71 256/378/71 257/380/71 249/368/71
o BezierCurve
v -0.077355 0.358626 -0.124573
v -0.076282 0.360449 -0.123081
v -0.074693 0.361116 -0.121151
v -0.073013 0.360449 -0.119298
v -0.071693 0.358626 -0.118020
v -0.071087 0.356136 -0.117659
v -0.071356 0.353646 -0.118311
v -0.072429 0.351823 -0.119803
v -0.074018 0.351156 -0.121734
v -0.075697 0.351823 -0.123586
v -0.077018 0.353646 -0.124865
v -0.077624 0.356136 -0.125226
v -0.045729 0.363115 -0.145614
v -0.045214 0.364857 -0.143770
v -0.044286 0.365429 -0.141423
v -0.043192 0.364677 -0.139201
v -0.042227 0.362803 -0.137699
v -0.041648 0.360309 -0.137321
v -0.041611 0.357863 -0.138167
v -0.042125 0.356121 -0.140010
v -0.043054 0.355549 -0.142357
v -0.044147 0.356301 -0.144580
v -0.045113 0.358175 -0.146081
v -0.045692 0.360669 -0.146460
v -0.017317 0.368421 -0.152313
v -0.017636 0.370008 -0.150293
v -0.017705 0.370394 -0.147735
v -0.017508 0.369475 -0.145324
v -0.017096 0.367498 -0.143705
v -0.016580 0.364992 -0.143313
v -0.016098 0.362629 -0.144253
v -0.015780 0.361042 -0.146273
v -0.015710 0.360656 -0.148831
v -0.015907 0.361575 -0.151242
v -0.016319 0.363552 -0.152861
v -0.016835 0.366058 -0.153253
v 0.007799 0.374040 -0.146533
v 0.006627 0.375440 -0.144698
v 0.005518 0.375598 -0.142365
v 0.004769 0.374471 -0.140158
v 0.004580 0.372362 -0.138670
v 0.005003 0.369836 -0.138298
v 0.005923 0.367569 -0.139143
v 0.007095 0.366169 -0.140978
v 0.008204 0.366012 -0.143311
v 0.008953 0.367138 -0.145517
v 0.009142 0.369247 -0.147006
v 0.008720 0.371773 -0.147377
v 0.029365 0.379379 -0.130741
v 0.027642 0.380646 -0.129283
v 0.025845 0.380638 -0.127421
v 0.024455 0.379357 -0.125653
v 0.023846 0.377146 -0.124452
v 0.024180 0.374599 -0.124141
v 0.025367 0.372397 -0.124803
v 0.027091 0.371130 -0.126261
v 0.028888 0.371138 -0.128123
v 0.030277 0.372419 -0.129891
v 0.030887 0.374629 -0.131092
v 0.030553 0.377177 -0.131403
v 0.047707 0.383965 -0.107588
v 0.045717 0.385167 -0.106451
v 0.043571 0.385074 -0.105006
v 0.041846 0.383711 -0.103641
v 0.041002 0.381444 -0.102721
v 0.041267 0.378879 -0.102493
v 0.042569 0.376705 -0.103018
v 0.044559 0.375503 -0.104155
v 0.046705 0.375596 -0.105600
v 0.048430 0.376959 -0.106965
v 0.049274 0.379226 -0.107885
v 0.049009 0.381791 -0.108113
v 0.063382 0.387402 -0.079402
v 0.061274 0.388579 -0.078468
v 0.058961 0.388450 -0.077315
v 0.057061 0.387051 -0.076251
v 0.056085 0.384755 -0.075562
v 0.056293 0.382178 -0.075432
v 0.057631 0.380011 -0.075895
v 0.059738 0.378835 -0.076829
v 0.062052 0.378963 -0.077982
v 0.063951 0.380363 -0.079046
v 0.064928 0.382659 -0.079735
v 0.064719 0.385235 -0.079865
v 0.076864 0.389284 -0.048359
v 0.074710 0.390454 -0.047529
v 0.072313 0.390314 -0.046564
v 0.070314 0.388902 -0.045723
v 0.069249 0.386594 -0.045231
v 0.069405 0.384011 -0.045220
v 0.070738 0.381843 -0.045693
v 0.072892 0.380673 -0.046523
v 0.075289 0.380812 -0.047487
v 0.077288 0.382225 -0.048328
v 0.078352 0.384533 -0.048820
v 0.078197 0.387116 -0.048832
v 0.088552 0.389182 -0.016622
v 0.086392 0.390353 -0.015808
v 0.083954 0.390214 -0.014952
v 0.081890 0.388803 -0.014283
v 0.080754 0.386497 -0.013981
v 0.080849 0.383915 -0.014127
v 0.082152 0.381748 -0.014682
v 0.084312 0.380577 -0.015496
v 0.086750 0.380716 -0.016352
v 0.088814 0.382127 -0.017021
v 0.089950 0.384433 -0.017322
v 0.089854 0.387016 -0.017176
v 0.098814 0.386656 0.013644
v 0.096682 0.387819 0.014539
v 0.094231 0.387684 0.015358
v 0.092117 0.386286 0.015882
v 0.090906 0.384000 0.015970
v 0.090924 0.381439 0.015598
v 0.092164 0.379288 0.014867
v 0.094296 0.378125 0.013972
v 0.096748 0.378260 0.013152
v 0.098862 0.379659 0.012629
v 0.100072 0.381945 0.012541
v 0.100055 0.384506 0.012913
v 0.108017 0.381236 0.040284
v 0.105964 0.382350 0.041399
v 0.103530 0.382203 0.042268
v 0.101368 0.380835 0.042657
v 0.100056 0.378612 0.042463
v 0.099947 0.376130 0.041737
v 0.101069 0.374054 0.040674
v 0.103121 0.372941 0.039558
v 0.105555 0.373087 0.038690
v 0.107717 0.374455 0.038300
v 0.109029 0.376678 0.038494
v 0.109139 0.379160 0.039220
v 0.116555 0.372375 0.061151
v 0.114695 0.373279 0.062707
v 0.112338 0.373048 0.063753
v 0.110117 0.371745 0.064007
v 0.108626 0.369718 0.063402
v 0.108265 0.367510 0.062100
v 0.109130 0.365713 0.060450
v 0.110990 0.364809 0.058894
v 0.113347 0.365040 0.057849
v 0.115568 0.366344 0.057595
v 0.117059 0.368371 0.058199
v 0.117420 0.370579 0.059501
v 0.124825 0.359432 0.073918
v 0.123350 0.359721 0.076025
v 0.121170 0.359209 0.077323
v 0.118869 0.358032 0.077463
v 0.117064 0.356507 0.076409
v 0.116238 0.355041 0.074442
v 0.116612 0.354028 0.072090
v 0.118087 0.353739 0.069983
v 0.120267 0.354251 0.068685
v 0.122568 0.355428 0.068545
v 0.124373 0.356953 0.069599
v 0.125199 0.358419 0.071566
vn -0.5299 0.4906 -0.6918
vn -0.4127 0.5090 -0.7554
vn -0.4026 0.0303 -0.9149
vn -0.5543 0.0058 -0.8323
vn -0.3662 0.8548 -0.3678
vn -0.3164 0.8604 -0.3994
vn -0.1005 0.9931 0.0604
vn -0.1349 0.9886 0.0668
vn 0.1948 0.8586 0.4742
vn 0.0866 0.8491 0.5211
vn 0.4358 0.4881 0.7562
vn 0.2868 0.4709 0.8342
vn 0.5568 -0.0150 0.8305
vn 0.4063 -0.0421 0.9128
vn 0.5252 -0.5150 0.6775
vn 0.4104 -0.5417 0.7336
vn 0.3488 -0.8745 0.3370
vn 0.3007 -0.8862 0.3524
vn 0.0778 -0.9925 -0.0948
vn 0.1119 -0.9865 -0.1194
vn -0.2101 -0.8428 -0.4955
vn -0.1035 -0.8262 -0.5538
vn -0.4386 -0.4774 -0.7614
vn -0.2902 -0.4550 -0.8419
vn -0.1181 0.5621 -0.8186
vn -0.0241 0.1009 -0.9946
vn -0.1826 0.8830 -0.4324
vn -0.2003 0.9771 0.0722
vn -0.1637 0.8076 0.5665
vn -0.0801 0.4072 0.9098
vn 0.0274 -0.1144 0.9931
vn 0.1263 -0.6004 0.7897
vn 0.1882 -0.9105 0.3682
vn 0.1984 -0.9694 -0.1446
vn 0.1569 -0.7750 -0.6121
vn 0.0759 -0.3850 -0.9198
vn 0.1947 0.6327 -0.7495
vn 0.3717 0.1890 -0.9089
vn -0.0336 0.9174 -0.3966
vn -0.2563 0.9644 0.0649
vn -0.4136 0.7503 0.5157
vn -0.4580 0.3231 0.8282
vn -0.3716 -0.1993 0.9068
vn -0.1790 -0.6632 0.7268
vn 0.0611 -0.9364 0.3455
vn 0.2800 -0.9520 -0.1238
vn 0.4219 -0.7177 -0.5540
vn 0.4544 -0.3017 -0.8381
vn 0.4067 0.6889 -0.5999
vn 0.6371 0.2553 -0.7272
vn 0.0691 0.9463 -0.3158
vn -0.2904 0.9553 0.0544
vn -0.5754 0.7058 0.4132
vn -0.7045 0.2599 0.6604
vn -0.6377 -0.2600 0.7250
vn -0.3930 -0.7071 0.5879
vn -0.0411 -0.9565 0.2888
vn 0.3181 -0.9441 -0.0865
vn 0.5887 -0.6812 -0.4352
vn 0.7037 -0.2433 -0.6676
vn 0.5183 0.7211 -0.4597
vn 0.7740 0.2909 -0.5625
vn 0.1257 0.9636 -0.2359
vn -0.3027 0.9517 0.0517
vn -0.6525 0.6836 0.3269
vn -0.8266 0.2281 0.5145
vn -0.7745 -0.2912 0.5615
vn -0.5096 -0.7306 0.4545
vn -0.1059 -0.9690 0.2234
vn 0.3241 -0.9436 -0.0673
vn 0.6645 -0.6664 -0.3382
vn 0.8276 -0.2151 -0.5184
vn 0.5773 0.7369 -0.3516
vn 0.8421 0.3071 -0.4434
vn 0.1598 0.9729 -0.1669
vn -0.3017 0.9513 0.0628
vn -0.6842 0.6749 0.2764
vn -0.8835 0.2151 0.4162
vn -0.8432 -0.3042 0.4433
vn -0.5731 -0.7411 0.3496
vn -0.1475 -0.9759 0.1610
vn 0.3167 -0.9459 -0.0707
vn 0.6939 -0.6624 -0.2825
vn 0.8851 -0.2039 -0.4184
vn 0.6128 0.7438 -0.2667
vn 0.8783 0.3135 -0.3610
vn 0.1851 0.9774 -0.1019
vn -0.2925 0.9520 0.0902
vn -0.6933 0.6726 0.2588
vn -0.9093 0.2117 0.3583
vn -0.8802 -0.3075 0.3614
vn -0.6125 -0.7442 0.2665
vn -0.1786 -0.9789 0.0993
vn 0.3029 -0.9483 -0.0945
vn 0.7015 -0.6626 -0.2624
vn 0.9113 -0.2006 -0.3596
vn 0.6382 0.7452 -0.1933
vn 0.8990 0.3151 -0.3042
vn 0.2088 0.9775 -0.0313
vn -0.2761 0.9510 0.1389
vn -0.6885 0.6720 0.2726
vn -0.9183 0.2128 0.3339
vn -0.9020 -0.3050 0.3056
vn -0.6418 -0.7417 0.1947
vn -0.2072 -0.9778 0.0309
vn 0.2833 -0.9486 -0.1412
vn 0.6963 -0.6630 -0.2749
vn 0.9210 -0.2000 -0.3343
vn 0.6606 0.7411 -0.1201
vn 0.9109 0.3149 -0.2667
vn 0.2364 0.9699 0.0578
vn -0.2494 0.9430 0.2203
vn -0.6700 0.6676 0.3248
vn -0.9144 0.2143 0.3435
vn -0.9153 -0.2983 0.2706
vn -0.6692 -0.7326 0.1244
vn -0.2405 -0.9690 -0.0558
vn 0.2540 -0.9416 -0.2209
vn 0.6788 -0.6581 -0.3259
vn 0.9186 -0.1972 -0.3423
vn 0.6861 0.7268 -0.0327
vn 0.9160 0.3169 -0.2461
vn 0.2774 0.9422 0.1882
vn -0.2016 0.9113 0.3590
vn -0.6282 0.6441 0.4365
vn -0.8927 0.2072 0.4002
vn -0.9223 -0.2882 0.2576
vn -0.7028 -0.7100 0.0448
vn -0.2897 -0.9399 -0.1806
vn 0.2038 -0.9117 -0.3567
vn 0.6406 -0.6328 -0.4349
vn 0.9010 -0.1814 -0.3941
vn 0.7278 0.6800 0.0884
vn 0.9122 0.3305 -0.2422
vn 0.3569 0.8478 0.3922
vn -0.1018 0.7983 0.5936
vn -0.5341 0.5470 0.6446
vn -0.8329 0.1548 0.5314
vn -0.9180 -0.2828 0.2782
vn -0.7567 -0.6516 -0.0525
vn -0.3832 -0.8458 -0.3711
vn 0.1007 -0.8035 -0.5867
vn 0.5557 -0.5333 -0.6377
vn 0.8524 -0.1146 -0.5101
vn 0.7494 0.6412 0.1652
vn 0.9082 0.3442 -0.2382
vn 0.4018 0.7593 0.5119
vn -0.0320 0.6895 0.7236
vn -0.4558 0.4582 0.7631
vn -0.7788 0.1103 0.6175
vn -0.9101 -0.2805 0.3051
vn -0.7897 -0.6054 -0.0998
vn -0.4421 -0.7601 -0.4762
vn 0.0269 -0.6994 -0.7142
vn 0.4867 -0.4427 -0.7531
vn 0.8129 -0.0579 -0.5796
vt 0.000000 1.000000
vt 0.000000 0.000000
vt 0.000000 0.083333
vt 0.000000 0.166667
vt 0.000000 0.250000
vt 0.000000 0.333333
vt 0.000000 0.416667
vt 0.000000 0.500000
vt 0.000000 0.583333
vt 0.000000 0.666667
vt 0.000000 0.750000
vt 0.000000 0.833333
vt 0.000000 0.916667
vt 0.083333 1.000000
vt 0.083333 0.000000
vt 0.083333 0.083333
vt 0.083333 0.166667
vt 0.083333 0.250000
vt 0.083333 0.333333
vt 0.083333 0.416667
vt 0.083333 0.500000
vt 0.083333 0.583333
vt 0.083333 0.666667
vt 0.083333 0.750000
vt 0.083333 0.833333
vt 0.083333 0.916667
vt 0.166667 1.000000
vt 0.166667 0.000000
vt 0.166667 0.083333
vt 0.166667 0.166667
vt 0.166667 0.250000
vt 0.166667 0.333333
vt 0.166667 0.416667
vt 0.166667 0.500000
vt 0.166667 0.583333
vt 0.166667 0.666667
vt 0.166667 0.750000
vt 0.166667 0.833333
vt 0.166667 0.916667
vt 0.250000 1.000000
vt 0.250000 0.000000
vt 0.250000 0.083333
vt 0.250000 0.166667
vt 0.250000 0.250000
vt 0.250000 0.333333
vt 0.250000 0.416667
vt 0.250000 0.500000
vt 0.250000 0.583333
vt 0.250000 0.666667
vt 0.250000 0.750000
vt 0.250000 0.833333
vt 0.250000 0.916667
vt 0.333333 1.000000
vt 0.333333 0.000000
vt 0.333333 0.083333
vt 0.333333 0.166667
vt 0.333333 0.250000
vt 0.333333 0.333333
vt 0.333333 0.416667
vt 0.333333 0.500000
vt 0.333333 0.583333
vt 0.333333 0.666667
vt 0.333333 0.750000
vt 0.333333 0.833333
vt 0.333333 0.916667
vt 0.416667 1.000000
vt 0.416667 0.000000
vt 0.416667 0.083333
vt 0.416667 0.166667
vt 0.416667 0.250000
vt 0.416667 0.333333
vt 0.416667 0.416667
vt 0.416667 0.500000
vt 0.416667 0.583333
vt 0.416667 0.666667
vt 0.416667 0.750000
vt 0.416667 0.833333
vt 0.416667 0.916667
vt 0.500000 1.000000
vt 0.500000 0.000000
vt 0.500000 0.083333
vt 0.500000 0.166667
vt 0.500000 0.250000
vt 0.500000 0.333333
vt 0.500000 0.416667
vt 0.500000 0.500000
vt 0.500000 0.583333
vt 0.500000 0.666667
vt 0.500000 0.750000
vt 0.500000 0.833333
vt 0.500000 0.916667
vt 0.583333 1.000000
vt 0.583333 0.000000
vt 0.583333 0.083333
vt 0.583333 0.166667
vt 0.583333 0.250000
vt 0.583333 0.333333
vt 0.583333 0.416667
vt 0.583333 0.500000
vt 0.583333 0.583333
vt 0.583333 0.666667
vt 0.583333 0.750000
vt 0.583333 0.833333
vt 0.583333 0.916667
vt 0.666667 1.000000
vt 0.666667 0.000000
vt 0.666667 0.083333
vt 0.666667 0.166667
vt 0.666667 0.250000
vt 0.666667 0.333333
vt 0.666667 0.416667
vt 0.666667 0.500000
vt 0.666667 0.583333
vt 0.666667 0.666667
vt 0.666667 0.750000
vt 0.666667 0.833333
vt 0.666667 0.916667
vt 0.750000 1.000000
vt 0.750000 0.000000
vt 0.750000 0.083333
vt 0.750000 0.166667
vt 0.750000 0.250000
vt 0.750000 0.333333
vt 0.750000 0.416667
vt 0.750000 0.500000
vt 0.750000 0.583333
vt 0.750000 0.666667
vt 0.750000 0.750000
vt 0.750000 0.833333
vt 0.750000 0.916667
vt 0.833333 1.000000
vt 0.833333 0.000000
vt 0.833333 0.083333
vt 0.833333 0.166667
vt 0.833333 0.250000
vt 0.833333 0.333333
vt 0.833333 0.416667
vt 0.833333 0.500000
vt 0.833333 0.583333
vt 0.833333 0.666667
vt 0.833333 0.750000
vt 0.833333 0.833333
vt 0.833333 0.916667
vt 0.916667 1.000000
vt 0.916667 0.000000
vt 0.916667 0.083333
vt 0.916667 0.166667
vt 0.916667 0.250000
vt 0.916667 0.333333
vt 0.916667 0.416667
vt 0.916667 0.500000
vt 0.916667 0.583333
vt 0.916667 0.666667
vt 0.916667 0.750000
vt 0.916667 0.833333
vt 0.916667 0.916667
vt 1.000000 1.000000
vt 1.000000 0.000000
vt 1.000000 0.083333
vt 1.000000 0.166667
vt 1.000000 0.250000
vt 1.000000 0.333333
vt 1.000000 0.416667
vt 1.000000 0.500000
vt 1.000000 0.583333
vt 1.000000 0.666667
vt 1.000000 0.750000
vt 1.000000 0.833333
vt 1.000000 0.916667
s 1
f 263/391/88 275/404/89 286/416/90 274/403/91
f 264/393/92 276/406/93 275/405/89 263/392/88
f 265/394/94 277/407/95 276/406/93 264/393/92
f 266/395/96 278/408/97 277/407/95 265/394/94
f 267/396/98 279/409/99 278/408/97 266/395/96
f 268/397/100 280/410/101 279/409/99 267/396/98
f 269/398/102 281/411/103 280/410/101 268/397/100
f 270/399/104 282/412/105 281/411/103 269/398/102
f 271/400/106 283/413/107 282/412/105 270/399/104
f 272/401/108 284/414/109 283/413/107 271/400/106
f 273/402/110 285/415/111 284/414/109 272/401/108
f 274/403/91 286/416/90 285/415/111 273/402/110
f 275/404/89 287/417/112 298/429/113 286/416/90
f 276/406/93 288/419/114 287/418/112 275/405/89
f 277/407/95 289/420/115 288/419/114 276/406/93
f 278/408/97 290/421/116 289/420/115 277/407/95
f 279/409/99 291/422/117 290/421/116 278/408/97
f 280/410/101 292/423/118 291/422/117 279/409/99
f 281/411/103 293/424/119 292/423/118 280/410/101
f 282/412/105 294/425/120 293/424/119 281/411/103
f 283/413/107 295/426/121 294/425/120 282/412/105
f 284/414/109 296/427/122 295/426/121 283/413/107
f 285/415/111 297/428/123 296/427/122 284/414/109
f 286/416/90 298/429/113 297/428/123 285/415/111
f 287/417/112 299/430/124 310/442/125 298/429/113
f 288/419/114 300/432/126 299/431/124 287/418/112
f 289/420/115 301/433/127 300/432/126 288/419/114
f 290/421/116 302/434/128 301/433/127 289/420/115
f 291/422/117 303/435/129 302/434/128 290/421/116
f 292/423/118 304/436/130 303/435/129 291/422/117
f 293/424/119 305/437/131 304/436/130 292/423/118
f 294/425/120 306/438/132 305/437/131 293/424/119
f 295/426/121 307/439/133 306/438/132 294/425/120
f 296/427/122 308/440/134 307/439/133 295/426/121
f 297/428/123 309/441/135 308/440/134 296/427/122
f 298/429/113 310/442/125 309/441/135 297/428/123
f 299/430/124 311/443/136 322/455/137 310/442/125
f 300/432/126 312/445/138 311/444/136 299/431/124
f 301/433/127 313/446/139 312/445/138 300/432/126
f 302/434/128 314/447/140 313/446/139 301/433/127
f 303/435/129 315/448/141 314/447/140 302/434/128
f 304/436/130 316/449/142 315/448/141 303/435/129
f 305/437/131 317/450/143 316/449/142 304/436/130
f 306/438/132 318/451/144 317/450/143 305/437/131
f 307/439/133 319/452/145 318/451/144 306/438/132
f 308/440/134 320/453/146 319/452/145 307/439/133
f 309/441/135 321/454/147 320/453/146 308/440/134
f 310/442/125 322/455/137 321/454/147 309/441/135
f 311/443/136 323/456/148 334/468/149 322/455/137
f 312/445/138 324/458/150 323/457/148 311/444/136
f 313/446/139 325/459/151 324/458/150 312/445/138
f 314/447/140 326/460/152 325/459/151 313/446/139
f 315/448/141 327/461/153 326/460/152 314/447/140
f 316/449/142 328/462/154 327/461/153 315/448/141
f 317/450/143 329/463/155 328/462/154 316/449/142
f 318/451/144 330/464/156 329/463/155 317/450/143
f 319/452/145 331/465/157 330/464/156 318/451/144
f 320/453/146 332/466/158 331/465/157 319/452/145
f 321/454/147 333/467/159 332/466/158 320/453/146
f 322/455/137 334/468/149 333/467/159 321/454/147
f 323/456/148 335/469/160 346/481/161 334/468/149
f 324/458/150 336/471/162 335/470/160 323/457/148
f 325/459/151 337/472/163 336/471/162 324/458/150
f 326/460/152 338/473/164 337/472/163 325/459/151
f 327/461/153 339/474/165 338/473/164 326/460/152
f 328/462/154 340/475/166 339/474/165 327/461/153
f 329/463/155 341/476/167 340/475/166 328/462/154
f 330/464/156 342/477/168 341/476/167 329/463/155
f 331/465/157 343/478/169 342/477/168 330/464/156
f 332/466/158 344/479/170 343/478/169 331/465/157
f 333/467/159 345/480/171 344/479/170 332/466/158
f 334/468/149 346/481/161 345/480/171 333/467/159
f 335/469/160 347/482/172 358/494/173 346/481/161
f 336/471/162 348/484/174 347/483/172 335/470/160
f 337/472/163 349/485/175 348/484/174 336/471/162
f 338/473/164 350/486/176 349/485/175 337/472/163
f 339/474/165 351/487/177 350/486/176 338/473/164
f 340/475/166 352/488/178 351/487/177 339/474/165
f 341/476/167 353/489/179 352/488/178 340/475/166
f 342/477/168 354/490/180 353/489/179 341/476/167
f 343/478/169 355/491/181 354/490/180 342/477/168
f 344/479/170 356/492/182 355/491/181 343/478/169
f 345/480/171 357/493/183 356/492/182 344/479/170
f 346/481/161 358/494/173 357/493/183 345/480/171
f 347/482/172 359/495/184 370/507/185 358/494/173
f 348/484/174 360/497/186 359/496/184 347/483/172
f 349/485/175 361/498/187 360/497/186 348/484/174
f 350/486/176 362/499/188 361/498/187 349/485/175
f 351/487/177 363/500/189 362/499/188 350/486/176
f 352/488/178 364/501/190 363/500/189 351/487/177
f 353/489/179 365/502/191 364/501/190 352/488/178
f 354/490/180 366/503/192 365/502/191 353/489/179
f 355/491/181 367/504/193 366/503/192 354/490/180
f 356/492/182 368/505/194 367/504/193 355/491/181
f 357/493/183 369/506/195 368/505/194 356/492/182
f 358/494/173 370/507/185 369/506/195 357/493/183
f 359/495/184 371/508/196 382/520/197 370/507/185
f 360/497/186 372/510/198 371/509/196 359/496/184
f 361/498/187 373/511/199 372/510/198 360/497/186
f 362/499/188 374/512/200 373/511/199 361/498/187
f 363/500/189 375/513/201 374/512/200 362/499/188
f 364/501/190 376/514/202 375/513/201 363/500/189
f 365/502/191 377/515/203 376/514/202 364/501/190
f 366/503/192 378/516/204 377/515/203 365/502/191
f 367/504/193 379/517/205 378/516/204 366/503/192
f 368/505/194 380/518/206 379/517/205 367/504/193
f 369/506/195 381/519/207 380/518/206 368/505/194
f 370/507/185 382/520/197 381/519/207 369/506/195
f 371/508/196 383/521/208 394/533/209 382/520/197
f 372/510/198 384/523/210 383/522/208 371/509/196
f 373/511/199 385/524/211 384/523/210 372/510/198
f 374/512/200 386/525/212 385/524/211 373/511/199
f 375/513/201 387/526/213 386/525/212 374/512/200
f 376/514/202 388/527/214 387/526/213 375/513/201
f 377/515/203 389/528/215 388/527/214 376/514/202
f 378/516/204 390/529/216 389/528/215 377/515/203
f 379/517/205 391/530/217 390/529/216 378/516/204
f 380/518/206 392/531/218 391/530/217 379/517/205
f 381/519/207 393/532/219 392/531/218 380/518/206
f 382/520/197 394/533/209 393/532/219 381/519/207
f 383/521/208 395/534/220 406/546/221 394/533/209
f 384/523/210 396/536/222 395/535/220 383/522/208
f 385/524/211 397/537/223 396/536/222 384/523/210
f 386/525/212 398/538/224 397/537/223 385/524/211
f 387/526/213 399/539/225 398/538/224 386/525/212
f 388/527/214 400/540/226 399/539/225 387/526/213
f 389/528/215 401/541/227 400/540/226 388/527/214
f 390/529/216 402/542/228 401/541/227 389/528/215
f 391/530/217 403/543/229 402/542/228 390/529/216
f 392/531/218 404/544/230 403/543/229 391/530/217
f 393/532/219 405/545/231 404/544/230 392/531/218
f 394/533/209 406/546/221 405/545/231 393/532/219
f 395/534/220 407/547/232 418/559/233 406/546/221
f 396/536/222 408/549/234 407/548/232 395/535/220
f 397/537/223 409/550/235 408/549/234 396/536/222
f 398/538/224 410/551/236 409/550/235 397/537/223
f 399/539/225 411/552/237 410/551/236 398/538/224
f 400/540/226 412/553/238 411/552/237 399/539/225
f 401/541/227 413/554/239 412/553/238 400/540/226
f 402/542/228 414/555/240 413/554/239 401/541/227
f 403/543/229 415/556/241 414/555/240 402/542/228
f 404/544/230 416/557/242 415/556/241 403/543/229
f 405/545/231 417/558/243 416/557/242 404/544/230
f 406/546/221 418/559/233 417/558/243 405/545/231
o BezierCurve
v -0.077355 0.358626 -0.124573
v -0.076282 0.360449 -0.123081
v -0.074693 0.361116 -0.121151
v -0.073013 0.360449 -0.119298
v -0.071693 0.358626 -0.118020
v -0.071087 0.356136 -0.117659
v -0.071356 0.353646 -0.118311
v -0.072429 0.351823 -0.119803
v -0.074018 0.351156 -0.121734
v -0.075697 0.351823 -0.123586
v -0.077018 0.353646 -0.124865
v -0.077624 0.356136 -0.125226
v -0.045729 0.363115 -0.145614
v -0.045214 0.364857 -0.143770
v -0.044286 0.365429 -0.141423
v -0.043192 0.364677 -0.139201
v -0.042227 0.362803 -0.137699
v -0.041648 0.360309 -0.137321
v -0.041611 0.357863 -0.138167
v -0.042125 0.356121 -0.140010
v -0.043054 0.355549 -0.142357
v -0.044147 0.356301 -0.144580
v -0.045113 0.358175 -0.146081
v -0.045692 0.360669 -0.146460
v -0.017317 0.368421 -0.152313
v -0.017636 0.370008 -0.150293
v -0.017705 0.370394 -0.147735
v -0.017508 0.369475 -0.145324
v -0.017096 0.367498 -0.143705
v -0.016580 0.364992 -0.143313
v -0.016098 0.362629 -0.144253
v -0.015780 0.361042 -0.146273
v -0.015710 0.360656 -0.148831
v -0.015907 0.361575 -0.151242
v -0.016319 0.363552 -0.152861
v -0.016835 0.366058 -0.153253
v 0.007799 0.374040 -0.146533
v 0.006627 0.375440 -0.144698
v 0.005518 0.375598 -0.142365
v 0.004769 0.374471 -0.140158
v 0.004580 0.372362 -0.138670
v 0.005003 0.369836 -0.138298
v 0.005923 0.367569 -0.139143
v 0.007095 0.366169 -0.140978
v 0.008204 0.366012 -0.143311
v 0.008953 0.367138 -0.145517
v 0.009142 0.369247 -0.147006
v 0.008720 0.371773 -0.147377
v 0.029365 0.379379 -0.130741
v 0.027642 0.380646 -0.129283
v 0.025845 0.380638 -0.127421
v 0.024455 0.379357 -0.125653
v 0.023846 0.377146 -0.124452
v 0.024180 0.374599 -0.124141
v 0.025367 0.372397 -0.124803
v 0.027091 0.371130 -0.126261
v 0.028888 0.371138 -0.128123
v 0.030277 0.372419 -0.129891
v 0.030887 0.374629 -0.131092
v 0.030553 0.377177 -0.131403
v 0.047707 0.383965 -0.107588
v 0.045717 0.385167 -0.106451
v 0.043571 0.385074 -0.105006
v 0.041846 0.383711 -0.103641
v 0.041002 0.381444 -0.102721
v 0.041267 0.378879 -0.102493
v 0.042569 0.376705 -0.103018
v 0.044559 0.375503 -0.104155
v 0.046705 0.375596 -0.105600
v 0.048430 0.376959 -0.106965
v 0.049274 0.379226 -0.107885
v 0.049009 0.381791 -0.108113
v 0.063382 0.387402 -0.079402
v 0.061274 0.388579 -0.078468
v 0.058961 0.388450 -0.077315
v 0.057061 0.387051 -0.076251
v 0.056085 0.384755 -0.075562
v 0.056293 0.382178 -0.075432
v 0.057631 0.380011 -0.075895
v 0.059738 0.378835 -0.076829
v 0.062052 0.378963 -0.077982
v 0.063951 0.380363 -0.079046
v 0.064928 0.382659 -0.079735
v 0.064719 0.385235 -0.079865
v 0.076864 0.389284 -0.048359
v 0.074710 0.390454 -0.047529
v 0.072313 0.390314 -0.046564
v 0.070314 0.388902 -0.045723
v 0.069249 0.386594 -0.045231
v 0.069405 0.384011 -0.045220
v 0.070738 0.381843 -0.045693
v 0.072892 0.380673 -0.046523
v 0.075289 0.380812 -0.047487
v 0.077288 0.382225 -0.048328
v 0.078352 0.384533 -0.048820
v 0.078197 0.387116 -0.048832
v 0.088552 0.389182 -0.016622
v 0.086392 0.390353 -0.015808
v 0.083954 0.390214 -0.014952
v 0.081890 0.388803 -0.014283
v 0.080754 0.386497 -0.013981
v 0.080849 0.383915 -0.014127
v 0.082152 0.381748 -0.014682
v 0.084312 0.380577 -0.015496
v 0.086750 0.380716 -0.016352
v 0.088814 0.382127 -0.017021
v 0.089950 0.384433 -0.017322
v 0.089854 0.387016 -0.017176
v 0.098814 0.386656 0.013644
v 0.096682 0.387819 0.014539
v 0.094231 0.387684 0.015358
v 0.092117 0.386286 0.015882
v 0.090906 0.384000 0.015970
v 0.090924 0.381439 0.015598
v 0.092164 0.379288 0.014867
v 0.094296 0.378125 0.013972
v 0.096748 0.378260 0.013152
v 0.098862 0.379659 0.012629
v 0.100072 0.381945 0.012541
v 0.100055 0.384506 0.012913
v 0.108017 0.381236 0.040284
v 0.105964 0.382350 0.041399
v 0.103530 0.382203 0.042268
v 0.101368 0.380835 0.042657
v 0.100056 0.378612 0.042463
v 0.099947 0.376130 0.041737
v 0.101069 0.374054 0.040674
v 0.103121 0.372941 0.039558
v 0.105555 0.373087 0.038690
v 0.107717 0.374455 0.038300
v 0.109029 0.376678 0.038494
v 0.109139 0.379160 0.039220
v 0.116555 0.372375 0.061151
v 0.114695 0.373279 0.062707
v 0.112338 0.373048 0.063753
v 0.110117 0.371745 0.064007
v 0.108626 0.369718 0.063402
v 0.108265 0.367510 0.062100
v 0.109130 0.365713 0.060450
v 0.110990 0.364809 0.058894
v 0.113347 0.365040 0.057849
v 0.115568 0.366344 0.057595
v 0.117059 0.368371 0.058199
v 0.117420 0.370579 0.059501
v 0.124825 0.359432 0.073918
v 0.123350 0.359721 0.076025
v 0.121170 0.359209 0.077323
v 0.118869 0.358032 0.077463
v 0.117064 0.356507 0.076409
v 0.116238 0.355041 0.074442
v 0.116612 0.354028 0.072090
v 0.118087 0.353739 0.069983
v 0.120267 0.354251 0.068685
v 0.122568 0.355428 0.068545
v 0.124373 0.356953 0.069599
v 0.125199 0.358419 0.071566
vn -0.5299 0.4906 -0.6918
vn -0.4127 0.5090 -0.7554
vn -0.4026 0.0303 -0.9149
vn -0.5543 0.0058 -0.8323
vn -0.3662 0.8548 -0.3678
vn -0.3164 0.8604 -0.3994
vn -0.1005 0.9931 0.0604
vn -0.1349 0.9886 0.0668
vn 0.1948 0.8586 0.4742
vn 0.0866 0.8491 0.5211
vn 0.4358 0.4881 0.7562
vn 0.2868 0.4709 0.8342
vn 0.5568 -0.0150 0.8305
vn 0.4063 -0.0421 0.9128
vn 0.5252 -0.5150 0.6775
vn 0.4104 -0.5417 0.7336
vn 0.3488 -0.8745 0.3370
vn 0.3007 -0.8862 0.3524
vn 0.0778 -0.9925 -0.0948
vn 0.1119 -0.9865 -0.1194
vn -0.2101 -0.8428 -0.4955
vn -0.1035 -0.8262 -0.5538
vn -0.4386 -0.4774 -0.7614
vn -0.2902 -0.4550 -0.8419
vn -0.1181 0.5621 -0.8186
vn -0.0241 0.1009 -0.9946
vn -0.1826 0.8830 -0.4324
vn -0.2003 0.9771 0.0722
vn -0.1637 0.8076 0.5665
vn -0.0801 0.4072 0.9098
vn 0.0274 -0.1144 0.9931
vn 0.1263 -0.6004 0.7897
vn 0.1882 -0.9105 0.3682
vn 0.1984 -0.9694 -0.1446
vn 0.1569 -0.7750 -0.6121
vn 0.0759 -0.3850 -0.9198
vn 0.1947 0.6327 -0.7495
vn 0.3717 0.1890 -0.9089
vn -0.0336 0.9174 -0.3966
vn -0.2563 0.9644 0.0649
vn -0.4136 0.7503 0.5157
vn -0.4580 0.3231 0.8282
vn -0.3716 -0.1993 0.9068
vn -0.1790 -0.6632 0.7268
vn 0.0611 -0.9364 0.3455
vn 0.2800 -0.9520 -0.1238
vn 0.4219 -0.7177 -0.5540
vn 0.4544 -0.3017 -0.8381
vn 0.4067 0.6889 -0.5999
vn 0.6371 0.2553 -0.7272
vn 0.0691 0.9463 -0.3158
vn -0.2904 0.9553 0.0544
vn -0.5754 0.7058 0.4132
vn -0.7045 0.2599 0.6604
vn -0.6377 -0.2600 0.7250
vn -0.3930 -0.7071 0.5879
vn -0.0411 -0.9565 0.2888
vn 0.3181 -0.9441 -0.0865
vn 0.5887 -0.6812 -0.4352
vn 0.7037 -0.2433 -0.6676
vn 0.5183 0.7211 -0.4597
vn 0.7740 0.2909 -0.5625
vn 0.1257 0.9636 -0.2359
vn -0.3027 0.9517 0.0517
vn -0.6525 0.6836 0.3269
vn -0.8266 0.2281 0.5145
vn -0.7745 -0.2912 0.5615
vn -0.5096 -0.7306 0.4545
vn -0.1059 -0.9690 0.2234
vn 0.3241 -0.9436 -0.0673
vn 0.6645 -0.6664 -0.3382
vn 0.8276 -0.2151 -0.5184
vn 0.5773 0.7369 -0.3516
vn 0.8421 0.3071 -0.4434
vn 0.1598 0.9729 -0.1669
vn -0.3017 0.9513 0.0628
vn -0.6842 0.6749 0.2764
vn -0.8835 0.2151 0.4162
vn -0.8432 -0.3042 0.4433
vn -0.5731 -0.7411 0.3496
vn -0.1475 -0.9759 0.1610
vn 0.3167 -0.9459 -0.0707
vn 0.6939 -0.6624 -0.2825
vn 0.8851 -0.2039 -0.4184
vn 0.6128 0.7438 -0.2667
vn 0.8783 0.3135 -0.3610
vn 0.1851 0.9774 -0.1019
vn -0.2925 0.9520 0.0902
vn -0.6933 0.6726 0.2588
vn -0.9093 0.2117 0.3583
vn -0.8802 -0.3075 0.3614
vn -0.6125 -0.7442 0.2665
vn -0.1786 -0.9789 0.0993
vn 0.3029 -0.9483 -0.0945
vn 0.7015 -0.6626 -0.2624
vn 0.9113 -0.2006 -0.3596
vn 0.6382 0.7452 -0.1933
vn 0.8990 0.3151 -0.3042
vn 0.2088 0.9775 -0.0313
vn -0.2761 0.9510 0.1389
vn -0.6885 0.6720 0.2726
vn -0.9183 0.2128 0.3339
vn -0.9020 -0.3050 0.3056
vn -0.6418 -0.7417 0.1947
vn -0.2072 -0.9778 0.0309
vn 0.2833 -0.9486 -0.1412
vn 0.6963 -0.6630 -0.2749
vn 0.9210 -0.2000 -0.3343
vn 0.6606 0.7411 -0.1201
vn 0.9109 0.3149 -0.2667
vn 0.2364 0.9699 0.0578
vn -0.2494 0.9430 0.2203
vn -0.6700 0.6676 0.3248
vn -0.9144 0.2143 0.3435
vn -0.9153 -0.2983 0.2706
vn -0.6692 -0.7326 0.1244
vn -0.2405 -0.9690 -0.0558
vn 0.2540 -0.9416 -0.2209
vn 0.6788 -0.6581 -0.3259
vn 0.9186 -0.1972 -0.3423
vn 0.6861 0.7268 -0.0327
vn 0.9160 0.3169 -0.2461
vn 0.2774 0.9422 0.1882
vn -0.2016 0.9113 0.3590
vn -0.6282 0.6441 0.4365
vn -0.8927 0.2072 0.4002
vn -0.9223 -0.2882 0.2576
vn -0.7028 -0.7100 0.0448
vn -0.2897 -0.9399 -0.1806
vn 0.2038 -0.9117 -0.3567
vn 0.6406 -0.6328 -0.4349
vn 0.9010 -0.1814 -0.3941
vn 0.7278 0.6800 0.0884
vn 0.9122 0.3305 -0.2422
vn 0.3569 0.8478 0.3922
vn -0.1018 0.7983 0.5936
vn -0.5341 0.5470 0.6446
vn -0.8329 0.1548 0.5314
vn -0.9180 -0.2828 0.2782
vn -0.7567 -0.6516 -0.0525
vn -0.3832 -0.8458 -0.3711
vn 0.1007 -0.8035 -0.5867
vn 0.5557 -0.5333 -0.6377
vn 0.8524 -0.1146 -0.5101
vn 0.7494 0.6412 0.1652
vn 0.9082 0.3442 -0.2382
vn 0.4018 0.7593 0.5119
vn -0.0320 0.6895 0.7236
vn -0.4558 0.4582 0.7631
vn -0.7788 0.1103 0.6175
vn -0.9101 -0.2805 0.3051
vn -0.7897 -0.6054 -0.0998
vn -0.4421 -0.7601 -0.4762
vn 0.0269 -0.6994 -0.7142
vn 0.4867 -0.4427 -0.7531
vn 0.8129 -0.0579 -0.5796
vt 0.000000 1.000000
vt 0.000000 0.000000
vt 0.000000 0.083333
vt 0.000000 0.166667
vt 0.000000 0.250000
vt 0.000000 0.333333
vt 0.000000 0.416667
vt 0.000000 0.500000
vt 0.000000 0.583333
vt 0.000000 0.666667
vt 0.000000 0.750000
vt 0.000000 0.833333
vt 0.000000 0.916667
vt 0.083333 1.000000
vt 0.083333 0.000000
vt 0.083333 0.083333
vt 0.083333 0.166667
vt 0.083333 0.250000
vt 0.083333 0.333333
vt 0.083333 0.416667
vt 0.083333 0.500000
vt 0.083333 0.583333
vt 0.083333 0.666667
vt 0.083333 0.750000
vt 0.083333 0.833333
vt 0.083333 0.916667
vt 0.166667 1.000000
vt 0.166667 0.000000
vt 0.166667 0.083333
vt 0.166667 0.166667
vt 0.166667 0.250000
vt 0.166667 0.333333
vt 0.166667 0.416667
vt 0.166667 0.500000
vt 0.166667 0.583333
vt 0.166667 0.666667
vt 0.166667 0.750000
vt 0.166667 0.833333
vt 0.166667 0.916667
vt 0.250000 1.000000
vt 0.250000 0.000000
vt 0.250000 0.083333
vt 0.250000 0.166667
vt 0.250000 0.250000
vt 0.250000 0.333333
vt 0.250000 0.416667
vt 0.250000 0.500000
vt 0.250000 0.583333
vt 0.250000 0.666667
vt 0.250000 0.750000
vt 0.250000 0.833333
vt 0.250000 0.916667
vt 0.333333 1.000000
vt 0.333333 0.000000
vt 0.333333 0.083333
vt 0.333333 0.166667
vt 0.333333 0.250000
vt 0.333333 0.333333
vt 0.333333 0.416667
vt 0.333333 0.500000
vt 0.333333 0.583333
vt 0.333333 0.666667
vt 0.333333 0.750000
vt 0.333333 0.833333
vt 0.333333 0.916667
vt 0.416667 1.000000
vt 0.416667 0.000000
vt 0.416667 0.083333
vt 0.416667 0.166667
vt 0.416667 0.250000
vt 0.416667 0.333333
vt 0.416667 0.416667
vt 0.416667 0.500000
vt 0.416667 0.583333
vt 0.416667 0.666667
vt 0.416667 0.750000
vt 0.416667 0.833333
vt 0.416667 0.916667
vt 0.500000 1.000000
vt 0.500000 0.000000
vt 0.500000 0.083333
vt 0.500000 0.166667
vt 0.500000 0.250000
vt 0.500000 0.333333
vt 0.500000 0.416667
vt 0.500000 0.500000
vt 0.500000 0.583333
vt 0.500000 0.666667
vt 0.500000 0.750000
vt 0.500000 0.833333
vt 0.500000 0.916667
vt 0.583333 1.000000
vt 0.583333 0.000000
vt 0.583333 0.083333
vt 0.583333 0.166667
vt 0.583333 0.250000
vt 0.583333 0.333333
vt 0.583333 0.416667
vt 0.583333 0.500000
vt 0.583333 0.583333
vt 0.583333 0.666667
vt 0.583333 0.750000
vt 0.583333 0.833333
vt 0.583333 0.916667
vt 0.666667 1.000000
vt 0.666667 0.000000
vt 0.666667 0.083333
vt 0.666667 0.166667
vt 0.666667 0.250000
vt 0.666667 0.333333
vt 0.666667 0.416667
vt 0.666667 0.500000
vt 0.666667 0.583333
vt 0.666667 0.666667
vt 0.666667 0.750000
vt 0.666667 0.833333
vt 0.666667 0.916667
vt 0.750000 1.000000
vt 0.750000 0.000000
vt 0.750000 0.083333
vt 0.750000 0.166667
vt 0.750000 0.250000
vt 0.750000 0.333333
vt 0.750000 0.416667
vt 0.750000 0.500000
vt 0.750000 0.583333
vt 0.750000 0.666667
vt 0.750000 0.750000
vt 0.750000 0.833333
vt 0.750000 0.916667
vt 0.833333 1.000000
vt 0.833333 0.000000
vt 0.833333 0.083333
vt 0.833333 0.166667
vt 0.833333 0.250000
vt 0.833333 0.333333
vt 0.833333 0.416667
vt 0.833333 0.500000
vt 0.833333 0.583333
vt 0.833333 0.666667
vt 0.833333 0.750000
vt 0.833333 0.833333
vt 0.833333 0.916667
vt 0.916667 1.000000
vt 0.916667 0.000000
vt 0.916667 0.083333
vt 0.916667 0.166667
vt 0.916667 0.250000
vt 0.916667 0.333333
vt 0.916667 0.416667
vt 0.916667 0.500000
vt 0.916667 0.583333
vt 0.916667 0.666667
vt 0.916667 0.750000
vt 0.916667 0.833333
vt 0.916667 0.916667
vt 1.000000 1.000000
vt 1.000000 0.000000
vt 1.000000 0.083333
vt 1.000000 0.166667
vt 1.000000 0.250000
vt 1.000000 0.333333
vt 1.000000 0.416667
vt 1.000000 0.500000
vt 1.000000 0.583333
vt 1.000000 0.666667
vt 1.000000 0.750000
vt 1.000000 0.833333
vt 1.000000 0.916667
s 1
f 419/560/244 431/573/245 442/585/246 430/572/247
f 420/562/248 432/575/249 431/574/245 419/561/244
f 421/563/250 433/576/251 432/575/249 420/562/248
f 422/564/252 434/577/253 433/576/251 421/563/250
f 423/565/254 435/578/255 434/577/253 422/564/252
f 424/566/256 436/579/257 435/578/255 423/565/254
f 425/567/258 437/580/259 436/579/257 424/566/256
f 426/568/260 438/581/261 437/580/259 425/567/258
f 427/569/262 439/582/263 438/581/261 426/568/260
f 428/570/264 440/583/265 439/582/263 427/569/262
f 429/571/266 441/584/267 440/583/265 428/570/264
f 430/572/247 442/585/246 441/584/267 429/571/266
f 431/573/245 443/586/268 454/598/269 442/585/246
f 432/575/249 444/588/270 443/587/268 431/574/245
f 433/576/251 445/589/271 444/588/270 432/575/249
f 434/577/253 446/590/272 445/589/271 433/576/251
f 435/578/255 447/591/273 446/590/272 434/577/253
f 436/579/257 448/592/274 447/591/273 435/578/255
f 437/580/259 449/593/275 448/592/274 436/579/257
f 438/581/261 450/594/276 449/593/275 437/580/259
f 439/582/263 451/595/277 450/594/276 438/581/261
f 440/583/265 452/596/278 451/595/277 439/582/263
f 441/584/267 453/597/279 452/596/278 440/583/265
f 442/585/246 454/598/269 453/597/279 441/584/267
f 443/586/268 455/599/280 466/611/281 454/598/269
f 444/588/270 456/601/282 455/600/280 443/587/268
f 445/589/271 457/602/283 456/601/282 444/588/270
f 446/590/272 458/603/284 457/602/283 445/589/271
f 447/591/273 459/604/285 458/603/284 446/590/272
f 448/592/274 460/605/286 459/604/285 447/591/273
f 449/593/275 461/606/287 460/605/286 448/592/274
f 450/594/276 462/607/288 461/606/287 449/593/275
f 451/595/277 463/608/289 462/607/288 450/594/276
f 452/596/278 464/609/290 463/608/289 451/595/277
f 453/597/279 465/610/291 464/609/290 452/596/278
f 454/598/269 466/611/281 465/610/291 453/597/279
f 455/599/280 467/612/292 478/624/293 466/611/281
f 456/601/282 468/614/294 467/613/292 455/600/280
f 457/602/283 469/615/295 468/614/294 456/601/282
f 458/603/284 470/616/296 469/615/295 457/602/283
f 459/604/285 471/617/297 470/616/296 458/603/284
f 460/605/286 472/618/298 471/617/297 459/604/285
f 461/606/287 473/619/299 472/618/298 460/605/286
f 462/607/288 474/620/300 473/619/299 461/606/287
f 463/608/289 475/621/301 474/620/300 462/607/288
f 464/609/290 476/622/302 475/621/301 463/608/289
f 465/610/291 477/623/303 476/622/302 464/609/290
f 466/611/281 478/624/293 477/623/303 465/610/291
f 467/612/292 479/625/304 490/637/305 478/624/293
f 468/614/294 480/627/306 479/626/304 467/613/292
f 469/615/295 481/628/307 480/627/306 468/614/294
f 470/616/296 482/629/308 481/628/307 469/615/295
f 471/617/297 483/630/309 482/629/308 470/616/296
f 472/618/298 484/631/310 483/630/309 471/617/297
f 473/619/299 485/632/311 484/631/310 472/618/298
f 474/620/300 486/633/312 485/632/311 473/619/299
f 475/621/301 487/634/313 486/633/312 474/620/300
f 476/622/302 488/635/314 487/634/313 475/621/301
f 477/623/303 489/636/315 488/635/314 476/622/302
f 478/624/293 490/637/305 489/636/315 477/623/303
f 479/625/304 491/638/316 502/650/317 490/637/305
f 480/627/306 492/640/318 491/639/316 479/626/304
f 481/628/307 493/641/319 492/640/318 480/627/306
f 482/629/308 494/642/320 493/641/319 481/628/307
f 483/630/309 495/643/321 494/642/320 482/629/308
f 484/631/310 496/644/322 495/643/321 483/630/309
f 485/632/311 497/645/323 496/644/322 484/631/310
f 486/633/312 498/646/324 497/645/323 485/632/311
f 487/634/313 499/647/325 498/646/324 486/633/312
f 488/635/314 500/648/326 499/647/325 487/634/313
f 489/636/315 501/649/327 500/648/326 488/635/314
f 490/637/305 502/650/317 501/649/327 489/636/315
f 491/638/316 503/651/328 514/663/329 502/650/317
f 492/640/318 504/653/330 503/652/328 491/639/316
f 493/641/319 505/654/331 504/653/330 492/640/318
f 494/642/320 506/655/332 505/654/331 493/641/319
f 495/643/321 507/656/333 506/655/332 494/642/320
f 496/644/322 508/657/334 507/656/333 495/643/321
f 497/645/323 509/658/335 508/657/334 496/644/322
f 498/646/324 510/659/336 509/658/335 497/645/323
f 499/647/325 511/660/337 510/659/336 498/646/324
f 500/648/326 512/661/338 511/660/337 499/647/325
f 501/649/327 513/662/339 512/661/338 500/648/326
f 502/650/317 514/663/329 513/662/339 501/649/327
f 503/651/328 515/664/340 526/676/341 514/663/329
f 504/653/330 516/666/342 515/665/340 503/652/328
f 505/654/331 517/667/343 516/666/342 504/653/330
f 506/655/332 518/668/344 517/667/343 505/654/331
f 507/656/333 519/669/345 518/668/344 506/655/332
f 508/657/334 520/670/346 519/669/345 507/656/333
f 509/658/335 521/671/347 520/670/346 508/657/334
f 510/659/336 522/672/348 521/671/347 509/658/335
f 511/660/337 523/673/349 522/672/348 510/659/336
f 512/661/338 524/674/350 523/673/349 511/660/337
f 513/662/339 525/675/351 524/674/350 512/661/338
f 514/663/329 526/676/341 525/675/351 513/662/339
f 515/664/340 527/677/352 538/689/353 526/676/341
f 516/666/342 528/679/354 527/678/352 515/665/340
f 517/667/343 529/680/355 528/679/354 516/666/342
f 518/668/344 530/681/356 529/680/355 517/667/343
f 519/669/345 531/682/357 530/681/356 518/668/344
f 520/670/346 532/683/358 531/682/357 519/669/345
f 521/671/347 533/684/359 532/683/358 520/670/346
f 522/672/348 534/685/360 533/684/359 521/671/347
f 523/673/349 535/686/361 534/685/360 522/672/348
f 524/674/350 536/687/362 535/686/361 523/673/349
f 525/675/351 537/688/363 536/687/362 524/674/350
f 526/676/341 538/689/353 537/688/363 525/675/351
f 527/677/352 539/690/364 550/702/365 538/689/353
f 528/679/354 540/692/366 539/691/364 527/678/352
f 529/680/355 541/693/367 540/692/366 528/679/354
f 530/681/356 542/694/368 541/693/367 529/680/355
f 531/682/357 543/695/369 542/694/368 530/681/356
f 532/683/358 544/696/370 543/695/369 531/682/357
f 533/684/359 545/697/371 544/696/370 532/683/358
f 534/685/360 546/698/372 545/697/371 533/684/359
f 535/686/361 547/699/373 546/698/372 534/685/360
f 536/687/362 548/700/374 547/699/373 535/686/361
f 537/688/363 549/701/375 548/700/374 536/687/362
f 538/689/353 550/702/365 549/701/375 537/688/363
f 539/690/364 551/703/376 562/715/377 550/702/365
f 540/692/366 552/705/378 551/704/376 539/691/364
f 541/693/367 553/706/379 552/705/378 540/692/366
f 542/694/368 554/707/380 553/706/379 541/693/367
f 543/695/369 555/708/381 554/707/380 542/694/368
f 544/696/370 556/709/382 555/708/381 543/695/369
f 545/697/371 557/710/383 556/709/382 544/696/370
f 546/698/372 558/711/384 557/710/383 545/697/371
f 547/699/373 559/712/385 558/711/384 546/698/372
f 548/700/374 560/713/386 559/712/385 547/699/373
f 549/701/375 561/714/387 560/713/386 548/700/374
f 550/702/365 562/715/377 561/714/387 549/701/375
f 551/703/376 563/716/388 574/728/389 562/715/377
f 552/705/378 564/718/390 563/717/388 551/704/376
f 553/706/379 565/719/391 564/718/390 552/705/378
f 554/707/380 566/720/392 565/719/391 553/706/379
f 555/708/381 567/721/393 566/720/392 554/707/380
f 556/709/382 568/722/394 567/721/393 555/708/381
f 557/710/383 569/723/395 568/722/394 556/709/382
f 558/711/384 570/724/396 569/723/395 557/710/383
f 559/712/385 571/725/397 570/724/396 558/711/384
f 560/713/386 572/726/398 571/725/397 559/712/385
f 561/714/387 573/727/399 572/726/398 560/713/386
f 562/715/377 574/728/389 573/727/399 561/714/387
