# Blender 3.3.1
# www.blender.org
mtllib Serunai.mtl
o Serunai
v -0.000000 -0.742250 -0.108652
v -0.000000 0.742250 -0.033392
v 0.076828 -0.742250 -0.076828
v 0.023612 0.742250 -0.023612
v 0.108652 -0.742250 -0.000000
v 0.033392 0.742250 0.000000
v 0.076828 -0.742250 0.076828
v 0.023612 0.742250 0.023612
v -0.000000 -0.742250 0.108652
v -0.000000 0.742250 0.033392
v -0.076828 -0.742250 0.076828
v -0.023612 0.742250 0.023612
v -0.108652 -0.742250 -0.000000
v -0.033392 0.742250 0.000000
v -0.076828 -0.742250 -0.076828
v -0.023612 0.742250 -0.023612
v -0.000000 -0.662497 -0.136328
v -0.000000 -0.607424 -0.092974
v -0.000000 -0.106036 -0.061380
v -0.000000 -0.054225 -0.090627
v -0.000000 0.005348 -0.060091
v -0.000000 0.530179 -0.038320
v 0.027096 0.530179 -0.027096
v 0.042491 0.005348 -0.042491
v 0.064083 -0.054225 -0.064083
v 0.043402 -0.106036 -0.043402
v 0.065742 -0.607424 -0.065742
v 0.096398 -0.662497 -0.096398
v 0.038320 0.530179 0.000000
v 0.060091 0.005348 0.000000
v 0.090627 -0.054225 -0.000000
v 0.061380 -0.106036 0.000000
v 0.092974 -0.607424 0.000000
v 0.136328 -0.662497 0.000000
v 0.027096 0.530179 0.027096
v 0.042491 0.005348 0.042491
v 0.064083 -0.054225 0.064083
v 0.043402 -0.106036 0.043402
v 0.065742 -0.607424 0.065742
v 0.096398 -0.662497 0.096398
v -0.000000 0.530179 0.038320
v -0.000000 0.005348 0.060091
v -0.000000 -0.054225 0.090627
v -0.000000 -0.106036 0.061380
v -0.000000 -0.607424 0.092974
v -0.000000 -0.662497 0.136328
v -0.027096 0.530179 0.027096
v -0.042491 0.005348 0.042491
v -0.064083 -0.054225 0.064083
v -0.043402 -0.106036 0.043402
v -0.065742 -0.607424 0.065742
v -0.096398 -0.662497 0.096398
v -0.038320 0.530179 0.000000
v -0.060091 0.005348 0.000000
v -0.090627 -0.054225 -0.000000
v -0.061380 -0.106036 0.000000
v -0.092974 -0.607424 0.000000
v -0.136328 -0.662497 0.000000
v -0.027096 0.530179 -0.027096
v -0.042491 0.005348 -0.042491
v -0.064083 -0.054225 -0.064083
v -0.043402 -0.106036 -0.043402
v -0.065742 -0.607424 -0.065742
v -0.096398 -0.662497 -0.096398
v -0.000000 0.600869 -0.091337
v -0.000000 0.671560 -0.035035
v 0.024773 0.671560 -0.024773
v 0.064585 0.600869 -0.064585
v 0.035035 0.671560 0.000000
v 0.091337 0.600869 0.000000
v 0.024773 0.671560 0.024773
v 0.064585 0.600869 0.064585
v -0.000000 0.671560 0.035035
v -0.000000 0.600869 0.091337
v -0.024773 0.671560 0.024773
v -0.064585 0.600869 0.064585
v -0.035035 0.671560 0.000000
v -0.091337 0.600869 0.000000
v -0.024773 0.671560 -0.024773
v -0.064585 0.600869 -0.064585
v 0.099641 -0.713340 -0.099641
v 0.140913 -0.713340 -0.000000
v 0.099641 -0.713340 0.099641
v -0.000000 -0.713340 0.140913
v -0.099641 -0.713340 0.099641
v -0.140913 -0.713340 -0.000000
v -0.099641 -0.713340 -0.099641
v -0.000000 -0.713340 -0.140913
v 0.013583 0.742250 -0.013583
v -0.000000 0.742250 -0.019209
v 0.019209 0.742250 0.000000
v 0.013583 0.742250 0.013583
v -0.000000 0.742250 0.019209
v -0.013583 0.742250 0.013583
v -0.019209 0.742250 0.000000
v -0.013583 0.742250 -0.013583
v 0.018479 1.011099 -0.005446
v -0.000000 1.011099 -0.007702
v 0.026133 1.011099 0.000000
v 0.018479 1.011099 0.005446
v -0.000000 1.011099 0.007702
v -0.018479 1.011099 0.005446
v -0.026133 1.011099 0.000000
v -0.018479 1.011099 -0.005446
v -0.013583 0.916127 0.013583
v -0.013583 0.952713 0.013583
v -0.019209 0.952713 0.000000
v -0.019209 0.916127 0.000000
v 0.013583 0.916127 0.013583
v 0.013583 0.952713 0.013583
v -0.000000 0.952713 0.019209
v -0.000000 0.916127 0.019209
v 0.013583 0.916127 -0.013583
v 0.013583 0.952713 -0.013583
v 0.019209 0.952713 0.000000
v 0.019209 0.916127 0.000000
v -0.013583 0.952713 -0.013583
v -0.013583 0.916127 -0.013583
v -0.000000 0.916127 -0.019209
v -0.000000 0.952713 -0.019209
v -0.067540 0.916127 0.013583
v -0.067540 0.952713 0.013583
v -0.067540 0.952713 0.000000
v -0.067540 0.916127 0.000000
v 0.067540 0.916127 0.013583
v 0.067540 0.952713 0.013583
v 0.067540 0.916127 -0.013583
v 0.067540 0.952713 -0.013583
v 0.067540 0.952713 0.000000
v 0.067540 0.916127 0.000000
v -0.067540 0.952713 -0.013583
v -0.067540 0.916127 -0.013583
v -0.018479 0.965157 0.018479
v 0.018479 0.965157 0.018479
v 0.018479 0.965157 -0.018479
v -0.000000 0.965157 -0.026133
v -0.026133 0.965157 0.000000
v -0.000000 0.965157 0.026133
v 0.026133 0.965157 0.000000
v -0.018479 0.965157 -0.018479
vn 0.3826 0.0215 -0.9237
vn 0.9237 0.0215 -0.3826
vn 0.9237 0.0215 0.3826
vn 0.3826 0.0215 0.9237
vn -0.3826 0.0215 0.9237
vn -0.9237 0.0215 0.3826
vn -0.0000 1.0000 -0.0000
vn -0.9237 0.0215 -0.3826
vn -0.3826 0.0215 -0.9237
vn -0.0000 -1.0000 -0.0000
vn -0.3814 0.0830 -0.9207
vn -0.3095 0.5882 -0.7472
vn -0.3820 0.0581 -0.9223
vn -0.3393 -0.4624 -0.8192
vn -0.3459 0.4280 -0.8350
vn -0.3824 0.0383 -0.9232
vn -0.9207 0.0830 -0.3814
vn -0.7472 0.5882 -0.3095
vn -0.9223 0.0581 -0.3820
vn -0.8192 -0.4624 -0.3393
vn -0.8350 0.4280 -0.3459
vn -0.9232 0.0383 -0.3824
vn -0.9207 0.0830 0.3814
vn -0.7472 0.5882 0.3095
vn -0.9223 0.0581 0.3820
vn -0.8192 -0.4624 0.3393
vn -0.8350 0.4280 0.3459
vn -0.9232 0.0383 0.3824
vn -0.3814 0.0830 0.9207
vn -0.3095 0.5882 0.7472
vn -0.3820 0.0581 0.9223
vn -0.3393 -0.4624 0.8192
vn -0.3459 0.4280 0.8350
vn -0.3824 0.0383 0.9232
vn 0.3814 0.0830 0.9207
vn 0.3095 0.5882 0.7472
vn 0.3820 0.0581 0.9223
vn 0.3393 -0.4624 0.8192
vn 0.3459 0.4280 0.8350
vn 0.3824 0.0383 0.9232
vn 0.9207 0.0830 0.3814
vn 0.7472 0.5882 0.3095
vn 0.9223 0.0581 0.3820
vn 0.8192 -0.4624 0.3393
vn 0.8350 0.4280 0.3459
vn 0.9232 0.0383 0.3824
vn 0.9207 0.0830 -0.3814
vn 0.7472 0.5882 -0.3095
vn 0.9223 0.0581 -0.3820
vn 0.8192 -0.4624 -0.3393
vn 0.8350 0.4280 -0.3459
vn 0.9232 0.0383 -0.3824
vn 0.3814 0.0830 -0.9207
vn 0.3095 0.5882 -0.7472
vn 0.3820 0.0581 -0.9223
vn 0.3393 -0.4624 -0.8192
vn 0.3459 0.4280 -0.8350
vn 0.3824 0.0383 -0.9232
vn -0.3146 -0.5695 -0.7594
vn -0.3082 0.5927 -0.7441
vn -0.7594 -0.5695 -0.3146
vn -0.7441 0.5927 -0.3082
vn -0.7594 -0.5695 0.3146
vn -0.7441 0.5927 0.3082
vn -0.3146 -0.5695 0.7594
vn -0.3082 0.5927 0.7441
vn 0.3146 -0.5695 0.7594
vn 0.3082 0.5927 0.7441
vn 0.7594 -0.5695 0.3146
vn 0.7441 0.5927 0.3082
vn 0.7594 -0.5695 -0.3146
vn 0.7441 0.5927 -0.3082
vn 0.3146 -0.5695 -0.7594
vn 0.3082 0.5927 -0.7441
vn 0.2664 -0.7178 -0.6432
vn 0.6432 -0.7178 -0.2664
vn 0.6432 -0.7178 0.2664
vn 0.2664 -0.7178 0.6432
vn -0.2664 -0.7178 0.6432
vn -0.6432 -0.7178 0.2664
vn -0.6432 -0.7178 -0.2664
vn -0.2664 -0.7178 -0.6432
vn -0.8399 0.0762 0.5374
vn 0.2459 0.3140 0.9170
vn 0.8399 0.0762 -0.5374
vn -0.8399 0.0762 -0.5374
vn -0.2459 0.3140 0.9170
vn 0.8399 0.0762 0.5374
vn 0.2459 0.3140 -0.9170
vn -0.2459 0.3140 -0.9170
vn -0.3827 -0.0000 -0.9239
vn 0.3827 -0.0000 -0.9239
vn 0.9239 -0.0000 0.3827
vn -0.0000 -0.0000 1.0000
vn -0.3827 -0.0000 0.9239
vn -0.9239 -0.0000 -0.3827
vn 0.9239 -0.0000 -0.3827
vn 0.3827 -0.0000 0.9239
vn -0.9239 -0.0000 0.3827
vn 1.0000 -0.0000 -0.0000
vn -1.0000 -0.0000 -0.0000
vn -0.0000 -0.0000 -1.0000
vn -0.3403 -0.4572 -0.8217
vn 0.3403 -0.4572 -0.8217
vn 0.8217 -0.4572 0.3403
vn -0.3403 -0.4572 0.8217
vn -0.8217 -0.4572 -0.3403
vn 0.8217 -0.4572 -0.3403
vn 0.3403 -0.4572 0.8217
vn -0.8217 -0.4572 0.3403
vt 0.750000 0.490000
vt 1.000000 0.500000
vt 0.000000 0.500000
vt 0.000000 1.000000
vt 1.000000 1.000000
vt 0.919706 0.419706
vt 0.875000 0.500000
vt 0.875000 1.000000
vt 0.990000 0.250000
vt 0.750000 0.500000
vt 0.750000 1.000000
vt 0.919706 0.080294
vt 0.625000 0.500000
vt 0.625000 1.000000
vt 0.750000 0.010000
vt 0.500000 0.500000
vt 0.500000 1.000000
vt 0.580294 0.080294
vt 0.375000 0.500000
vt 0.375000 1.000000
vt 0.510000 0.250000
vt 0.250000 0.500000
vt 0.250000 1.000000
vt 0.580294 0.419706
vt 0.125000 0.500000
vt 0.125000 1.000000
vt 0.000000 0.526862
vt 1.000000 0.526862
vt 0.000000 0.545411
vt 1.000000 0.545411
vt 0.000000 0.714286
vt 1.000000 0.714286
vt 0.000000 0.731736
vt 1.000000 0.731736
vt 0.000000 0.751801
vt 1.000000 0.751801
vt 0.000000 0.928571
vt 1.000000 0.928571
vt 0.875000 0.928571
vt 0.875000 0.751801
vt 0.875000 0.731736
vt 0.875000 0.714286
vt 0.875000 0.545411
vt 0.875000 0.526862
vt 0.750000 0.928571
vt 0.750000 0.751801
vt 0.750000 0.731736
vt 0.750000 0.714286
vt 0.750000 0.545411
vt 0.750000 0.526862
vt 0.625000 0.928571
vt 0.625000 0.751801
vt 0.625000 0.731736
vt 0.625000 0.714286
vt 0.625000 0.545411
vt 0.625000 0.526862
vt 0.500000 0.928571
vt 0.500000 0.751801
vt 0.500000 0.731736
vt 0.500000 0.714286
vt 0.500000 0.545411
vt 0.500000 0.526862
vt 0.375000 0.928571
vt 0.375000 0.751801
vt 0.375000 0.731736
vt 0.375000 0.714286
vt 0.375000 0.545411
vt 0.375000 0.526862
vt 0.250000 0.928571
vt 0.250000 0.751801
vt 0.250000 0.731736
vt 0.250000 0.714286
vt 0.250000 0.545411
vt 0.250000 0.526862
vt 0.125000 0.928571
vt 0.125000 0.751801
vt 0.125000 0.731736
vt 0.125000 0.714286
vt 0.125000 0.545411
vt 0.125000 0.526862
vt 0.000000 0.952381
vt 1.000000 0.952381
vt 0.000000 0.976190
vt 1.000000 0.976190
vt 0.875000 0.976190
vt 0.875000 0.952381
vt 0.750000 0.976190
vt 0.750000 0.952381
vt 0.625000 0.976190
vt 0.625000 0.952381
vt 0.500000 0.976190
vt 0.500000 0.952381
vt 0.375000 0.976190
vt 0.375000 0.952381
vt 0.250000 0.976190
vt 0.250000 0.952381
vt 0.125000 0.976190
vt 0.125000 0.952381
vt 0.875000 0.509737
vt 0.750000 0.509737
vt 0.625000 0.509737
vt 0.500000 0.509737
vt 0.375000 0.509737
vt 0.250000 0.509737
vt 0.125000 0.509737
vt 1.000000 0.509737
vt 0.000000 0.509737
vt 0.875000 1.000000
vt 0.000000 1.000000
vt 1.000000 1.000000
vt 0.750000 1.000000
vt 0.625000 1.000000
vt 0.500000 1.000000
vt 0.375000 1.000000
vt 0.250000 1.000000
vt 0.125000 1.000000
vt 0.419706 0.419706
vt 0.875000 1.000000
vt 0.250000 0.490000
vt 1.000000 1.000000
vt 0.000000 1.000000
vt 0.490000 0.250000
vt 0.750000 1.000000
vt 0.419706 0.080294
vt 0.625000 1.000000
vt 0.250000 0.010000
vt 0.500000 1.000000
vt 0.080294 0.080294
vt 0.375000 1.000000
vt 0.010000 0.250000
vt 0.250000 1.000000
vt 0.080294 0.419706
vt 0.125000 1.000000
vt 0.375000 1.000000
vt 0.375000 1.000000
vt 0.250000 1.000000
vt 0.250000 1.000000
vt 0.625000 1.000000
vt 0.625000 1.000000
vt 0.500000 1.000000
vt 0.500000 1.000000
vt 0.875000 1.000000
vt 0.875000 1.000000
vt 0.750000 1.000000
vt 0.750000 1.000000
vt 0.125000 1.000000
vt 0.125000 1.000000
vt 0.000000 1.000000
vt 1.000000 1.000000
vt 0.000000 1.000000
vt 1.000000 1.000000
vt 0.375000 1.000000
vt 0.375000 1.000000
vt 0.250000 1.000000
vt 0.250000 1.000000
vt 0.625000 1.000000
vt 0.625000 1.000000
vt 0.875000 1.000000
vt 0.875000 1.000000
vt 0.750000 1.000000
vt 0.750000 1.000000
vt 0.125000 1.000000
vt 0.125000 1.000000
vt 0.375000 1.000000
vt 0.625000 1.000000
vt 0.875000 1.000000
vt 0.000000 1.000000
vt 1.000000 1.000000
vt 0.250000 1.000000
vt 0.500000 1.000000
vt 0.750000 1.000000
vt 0.125000 1.000000
s 0
f 66/84/1 2/5/1 4/8/1 67/85/1
f 67/85/2 4/8/2 6/11/2 69/87/2
f 69/87/3 6/11/3 8/14/3 71/89/3
f 71/89/4 8/14/4 10/17/4 73/91/4
f 73/91/5 10/17/5 12/20/5 75/93/5
f 75/93/6 12/20/6 14/23/6 77/95/6
f 8/14/7 6/11/7 91/111/7 92/112/7
f 77/95/8 14/23/8 16/26/8 79/97/8
f 79/97/9 16/26/9 2/4/9 66/83/9
f 1/1/10 3/6/10 5/9/10 7/12/10 9/15/10 11/18/10 13/21/10 15/24/10
f 87/105/11 64/80/11 17/27/11 88/107/11
f 64/80/12 63/79/12 18/29/12 17/27/12
f 63/79/13 62/78/13 19/31/13 18/29/13
f 62/78/14 61/77/14 20/33/14 19/31/14
f 61/77/15 60/76/15 21/35/15 20/33/15
f 60/76/16 59/75/16 22/37/16 21/35/16
f 86/104/17 58/74/17 64/80/17 87/105/17
f 58/74/18 57/73/18 63/79/18 64/80/18
f 57/73/19 56/72/19 62/78/19 63/79/19
f 56/72/20 55/71/20 61/77/20 62/78/20
f 55/71/21 54/70/21 60/76/21 61/77/21
f 54/70/22 53/69/22 59/75/22 60/76/22
f 85/103/23 52/68/23 58/74/23 86/104/23
f 52/68/24 51/67/24 57/73/24 58/74/24
f 51/67/25 50/66/25 56/72/25 57/73/25
f 50/66/26 49/65/26 55/71/26 56/72/26
f 49/65/27 48/64/27 54/70/27 55/71/27
f 48/64/28 47/63/28 53/69/28 54/70/28
f 84/102/29 46/62/29 52/68/29 85/103/29
f 46/62/30 45/61/30 51/67/30 52/68/30
f 45/61/31 44/60/31 50/66/31 51/67/31
f 44/60/32 43/59/32 49/65/32 50/66/32
f 43/59/33 42/58/33 48/64/33 49/65/33
f 42/58/34 41/57/34 47/63/34 48/64/34
f 83/101/35 40/56/35 46/62/35 84/102/35
f 40/56/36 39/55/36 45/61/36 46/62/36
f 39/55/37 38/54/37 44/60/37 45/61/37
f 38/54/38 37/53/38 43/59/38 44/60/38
f 37/53/39 36/52/39 42/58/39 43/59/39
f 36/52/40 35/51/40 41/57/40 42/58/40
f 82/100/41 34/50/41 40/56/41 83/101/41
f 34/50/42 33/49/42 39/55/42 40/56/42
f 33/49/43 32/48/43 38/54/43 39/55/43
f 32/48/44 31/47/44 37/53/44 38/54/44
f 31/47/45 30/46/45 36/52/45 37/53/45
f 30/46/46 29/45/46 35/51/46 36/52/46
f 81/99/47 28/44/47 34/50/47 82/100/47
f 28/44/48 27/43/48 33/49/48 34/50/48
f 27/43/49 26/42/49 32/48/49 33/49/49
f 26/42/50 25/41/50 31/47/50 32/48/50
f 25/41/51 24/40/51 30/46/51 31/47/51
f 24/40/52 23/39/52 29/45/52 30/46/52
f 88/106/53 17/28/53 28/44/53 81/99/53
f 17/28/54 18/30/54 27/43/54 28/44/54
f 18/30/55 19/32/55 26/42/55 27/43/55
f 19/32/56 20/34/56 25/41/56 26/42/56
f 20/34/57 21/36/57 24/40/57 25/41/57
f 21/36/58 22/38/58 23/39/58 24/40/58
f 59/75/59 80/98/59 65/81/59 22/37/59
f 80/98/60 79/97/60 66/83/60 65/81/60
f 53/69/61 78/96/61 80/98/61 59/75/61
f 78/96/62 77/95/62 79/97/62 80/98/62
f 47/63/63 76/94/63 78/96/63 53/69/63
f 76/94/64 75/93/64 77/95/64 78/96/64
f 41/57/65 74/92/65 76/94/65 47/63/65
f 74/92/66 73/91/66 75/93/66 76/94/66
f 35/51/67 72/90/67 74/92/67 41/57/67
f 72/90/68 71/89/68 73/91/68 74/92/68
f 29/45/69 70/88/69 72/90/69 35/51/69
f 70/88/70 69/87/70 71/89/70 72/90/70
f 23/39/71 68/86/71 70/88/71 29/45/71
f 68/86/72 67/85/72 69/87/72 70/88/72
f 22/38/73 65/82/73 68/86/73 23/39/73
f 65/82/74 66/84/74 67/85/74 68/86/74
f 1/2/75 88/106/75 81/99/75 3/7/75
f 3/7/76 81/99/76 82/100/76 5/10/76
f 5/10/77 82/100/77 83/101/77 7/13/77
f 7/13/78 83/101/78 84/102/78 9/16/78
f 9/16/79 84/102/79 85/103/79 11/19/79
f 11/19/80 85/103/80 86/104/80 13/22/80
f 13/22/81 86/104/81 87/105/81 15/25/81
f 15/25/82 87/105/82 88/107/82 1/3/82
f 137/169/83 133/164/83 102/129/83 103/131/83
f 14/23/7 12/20/7 94/114/7 95/115/7
f 10/17/7 8/14/7 92/112/7 93/113/7
f 16/26/7 14/23/7 95/115/7 96/116/7
f 6/11/7 4/8/7 89/108/7 91/111/7
f 12/20/7 10/17/7 93/113/7 94/114/7
f 2/4/7 16/26/7 96/116/7 90/109/7
f 4/8/7 2/5/7 90/110/7 89/108/7
f 97/117/7 98/119/7 104/132/7 103/130/7 102/128/7 101/126/7 100/124/7 99/122/7
f 138/170/84 134/165/84 100/125/84 101/127/84
f 139/171/85 135/166/85 97/118/85 99/123/85
f 140/172/86 137/169/86 103/131/86 104/133/86
f 133/164/87 138/170/87 101/127/87 102/129/87
f 134/165/88 139/171/88 99/123/88 100/125/88
f 135/166/89 136/168/89 98/120/89 97/118/89
f 136/167/90 140/172/90 104/133/90 98/121/90
f 90/109/91 96/116/91 118/147/91 119/148/91
f 119/148/91 118/147/91 117/146/91 120/150/91
f 89/108/92 90/110/92 119/149/92 113/142/92
f 113/142/92 119/149/92 120/151/92 114/143/92
f 92/112/93 91/111/93 116/145/93 109/138/93
f 105/134/94 106/135/94 122/153/94 121/152/94
f 94/114/95 93/113/95 112/141/95 105/134/95
f 105/134/95 112/141/95 111/140/95 106/135/95
f 96/116/96 95/115/96 108/137/96 118/147/96
f 115/144/7 110/139/7 126/157/7 129/160/7
f 91/111/97 89/108/97 113/142/97 116/145/97
f 106/135/7 107/136/7 123/154/7 122/153/7
f 93/113/98 92/112/98 109/138/98 112/141/98
f 112/141/98 109/138/98 110/139/98 111/140/98
f 95/115/99 94/114/99 105/134/99 108/137/99
f 118/147/10 108/137/10 124/155/10 132/163/10
f 125/156/100 130/161/100 129/160/100 126/157/100
f 132/163/101 124/155/101 123/154/101 131/162/101
f 130/161/100 127/158/100 128/159/100 129/160/100
f 124/155/101 121/152/101 122/153/101 123/154/101
f 107/136/7 117/146/7 131/162/7 123/154/7
f 110/139/94 109/138/94 125/156/94 126/157/94
f 113/142/102 114/143/102 128/159/102 127/158/102
f 116/145/10 113/142/10 127/158/10 130/161/10
f 108/137/10 105/134/10 121/152/10 124/155/10
f 117/146/102 118/147/102 132/163/102 131/162/102
f 109/138/10 116/145/10 130/161/10 125/156/10
f 114/143/7 115/144/7 129/160/7 128/159/7
f 120/150/103 117/146/103 140/172/103 136/167/103
f 114/143/104 120/151/104 136/168/104 135/166/104
f 110/139/105 115/144/105 139/171/105 134/165/105
f 106/135/106 111/140/106 138/170/106 133/164/106
f 117/146/107 107/136/107 137/169/107 140/172/107
f 115/144/108 114/143/108 135/166/108 139/171/108
f 111/140/109 110/139/109 134/165/109 138/170/109
f 107/136/110 106/135/110 133/164/110 137/169/110
